<svg version="1.1" id="Layer_1" xmlns="http://www.w3.org/2000/svg" xmlns:xlink="http://www.w3.org/1999/xlink" x="0px" y="0px"
	 width="100%" viewBox="0 0 5333 2667" enable-background="new 0 0 5333 2667" xml:space="preserve">
<path fill="#FFFFFF" opacity="1.000000" stroke="none" 
	d="
M3474.000000,2670.000000 
	C2316.000000,2670.000000 1159.000000,2670.000000 2.000000,2670.000000 
	C2.000000,1780.666626 2.000000,891.333313 2.000000,2.000000 
	C1780.000000,2.000000 3558.000000,2.000000 5336.000000,2.000000 
	C5336.000000,891.333313 5336.000000,1780.666626 5336.000000,2670.000000 
	C4715.666504,2670.000000 4095.333252,2670.000000 3474.000000,2670.000000 
M3837.288818,1069.449219 
	C3837.034668,1069.015381 3836.659912,1068.842773 3835.244385,1067.838867 
	C3802.985352,1040.410278 3767.767822,1017.470032 3729.351562,999.728088 
	C3711.971680,991.701416 3693.816650,985.353516 3675.264648,977.780151 
	C3675.264648,977.780151 3674.384033,977.806885 3673.852295,977.106628 
	C3673.354248,976.692444 3672.801270,976.596558 3670.973389,976.175476 
	C3670.066895,976.062622 3669.160156,975.949768 3667.454590,974.983948 
	C3666.336914,974.756531 3665.218994,974.529175 3663.204346,973.836121 
	C3662.867676,973.845703 3662.530762,973.855347 3661.388916,973.062012 
	C3660.304443,972.854492 3659.220215,972.646973 3656.746094,971.757935 
	C3642.246826,968.087585 3627.872803,963.786316 3613.221924,960.879761 
	C3583.827148,955.048035 3554.208252,950.716980 3522.208496,951.618530 
	C3491.283203,950.841309 3460.508545,952.717712 3430.112305,958.435730 
	C3413.903564,961.484863 3397.976562,966.032837 3380.858398,969.835754 
	C3380.540283,969.994019 3380.221924,970.152344 3378.693115,970.154785 
	C3377.635498,970.679749 3376.577881,971.204651 3373.993408,971.720093 
	C3365.498291,974.552002 3356.988770,977.341125 3348.510986,980.224060 
	C3321.586426,989.379456 3295.591309,1000.566589 3269.997559,1015.899353 
	C3269.175049,1016.347961 3268.352539,1016.796509 3266.211182,1016.660217 
	C3250.163574,1008.777954 3234.312500,1000.460327 3218.022949,993.114563 
	C3192.935547,981.801453 3167.079102,972.537659 3138.629395,966.005859 
	C3099.796631,955.913452 3060.258789,951.362976 3020.196289,951.128479 
	C3013.597900,951.089844 3006.995361,951.757263 2998.576904,951.890869 
	C2994.330566,952.098999 2990.084473,952.307068 2984.170410,952.179749 
	C2978.906494,952.812439 2973.642334,953.445129 2966.857666,953.925598 
	C2965.855957,954.093872 2964.854248,954.262207 2962.338867,954.151855 
	C2958.940430,954.761292 2955.542236,955.370789 2950.426514,955.896301 
	C2945.183350,956.628601 2939.858643,956.998413 2934.712402,958.160217 
	C2918.308594,961.863586 2901.970947,965.861206 2884.059082,969.782471 
	C2877.274414,971.774292 2870.449219,973.638000 2863.712646,975.780518 
	C2838.076416,983.933533 2813.264404,994.164185 2789.555176,1006.835388 
	C2776.169434,1013.989197 2763.390869,1022.279236 2748.968262,1030.395386 
	C2732.680908,1042.300903 2715.908203,1053.608276 2700.257812,1066.299072 
	C2687.477539,1076.662231 2676.037354,1088.677368 2662.784180,1100.466309 
	C2659.866699,1103.758911 2656.949219,1107.051636 2653.171631,1110.548706 
	C2652.608643,1110.892578 2652.350586,1111.393555 2652.028564,1112.073242 
	C2652.028564,1112.073242 2652.072266,1112.440186 2651.276611,1112.659668 
	C2650.765625,1112.990845 2650.522705,1113.460571 2650.093994,1114.106934 
	C2650.093994,1114.106934 2650.082520,1114.561646 2649.319580,1114.731812 
	C2648.820801,1115.039062 2648.600586,1115.484253 2648.140625,1116.203491 
	C2648.140625,1116.203491 2648.083252,1116.736328 2647.459717,1116.809937 
	C2647.048340,1117.043457 2646.864258,1117.395752 2645.740479,1118.683228 
	C2637.393066,1128.526611 2628.697998,1138.101196 2620.809326,1148.299438 
	C2614.614990,1156.307251 2609.417480,1165.085938 2602.542969,1174.200195 
	C2596.295898,1184.257568 2589.587646,1194.060303 2583.874512,1204.412354 
	C2533.994629,1294.796143 2512.568848,1391.311890 2521.558594,1494.406616 
	C2526.460693,1550.623291 2540.655762,1604.347900 2564.062256,1655.623169 
	C2574.656738,1678.832397 2585.868408,1701.759399 2601.716553,1723.610718 
	C2618.425537,1749.409058 2637.437988,1773.426758 2659.094727,1795.191650 
	C2671.966309,1808.127808 2685.965820,1819.941895 2700.084473,1833.482788 
	C2721.980713,1851.948242 2745.339111,1868.373901 2770.364990,1882.261719 
	C2784.535156,1890.125244 2799.347168,1896.831665 2814.793945,1905.119751 
	C2840.996826,1917.403564 2868.533447,1925.937866 2896.257324,1933.900635 
	C2900.626221,1935.155640 2905.292236,1935.376709 2910.845215,1936.887695 
	C2912.540039,1937.117920 2914.234619,1937.348145 2917.117432,1938.085205 
	C2917.970703,1938.100220 2918.823730,1938.115112 2920.967285,1939.024780 
	C2961.593018,1947.525513 3002.645996,1949.800293 3045.769775,1947.833374 
	C3060.012939,1946.493774 3074.397217,1945.988647 3088.465332,1943.611816 
	C3107.775635,1940.349487 3126.846436,1935.668457 3147.545410,1931.678711 
	C3189.228516,1920.255249 3229.077881,1904.438232 3267.420898,1882.791138 
	C3272.264404,1885.561157 3276.958984,1888.644409 3281.983154,1891.034424 
	C3291.699463,1895.656494 3301.602051,1899.887817 3312.381348,1905.364868 
	C3334.468994,1913.461304 3356.371582,1922.123779 3378.716797,1929.432007 
	C3391.227783,1933.523804 3404.472900,1935.371338 3418.297363,1939.064575 
	C3419.492432,1939.184448 3420.687744,1939.304199 3423.238281,1939.961060 
	C3424.682373,1940.032349 3426.126221,1940.103638 3428.900146,1941.087891 
	C3463.662109,1947.435669 3498.690918,1949.529663 3535.002686,1947.920898 
	C3535.341309,1947.814819 3535.680176,1947.708862 3537.355957,1947.901001 
	C3538.252686,1947.776611 3539.149414,1947.652100 3541.816162,1947.877197 
	C3569.427734,1946.821533 3596.660645,1942.887817 3623.573486,1936.774170 
	C3646.875000,1931.480713 3669.963623,1925.413208 3693.411377,1915.752808 
	C3723.737305,1904.306274 3752.458984,1889.652100 3779.947021,1872.521118 
	C3794.223633,1863.623901 3807.862549,1853.888794 3821.242920,1841.888550 
	C3824.779785,1839.630737 3828.671387,1837.777344 3831.790283,1835.042969 
	C3843.753174,1824.555420 3855.866699,1814.186890 3867.154785,1802.998291 
	C3876.760498,1793.477173 3885.309814,1782.890137 3895.499512,1772.043701 
	C3909.692627,1752.759277 3924.297119,1733.758911 3937.907959,1714.071899 
	C3944.856934,1704.020386 3950.023193,1692.736572 3957.066162,1681.157104 
	C4001.612549,1596.070190 4019.770752,1505.651489 4012.436035,1409.918945 
	C4008.847656,1363.087036 3998.863770,1317.717529 3981.872070,1274.042358 
	C3974.426270,1254.903564 3964.714600,1236.646240 3955.832764,1216.581177 
	C3936.387695,1179.570923 3912.725098,1145.460938 3884.153320,1114.965332 
	C3870.791992,1100.704224 3856.092285,1087.696533 3841.500732,1073.135498 
	C3840.875000,1072.772095 3840.249023,1072.408813 3839.367920,1071.244385 
	C3839.024902,1070.727783 3838.543701,1070.485718 3837.813477,1070.129883 
	C3837.813477,1070.129883 3837.411133,1070.097534 3837.288818,1069.449219 
M4506.060059,1349.271362 
	C4506.701172,1351.853271 4507.409668,1354.420654 4507.973145,1357.019409 
	C4513.294922,1381.583740 4514.286621,1406.497192 4514.270020,1431.532104 
	C4514.190918,1548.511108 4514.235840,1665.490234 4514.236328,1782.469238 
	C4514.236328,1786.034058 4514.236328,1789.598999 4514.236328,1793.352905 
	C4592.728516,1793.352905 4670.168457,1793.352905 4748.164062,1793.352905 
	C4748.164062,1789.131348 4748.164062,1785.511353 4748.164062,1781.891235 
	C4748.164062,1684.908569 4748.048340,1587.925781 4748.254883,1490.943604 
	C4748.299805,1469.965576 4748.962891,1448.955078 4750.318359,1428.022827 
	C4751.760742,1405.742920 4754.904785,1383.556274 4762.255371,1362.381348 
	C4766.260254,1350.842651 4771.277344,1339.426514 4777.472168,1328.918823 
	C4796.598145,1296.481689 4832.560547,1284.458374 4869.113281,1291.155273 
	C4886.156250,1294.277832 4899.405762,1303.666260 4907.911621,1318.445557 
	C4913.655762,1328.425781 4918.425781,1339.291016 4921.636230,1350.339966 
	C4929.226074,1376.459473 4930.185547,1403.467407 4930.169434,1430.525757 
	C4930.098633,1547.838135 4930.140625,1665.150391 4930.141602,1782.462769 
	C4930.141602,1786.034912 4930.141602,1789.606934 4930.141602,1792.997070 
	C4946.321289,1795.038086 5156.473145,1794.346680 5163.669922,1792.260010 
	C5163.669922,1788.719238 5163.669922,1785.073120 5163.669922,1781.427124 
	C5163.669922,1646.784546 5163.738281,1512.141968 5163.597168,1377.499634 
	C5163.576172,1357.184937 5163.085938,1336.842041 5161.909668,1316.564575 
	C5160.284180,1288.542114 5155.154297,1261.075317 5145.763184,1234.544556 
	C5127.322754,1182.448730 5093.643066,1144.634521 5041.567383,1124.351196 
	C5015.934082,1114.366943 4989.210938,1109.495361 4961.835449,1107.273071 
	C4927.711914,1104.502808 4893.878418,1105.486938 4860.638184,1114.099243 
	C4812.628906,1126.538086 4771.099121,1149.506104 4740.589844,1189.850708 
	C4734.705566,1197.631714 4720.033691,1197.182617 4714.252930,1189.069458 
	C4693.539062,1159.997437 4665.974121,1139.745728 4633.201660,1126.373779 
	C4604.891113,1114.822754 4575.171387,1109.574829 4544.796387,1107.178223 
	C4504.896484,1104.030273 4465.527344,1106.335327 4427.215332,1118.521240 
	C4387.184082,1131.253906 4353.001465,1152.723145 4328.253906,1187.526245 
	C4325.006348,1192.093384 4321.970703,1196.811157 4319.148438,1200.997314 
	C4314.177734,1200.997314 4309.963379,1200.997314 4305.465332,1200.997314 
	C4295.634766,1173.077271 4285.942383,1145.549072 4276.424316,1118.515137 
	C4217.284180,1118.515137 4159.099609,1118.515137 4100.813477,1118.515137 
	C4100.813477,1343.837524 4100.813477,1568.589233 4100.813477,1793.422485 
	C4178.588379,1793.422485 4255.742188,1793.422485 4333.717285,1793.422485 
	C4333.717285,1789.314819 4333.717773,1785.721924 4333.717773,1782.129028 
	C4333.717773,1689.145752 4333.768555,1596.162354 4333.687500,1503.179077 
	C4333.661621,1473.832520 4334.346680,1444.532959 4338.068359,1415.388306 
	C4341.281738,1390.223389 4345.923828,1365.364380 4356.724609,1342.157471 
	C4374.252930,1304.496826 4404.282715,1286.879395 4445.723145,1289.694702 
	C4466.052246,1291.075806 4482.313965,1300.020386 4492.618164,1317.630249 
	C4498.100098,1326.998779 4501.437988,1337.621582 4506.060059,1349.271362 
M192.420959,1606.999756 
	C192.420959,1669.178955 192.420959,1731.358154 192.420959,1793.452637 
	C271.690582,1793.452637 349.553680,1793.452637 428.537476,1793.452637 
	C428.537476,1687.546387 428.537476,1582.139648 428.537476,1476.534302 
	C448.918884,1476.534302 468.176697,1476.534302 487.978333,1476.534302 
	C549.587463,1582.276367 611.219299,1688.057373 672.518494,1793.267334 
	C761.731079,1793.267334 850.108093,1793.267334 939.732422,1793.267334 
	C854.879883,1666.383789 770.732361,1540.554321 686.736938,1414.952271 
	C687.455017,1413.804199 687.674500,1413.042236 688.176392,1412.719971 
	C690.692383,1411.103882 693.274475,1409.589722 695.847290,1408.063232 
	C719.725159,1393.896729 741.847412,1377.434814 761.496582,1357.755859 
	C793.753662,1325.449829 816.092712,1287.534546 826.562500,1242.867065 
	C837.418518,1196.551147 836.450256,1150.296265 824.955933,1104.352661 
	C812.789001,1055.720947 786.367554,1016.302734 745.777832,986.661987 
	C720.543701,968.234741 692.538940,955.335327 662.851379,945.912292 
	C609.014526,928.824158 553.535034,922.411438 497.386963,922.074768 
	C398.405914,921.481201 299.419250,921.816833 200.434937,921.802917 
	C197.919861,921.802551 195.404724,922.260193 192.420959,922.549744 
	C192.420959,1150.494263 192.420959,1377.746948 192.420959,1606.999756 
M1365.747192,1307.573730 
	C1374.182129,1325.164795 1375.405518,1343.845581 1374.879272,1363.233032 
	C1372.552002,1363.513306 1370.951050,1363.829468 1369.341553,1363.881592 
	C1345.695923,1364.646484 1322.050537,1365.420166 1298.402588,1366.104980 
	C1255.090454,1367.359009 1211.873291,1369.499268 1169.213135,1377.964722 
	C1133.800537,1384.991943 1099.609741,1395.465210 1067.593994,1412.488159 
	C1017.540771,1439.101685 985.327698,1479.558105 974.488770,1535.430908 
	C965.206299,1583.280273 967.482666,1631.023804 982.513306,1677.571167 
	C996.766907,1721.712036 1023.557190,1756.423340 1064.118164,1779.722534 
	C1093.615967,1796.666382 1125.918701,1803.946411 1159.557129,1805.588989 
	C1189.260132,1807.039307 1218.817261,1805.064819 1248.142578,1799.933716 
	C1283.851685,1793.685547 1316.411621,1780.414062 1344.794800,1757.424072 
	C1361.958740,1743.521240 1377.365967,1727.923340 1391.615356,1711.100342 
	C1394.009521,1708.273438 1397.006714,1705.957520 1400.805420,1702.391846 
	C1416.623169,1733.908203 1431.643555,1763.835571 1446.469727,1793.375977 
	C1500.657471,1793.375977 1554.166260,1793.375977 1608.243896,1793.375977 
	C1608.243896,1790.179810 1608.243774,1787.562622 1608.243774,1784.945435 
	C1608.241211,1640.653076 1608.379028,1496.360352 1608.057373,1352.068726 
	C1608.017334,1334.155762 1606.784424,1316.049805 1603.970459,1298.372803 
	C1591.965698,1222.960693 1551.812744,1167.762329 1482.748169,1134.551880 
	C1440.903442,1114.430420 1395.969360,1107.268677 1349.996460,1106.174072 
	C1304.969238,1105.101929 1260.089233,1107.587891 1215.429077,1113.711670 
	C1170.792603,1119.831909 1127.020630,1129.499878 1084.947876,1145.864990 
	C1068.941162,1152.091431 1053.327881,1159.329224 1037.088257,1166.297974 
	C1059.944092,1218.483032 1082.196777,1269.291016 1104.707642,1320.688354 
	C1108.328979,1319.162720 1111.319580,1317.903564 1114.309570,1316.642944 
	C1157.290283,1298.524536 1200.954834,1282.541992 1247.211304,1274.899902 
	C1268.282227,1271.418945 1289.454956,1268.971802 1310.843994,1271.888062 
	C1334.140625,1275.064331 1353.445801,1284.585083 1365.747192,1307.573730 
M2411.408936,1174.425537 
	C2418.401611,1155.885498 2425.394287,1137.345459 2432.606201,1118.223633 
	C2351.065674,1118.223633 2270.792480,1118.223633 2190.192139,1118.223633 
	C2189.331299,1120.895508 2188.474854,1123.396606 2187.716797,1125.927368 
	C2151.169678,1247.964233 2114.633545,1370.004639 2078.089111,1492.042480 
	C2069.208740,1521.699097 2059.715088,1551.223755 2059.547119,1582.675537 
	C2059.540527,1583.917725 2058.229980,1585.152832 2057.442871,1586.540161 
	C2056.398682,1585.621826 2055.561768,1585.248169 2055.491455,1584.763550 
	C2055.110107,1582.130005 2054.862305,1579.473145 2054.669678,1576.817017 
	C2053.096924,1555.145020 2049.031738,1533.879639 2043.082031,1513.052002 
	C2006.262573,1384.159668 1969.234741,1255.326904 1932.259888,1126.479004 
	C1931.457275,1123.682495 1930.461670,1120.941406 1929.717407,1118.666992 
	C1848.603638,1118.666992 1768.223877,1118.666992 1686.745972,1118.666992 
	C1772.772095,1344.305542 1858.417725,1568.946411 1944.023926,1793.483643 
	C2021.485962,1793.483643 2098.362793,1793.483643 2175.181396,1793.483643 
	C2176.304688,1790.570435 2177.268555,1788.091675 2178.217041,1785.606934 
	C2205.858398,1713.201294 2233.524170,1640.805054 2261.131104,1568.386475 
	C2311.013428,1437.535034 2360.860596,1306.670166 2411.408936,1174.425537 
z"/>
<path fill="#010101" opacity="1.000000" stroke="none" 
	d="
M4505.902344,1348.474731 
	C4501.437988,1337.621582 4498.100098,1326.998779 4492.618164,1317.630249 
	C4482.313965,1300.020386 4466.052246,1291.075806 4445.723145,1289.694702 
	C4404.282715,1286.879395 4374.252930,1304.496826 4356.724609,1342.157471 
	C4345.923828,1365.364380 4341.281738,1390.223389 4338.068359,1415.388306 
	C4334.346680,1444.532959 4333.661621,1473.832520 4333.687500,1503.179077 
	C4333.768555,1596.162354 4333.717773,1689.145752 4333.717773,1782.129028 
	C4333.717773,1785.721924 4333.717285,1789.314819 4333.717285,1793.422485 
	C4255.742188,1793.422485 4178.588379,1793.422485 4100.813477,1793.422485 
	C4100.813477,1568.589233 4100.813477,1343.837524 4100.813477,1118.515137 
	C4159.099609,1118.515137 4217.284180,1118.515137 4276.424316,1118.515137 
	C4285.942383,1145.549072 4295.634766,1173.077271 4305.465332,1200.997314 
	C4309.963379,1200.997314 4314.177734,1200.997314 4319.148438,1200.997314 
	C4321.970703,1196.811157 4325.006348,1192.093384 4328.253906,1187.526245 
	C4353.001465,1152.723145 4387.184082,1131.253906 4427.215332,1118.521240 
	C4465.527344,1106.335327 4504.896484,1104.030273 4544.796387,1107.178223 
	C4575.171387,1109.574829 4604.891113,1114.822754 4633.201660,1126.373779 
	C4665.974121,1139.745728 4693.539062,1159.997437 4714.252930,1189.069458 
	C4720.033691,1197.182617 4734.705566,1197.631714 4740.589844,1189.850708 
	C4771.099121,1149.506104 4812.628906,1126.538086 4860.638184,1114.099243 
	C4893.878418,1105.486938 4927.711914,1104.502808 4961.835449,1107.273071 
	C4989.210938,1109.495361 5015.934082,1114.366943 5041.567383,1124.351196 
	C5093.643066,1144.634521 5127.322754,1182.448730 5145.763184,1234.544556 
	C5155.154297,1261.075317 5160.284180,1288.542114 5161.909668,1316.564575 
	C5163.085938,1336.842041 5163.576172,1357.184937 5163.597168,1377.499634 
	C5163.738281,1512.141968 5163.669922,1646.784546 5163.669922,1781.427124 
	C5163.669922,1785.073120 5163.669922,1788.719238 5163.669922,1792.260010 
	C5156.473145,1794.346680 4946.321289,1795.038086 4930.141602,1792.997070 
	C4930.141602,1789.606934 4930.141602,1786.034912 4930.141602,1782.462769 
	C4930.140625,1665.150391 4930.098633,1547.838135 4930.169434,1430.525757 
	C4930.185547,1403.467407 4929.226074,1376.459473 4921.636230,1350.339966 
	C4918.425781,1339.291016 4913.655762,1328.425781 4907.911621,1318.445557 
	C4899.405762,1303.666260 4886.156250,1294.277832 4869.113281,1291.155273 
	C4832.560547,1284.458374 4796.598145,1296.481689 4777.472168,1328.918823 
	C4771.277344,1339.426514 4766.260254,1350.842651 4762.255371,1362.381348 
	C4754.904785,1383.556274 4751.760742,1405.742920 4750.318359,1428.022827 
	C4748.962891,1448.955078 4748.299805,1469.965576 4748.254883,1490.943604 
	C4748.048340,1587.925781 4748.164062,1684.908569 4748.164062,1781.891235 
	C4748.164062,1785.511353 4748.164062,1789.131348 4748.164062,1793.352905 
	C4670.168457,1793.352905 4592.728516,1793.352905 4514.236328,1793.352905 
	C4514.236328,1789.598999 4514.236328,1786.034058 4514.236328,1782.469238 
	C4514.235840,1665.490234 4514.190918,1548.511108 4514.270020,1431.532104 
	C4514.286621,1406.497192 4513.294922,1381.583740 4507.973145,1357.019409 
	C4507.409668,1354.420654 4506.701172,1351.853271 4505.902344,1348.474731 
z"/>
<path fill="#010101" opacity="1.000000" stroke="none" 
	d="
M192.420959,1605.999756 
	C192.420959,1377.746948 192.420959,1150.494263 192.420959,922.549744 
	C195.404724,922.260193 197.919861,921.802551 200.434937,921.802917 
	C299.419250,921.816833 398.405914,921.481201 497.386963,922.074768 
	C553.535034,922.411438 609.014526,928.824158 662.851379,945.912292 
	C692.538940,955.335327 720.543701,968.234741 745.777832,986.661987 
	C786.367554,1016.302734 812.789001,1055.720947 824.955933,1104.352661 
	C836.450256,1150.296265 837.418518,1196.551147 826.562500,1242.867065 
	C816.092712,1287.534546 793.753662,1325.449829 761.496582,1357.755859 
	C741.847412,1377.434814 719.725159,1393.896729 695.847290,1408.063232 
	C693.274475,1409.589722 690.692383,1411.103882 688.176392,1412.719971 
	C687.674500,1413.042236 687.455017,1413.804199 686.736938,1414.952271 
	C770.732361,1540.554321 854.879883,1666.383789 939.732422,1793.267334 
	C850.108093,1793.267334 761.731079,1793.267334 672.518494,1793.267334 
	C611.219299,1688.057373 549.587463,1582.276367 487.978333,1476.534302 
	C468.176697,1476.534302 448.918884,1476.534302 428.537476,1476.534302 
	C428.537476,1582.139648 428.537476,1687.546387 428.537476,1793.452637 
	C349.553680,1793.452637 271.690582,1793.452637 192.420959,1793.452637 
	C192.420959,1731.358154 192.420959,1669.178955 192.420959,1605.999756 
M468.885803,1299.562988 
	C490.588013,1299.085449 512.138977,1297.575928 532.860474,1290.306396 
	C558.765259,1281.218506 577.838867,1264.697632 587.782898,1238.771729 
	C595.180054,1219.485840 597.346436,1199.265747 595.376526,1178.819336 
	C592.034607,1144.132324 573.485962,1120.826782 540.460205,1109.901611 
	C528.868652,1106.067017 516.628479,1103.104004 504.502594,1102.209595 
	C481.945526,1100.546143 459.255127,1100.686157 436.619720,1100.094727 
	C434.062500,1100.027954 431.502045,1100.085693 428.684143,1100.085693 
	C428.684143,1166.949463 428.684143,1232.763428 428.684143,1299.565186 
	C441.753448,1299.565186 454.335510,1299.565186 468.885803,1299.562988 
z"/>
<path fill="#010101" opacity="1.000000" stroke="none" 
	d="
M1365.384277,1306.917480 
	C1353.445801,1284.585083 1334.140625,1275.064331 1310.843994,1271.888062 
	C1289.454956,1268.971802 1268.282227,1271.418945 1247.211304,1274.899902 
	C1200.954834,1282.541992 1157.290283,1298.524536 1114.309570,1316.642944 
	C1111.319580,1317.903564 1108.328979,1319.162720 1104.707642,1320.688354 
	C1082.196777,1269.291016 1059.944092,1218.483032 1037.088257,1166.297974 
	C1053.327881,1159.329224 1068.941162,1152.091431 1084.947876,1145.864990 
	C1127.020630,1129.499878 1170.792603,1119.831909 1215.429077,1113.711670 
	C1260.089233,1107.587891 1304.969238,1105.101929 1349.996460,1106.174072 
	C1395.969360,1107.268677 1440.903442,1114.430420 1482.748169,1134.551880 
	C1551.812744,1167.762329 1591.965698,1222.960693 1603.970459,1298.372803 
	C1606.784424,1316.049805 1608.017334,1334.155762 1608.057373,1352.068726 
	C1608.379028,1496.360352 1608.241211,1640.653076 1608.243774,1784.945435 
	C1608.243774,1787.562622 1608.243896,1790.179810 1608.243896,1793.375977 
	C1554.166260,1793.375977 1500.657471,1793.375977 1446.469727,1793.375977 
	C1431.643555,1763.835571 1416.623169,1733.908203 1400.805420,1702.391846 
	C1397.006714,1705.957520 1394.009521,1708.273438 1391.615356,1711.100342 
	C1377.365967,1727.923340 1361.958740,1743.521240 1344.794800,1757.424072 
	C1316.411621,1780.414062 1283.851685,1793.685547 1248.142578,1799.933716 
	C1218.817261,1805.064819 1189.260132,1807.039307 1159.557129,1805.588989 
	C1125.918701,1803.946411 1093.615967,1796.666382 1064.118164,1779.722534 
	C1023.557190,1756.423340 996.766907,1721.712036 982.513306,1677.571167 
	C967.482666,1631.023804 965.206299,1583.280273 974.488770,1535.430908 
	C985.327698,1479.558105 1017.540771,1439.101685 1067.593994,1412.488159 
	C1099.609741,1395.465210 1133.800537,1384.991943 1169.213135,1377.964722 
	C1211.873291,1369.499268 1255.090454,1367.359009 1298.402588,1366.104980 
	C1322.050537,1365.420166 1345.695923,1364.646484 1369.341553,1363.881592 
	C1370.951050,1363.829468 1372.552002,1363.513306 1374.879272,1363.233032 
	C1375.405518,1343.845581 1374.182129,1325.164795 1365.384277,1306.917480 
M1250.450684,1509.358154 
	C1227.795166,1519.962891 1213.096558,1537.198730 1209.175659,1562.060303 
	C1207.487427,1572.765747 1207.271118,1584.129883 1208.839355,1594.835327 
	C1212.336426,1618.707642 1226.477661,1633.552246 1250.456299,1638.649780 
	C1268.056396,1642.391235 1285.597900,1642.101074 1302.901001,1637.579712 
	C1338.725708,1628.218384 1376.223877,1598.078003 1376.152710,1545.788696 
	C1376.131470,1530.131104 1376.205200,1514.473267 1376.144775,1498.815918 
	C1376.136475,1496.645142 1375.605225,1494.476318 1375.291260,1492.119751 
	C1354.007080,1493.066040 1333.375488,1493.738403 1312.777100,1494.967285 
	C1291.744263,1496.221802 1271.158203,1499.872803 1250.450684,1509.358154 
z"/>
<path fill="#010101" opacity="1.000000" stroke="none" 
	d="
M2411.065430,1175.118164 
	C2360.860596,1306.670166 2311.013428,1437.535034 2261.131104,1568.386475 
	C2233.524170,1640.805054 2205.858398,1713.201294 2178.217041,1785.606934 
	C2177.268555,1788.091675 2176.304688,1790.570435 2175.181396,1793.483643 
	C2098.362793,1793.483643 2021.485962,1793.483643 1944.023926,1793.483643 
	C1858.417725,1568.946411 1772.772095,1344.305542 1686.745972,1118.666992 
	C1768.223877,1118.666992 1848.603638,1118.666992 1929.717407,1118.666992 
	C1930.461670,1120.941406 1931.457275,1123.682495 1932.259888,1126.479004 
	C1969.234741,1255.326904 2006.262573,1384.159668 2043.082031,1513.052002 
	C2049.031738,1533.879639 2053.096924,1555.145020 2054.669678,1576.817017 
	C2054.862305,1579.473145 2055.110107,1582.130005 2055.491455,1584.763550 
	C2055.561768,1585.248169 2056.398682,1585.621826 2057.442871,1586.540161 
	C2058.229980,1585.152832 2059.540527,1583.917725 2059.547119,1582.675537 
	C2059.715088,1551.223755 2069.208740,1521.699097 2078.089111,1492.042480 
	C2114.633545,1370.004639 2151.169678,1247.964233 2187.716797,1125.927368 
	C2188.474854,1123.396606 2189.331299,1120.895508 2190.192139,1118.223633 
	C2270.792480,1118.223633 2351.065674,1118.223633 2432.606201,1118.223633 
	C2425.394287,1137.345459 2418.401611,1155.885498 2411.065430,1175.118164 
z"/>
<path fill="#34ADF8" opacity="1.000000" stroke="none" 
	d="
M3955.995361,1682.009766 
	C3950.023193,1692.736572 3944.856934,1704.020386 3937.907959,1714.071899 
	C3924.297119,1733.758911 3909.692627,1752.759277 3894.813965,1771.413574 
	C3894.085693,1721.906006 3894.043213,1673.028564 3893.998047,1624.151245 
	C3893.995605,1621.491455 3894.027100,1618.829834 3893.943848,1616.172119 
	C3893.817383,1612.145752 3891.530029,1610.203491 3887.741211,1609.142822 
	C3900.798828,1576.128418 3910.539062,1542.907959 3915.730469,1508.523682 
	C3921.317871,1471.519287 3921.443604,1434.419189 3916.479004,1397.233154 
	C3909.255859,1343.131714 3892.159912,1292.481812 3864.253906,1245.629761 
	C3854.924072,1229.965454 3844.149170,1215.161987 3834.863281,1199.935059 
	C3842.125244,1199.083862 3839.888428,1194.006592 3839.907715,1190.542725 
	C3840.069336,1161.286255 3839.839355,1132.027222 3840.091797,1102.771973 
	C3840.174316,1093.216797 3841.332764,1083.671021 3841.999023,1074.120850 
	C3856.092285,1087.696533 3870.791992,1100.704224 3884.153320,1114.965332 
	C3912.725098,1145.460938 3936.387695,1179.570923 3955.331787,1217.869019 
	C3954.553955,1222.774292 3954.038086,1226.391602 3954.035400,1230.009155 
	C3953.987061,1296.953735 3954.000000,1363.898315 3954.000000,1430.842896 
	C3954.000000,1510.776733 3953.972900,1590.710571 3954.084961,1670.644287 
	C3954.090088,1674.433716 3955.330322,1678.221313 3955.995361,1682.009766 
z"/>
<path fill="#0652B0" opacity="1.000000" stroke="none" 
	d="
M2601.391113,1722.236938 
	C2585.868408,1701.759399 2574.656738,1678.832397 2564.062256,1655.623169 
	C2540.655762,1604.347900 2526.460693,1550.623291 2521.558594,1494.406616 
	C2512.568848,1391.311890 2533.994629,1294.796143 2583.874512,1204.412354 
	C2589.587646,1194.060303 2596.295898,1184.257568 2603.510742,1174.590820 
	C2608.609375,1178.905396 2608.016846,1184.002930 2608.010010,1188.984375 
	C2607.984863,1207.635864 2608.000000,1226.287354 2608.000000,1244.938843 
	C2608.000000,1263.257202 2608.000000,1281.575562 2608.000000,1299.893921 
	C2608.000000,1318.545410 2608.000000,1337.196899 2608.000000,1355.848389 
	C2608.000000,1374.166748 2607.740723,1392.489746 2608.072510,1410.802124 
	C2608.407715,1429.302856 2607.683594,1447.785889 2607.794189,1466.288940 
	C2608.274658,1546.553955 2608.000000,1626.823486 2607.998535,1707.091309 
	C2607.998535,1709.755737 2607.945801,1712.420654 2607.979736,1715.084473 
	C2608.037354,1719.566772 2605.711426,1721.809448 2601.391113,1722.236938 
z"/>
<path fill="#0C5DB4" opacity="1.000000" stroke="none" 
	d="
M2601.553711,1722.923828 
	C2605.711426,1721.809448 2608.037354,1719.566772 2607.979736,1715.084473 
	C2607.945801,1712.420654 2607.998535,1709.755737 2607.998535,1707.091309 
	C2608.000000,1626.823486 2608.274658,1546.553955 2607.794189,1466.288940 
	C2607.683594,1447.785889 2608.407715,1429.302856 2608.072510,1410.802124 
	C2607.740723,1392.489746 2608.000000,1374.166748 2608.000000,1355.848389 
	C2608.000000,1337.196899 2608.000000,1318.545410 2608.000000,1299.893921 
	C2608.000000,1281.575562 2608.000000,1263.257202 2608.000000,1244.938843 
	C2608.000000,1226.287354 2607.984863,1207.635864 2608.010010,1188.984375 
	C2608.016846,1184.002930 2608.609375,1178.905396 2604.127686,1174.251831 
	C2609.417480,1165.085938 2614.614990,1156.307251 2620.809326,1148.299438 
	C2628.697998,1138.101196 2637.393066,1128.526611 2646.565918,1118.141113 
	C2647.686035,1117.362671 2647.916748,1117.075073 2648.083252,1116.736328 
	C2648.083252,1116.736328 2648.140625,1116.203491 2648.696045,1115.946045 
	C2649.620605,1115.380859 2649.897705,1115.005249 2650.082520,1114.561646 
	C2650.082520,1114.561646 2650.093994,1114.106934 2650.646973,1113.891113 
	C2651.605469,1113.344604 2651.896240,1112.932861 2652.072266,1112.440186 
	C2652.072266,1112.440186 2652.028564,1112.073242 2652.567627,1111.865479 
	C2653.548340,1111.313843 2653.856689,1110.875977 2654.031494,1110.344238 
	C2656.949219,1107.051636 2659.866699,1103.758911 2664.175781,1100.340332 
	C2671.344727,1102.075073 2669.946289,1106.974365 2669.958984,1111.065552 
	C2670.096436,1154.866089 2670.143799,1198.667114 2670.100586,1243.146606 
	C2659.860107,1262.410400 2648.202637,1280.222046 2641.132568,1300.355347 
	C2636.702393,1312.970093 2632.035156,1325.527710 2628.284424,1338.347900 
	C2624.401611,1351.620850 2620.609131,1365.036255 2618.404541,1378.652832 
	C2615.980469,1393.627441 2615.411133,1408.902344 2613.602051,1424.315796 
	C2613.392334,1425.696289 2613.614014,1426.807251 2613.913818,1428.857910 
	C2614.648926,1451.090332 2615.163574,1472.388794 2616.027832,1493.673218 
	C2616.404053,1502.943237 2616.483398,1512.411377 2618.497070,1521.385742 
	C2621.642334,1535.405273 2625.232178,1549.335815 2629.537354,1563.135742 
	C2641.020264,1599.945435 2656.234131,1634.912842 2677.259521,1667.228027 
	C2685.779541,1680.322754 2695.201660,1692.830811 2704.140381,1706.565430 
	C2704.044922,1725.479980 2704.012695,1743.435059 2704.002441,1761.390137 
	C2703.991211,1781.340454 2704.002686,1801.290894 2703.997803,1821.241211 
	C2703.996582,1825.531494 2704.724121,1830.133789 2699.458252,1832.260376 
	C2685.965820,1819.941895 2671.966309,1808.127808 2659.094727,1795.191650 
	C2637.437988,1773.426758 2618.425537,1749.409058 2601.553711,1722.923828 
z"/>
<path fill="#39B4FD" opacity="1.000000" stroke="none" 
	d="
M3956.530762,1681.583496 
	C3955.330322,1678.221313 3954.090088,1674.433716 3954.084961,1670.644287 
	C3953.972900,1590.710571 3954.000000,1510.776733 3954.000000,1430.842896 
	C3954.000000,1363.898315 3953.987061,1296.953735 3954.035400,1230.009155 
	C3954.038086,1226.391602 3954.553955,1222.774292 3955.431152,1218.572754 
	C3964.714600,1236.646240 3974.426270,1254.903564 3981.872070,1274.042358 
	C3998.863770,1317.717529 4008.847656,1363.087036 4012.436035,1409.918945 
	C4019.770752,1505.651489 4001.612549,1596.070190 3956.530762,1681.583496 
z"/>
<path fill="#2B9BEA" opacity="1.000000" stroke="none" 
	d="
M3841.750000,1073.628174 
	C3841.332764,1083.671021 3840.174316,1093.216797 3840.091797,1102.771973 
	C3839.839355,1132.027222 3840.069336,1161.286255 3839.907715,1190.542725 
	C3839.888428,1194.006592 3842.125244,1199.083862 3834.299316,1199.585938 
	C3792.212891,1148.506226 3742.632812,1109.064819 3683.432129,1081.859741 
	C3679.535400,1080.068970 3675.763184,1078.007202 3672.295410,1075.379883 
	C3676.248779,1071.390503 3676.036865,1067.081421 3676.028809,1062.720215 
	C3675.976318,1034.561523 3676.008789,1006.402771 3676.013184,978.244019 
	C3693.816650,985.353516 3711.971680,991.701416 3729.351562,999.728088 
	C3767.767822,1017.470032 3802.985352,1040.410278 3835.856934,1068.628662 
	C3836.735107,1069.711914 3837.048828,1069.938354 3837.411133,1070.097534 
	C3837.411133,1070.097534 3837.813477,1070.129883 3838.080811,1070.650879 
	C3838.693604,1071.579224 3839.118652,1071.870483 3839.623291,1072.045410 
	C3840.249023,1072.408813 3840.875000,1072.772095 3841.750000,1073.628174 
z"/>
<path fill="#248CDF" opacity="1.000000" stroke="none" 
	d="
M3675.638916,978.012085 
	C3676.008789,1006.402771 3675.976318,1034.561523 3676.028809,1062.720215 
	C3676.036865,1067.081421 3676.248779,1071.390503 3671.773438,1075.351318 
	C3670.582275,1075.846802 3670.276123,1075.679321 3669.648193,1075.123657 
	C3668.690186,1074.556030 3668.053955,1074.376709 3666.687988,1074.146973 
	C3660.981445,1072.329346 3655.995850,1070.586426 3651.029053,1068.790894 
	C3609.572266,1053.804565 3566.814697,1045.959961 3522.727539,1045.514160 
	C3511.796387,1045.403564 3500.862305,1045.566528 3490.588623,1045.093994 
	C3501.773193,1044.175537 3512.299072,1043.766724 3524.071533,1043.309692 
	C3524.071533,1012.369873 3524.071533,982.168030 3524.071533,951.966125 
	C3554.208252,950.716980 3583.827148,955.048035 3613.221924,960.879761 
	C3627.872803,963.786316 3642.246826,968.087585 3657.816895,972.526550 
	C3659.989746,973.485107 3661.091797,973.674988 3662.194092,973.864929 
	C3662.530762,973.855347 3662.867676,973.845703 3664.025879,974.525146 
	C3665.982910,975.421814 3667.118408,975.629333 3668.253662,975.836914 
	C3669.160156,975.949768 3670.066895,976.062622 3671.868652,976.805786 
	C3673.256836,977.764709 3673.796875,977.888306 3674.384033,977.806885 
	C3674.384033,977.806885 3675.264648,977.780151 3675.638916,978.012085 
z"/>
<path fill="#1C77BE" opacity="1.000000" stroke="none" 
	d="
M2750.338867,1030.057373 
	C2763.390869,1022.279236 2776.169434,1013.989197 2789.555176,1006.835388 
	C2813.264404,994.164185 2838.076416,983.933533 2863.712646,975.780518 
	C2870.449219,973.638000 2877.274414,971.774292 2885.635742,969.954834 
	C2891.862305,971.269836 2892.115723,974.892883 2891.990479,978.681213 
	C2891.031250,1007.638794 2894.210449,1036.695557 2889.263672,1065.916016 
	C2847.990234,1080.473877 2810.231934,1100.102295 2775.870117,1126.110840 
	C2768.491455,1131.695801 2761.243408,1137.453735 2753.944824,1142.249023 
	C2753.969482,1111.551636 2753.985840,1081.737183 2753.998779,1051.922607 
	C2754.001221,1046.291016 2754.270264,1040.636353 2753.814941,1035.041260 
	C2753.672852,1033.297241 2751.552979,1031.714233 2750.338867,1030.057373 
z"/>
<path fill="#2B9BEA" opacity="1.000000" stroke="none" 
	d="
M3820.125488,1842.317871 
	C3807.862549,1853.888794 3794.223633,1863.623901 3779.947021,1872.521118 
	C3752.458984,1889.652100 3723.737305,1904.306274 3692.713867,1914.930908 
	C3692.677246,1908.591675 3693.792236,1903.083984 3693.909668,1897.554932 
	C3694.189941,1884.358154 3694.000732,1871.151367 3694.000000,1857.948608 
	C3693.999512,1846.396240 3693.989014,1834.843750 3694.001709,1823.291382 
	C3694.005127,1819.937134 3694.302490,1816.449219 3690.120117,1815.269897 
	C3723.748047,1798.442139 3754.564941,1778.528687 3782.095459,1753.828613 
	C3794.400391,1742.789062 3805.873291,1730.822266 3817.813965,1720.164795 
	C3818.602783,1727.602417 3819.859375,1734.147095 3819.906494,1740.700684 
	C3820.149902,1774.571899 3820.083740,1808.445190 3820.125488,1842.317871 
z"/>
<path fill="#248CDF" opacity="1.000000" stroke="none" 
	d="
M3689.664795,1815.797363 
	C3694.302490,1816.449219 3694.005127,1819.937134 3694.001709,1823.291382 
	C3693.989014,1834.843750 3693.999512,1846.396240 3694.000000,1857.948608 
	C3694.000732,1871.151367 3694.189941,1884.358154 3693.909668,1897.554932 
	C3693.792236,1903.083984 3692.677246,1908.591675 3691.978516,1914.939575 
	C3669.963623,1925.413208 3646.875000,1931.480713 3623.573486,1936.774170 
	C3596.660645,1942.887817 3569.427734,1946.821533 3541.515137,1947.215698 
	C3544.440918,1946.108276 3547.667969,1945.662354 3551.283936,1945.162598 
	C3552.218750,1941.757202 3553.811279,1938.606079 3553.837891,1935.441772 
	C3554.050293,1910.138672 3553.943115,1884.833130 3554.003662,1859.528442 
	C3554.010986,1856.438843 3553.020996,1854.381714 3550.498779,1853.429199 
	C3582.658203,1850.073120 3613.525146,1844.097778 3643.396729,1833.759888 
	C3659.020264,1828.352905 3674.254639,1821.821167 3689.664795,1815.797363 
z"/>
<path fill="#1870BB" opacity="1.000000" stroke="none" 
	d="
M2699.771484,1832.871582 
	C2704.724121,1830.133789 2703.996582,1825.531494 2703.997803,1821.241211 
	C2704.002686,1801.290894 2703.991211,1781.340454 2704.002441,1761.390137 
	C2704.012695,1743.435059 2704.044922,1725.479980 2704.744141,1706.869873 
	C2727.384521,1732.567139 2751.773193,1756.411987 2779.713135,1776.372803 
	C2793.444824,1786.183105 2807.889648,1794.995605 2822.002930,1805.180542 
	C2821.996094,1833.747681 2822.002441,1861.393921 2821.993408,1889.040039 
	C2821.992676,1891.702637 2822.164551,1894.404663 2821.782227,1897.019165 
	C2821.137695,1901.428101 2818.918213,1904.426025 2813.870117,1904.059082 
	C2799.347168,1896.831665 2784.535156,1890.125244 2770.364990,1882.261719 
	C2745.339111,1868.373901 2721.980713,1851.948242 2699.771484,1832.871582 
z"/>
<path fill="#1A7AD1" opacity="1.000000" stroke="none" 
	d="
M3523.140137,951.792358 
	C3524.071533,982.168030 3524.071533,1012.369873 3524.071533,1043.309692 
	C3512.299072,1043.766724 3501.773193,1044.175537 3489.741211,1045.280396 
	C3470.499023,1048.402832 3452.621582,1050.093506 3435.067871,1053.468750 
	C3418.516846,1056.651001 3402.306885,1061.607178 3385.981934,1064.950195 
	C3386.667725,1061.213379 3387.866943,1058.312378 3387.884033,1055.404419 
	C3388.036865,1029.422363 3387.954590,1003.439087 3388.013672,977.456299 
	C3388.023438,973.156372 3386.454102,970.405823 3381.922363,969.904236 
	C3397.976562,966.032837 3413.903564,961.484863 3430.112305,958.435730 
	C3460.508545,952.717712 3491.283203,950.841309 3523.140137,951.792358 
z"/>
<path fill="#0E65C1" opacity="1.000000" stroke="none" 
	d="
M3311.427246,1904.281128 
	C3301.602051,1899.887817 3291.699463,1895.656494 3281.983154,1891.034424 
	C3276.958984,1888.644409 3272.264404,1885.561157 3266.395508,1881.912476 
	C3258.367188,1876.725220 3251.250244,1872.590210 3244.385254,1868.072388 
	C3228.746826,1857.781616 3213.005127,1847.603149 3200.340820,1833.906250 
	C3206.242432,1830.481689 3206.041992,1825.498291 3206.040283,1820.385498 
	C3206.029297,1784.123291 3206.128662,1747.861084 3206.801514,1711.902100 
	C3225.337402,1732.794312 3244.604736,1751.977295 3266.769531,1768.977051 
	C3274.682861,1775.250244 3282.006104,1781.401855 3289.915039,1786.675537 
	C3298.310547,1792.273804 3307.261475,1797.038696 3315.977295,1803.094482 
	C3315.989746,1832.962036 3315.984863,1861.902710 3316.009033,1890.843506 
	C3316.013428,1895.865356 3316.309570,1900.944702 3311.427246,1904.281128 
z"/>
<path fill="#2A8DC6" opacity="1.000000" stroke="none" 
	d="
M2889.909912,1065.572754 
	C2894.210449,1036.695557 2891.031250,1007.638794 2891.990479,978.681213 
	C2892.115723,974.892883 2891.862305,971.269836 2886.410156,969.936279 
	C2901.970947,965.861206 2918.308594,961.863586 2934.712402,958.160217 
	C2939.858643,956.998413 2945.183350,956.628601 2952.057129,955.984558 
	C2957.076172,955.525391 2960.464355,954.977905 2963.852539,954.430542 
	C2964.854248,954.262207 2965.855957,954.093872 2968.450195,954.023560 
	C2975.307617,953.586121 2980.572998,953.050720 2985.838135,952.515259 
	C2990.084473,952.307068 2994.330566,952.098999 3000.374268,952.019653 
	C3009.038818,952.148438 3015.905762,952.148438 3022.468994,952.148438 
	C3024.845947,963.549377 3024.467773,1035.977783 3021.999268,1043.906494 
	C3018.012451,1043.906494 3013.733887,1043.706421 3009.482422,1043.961182 
	C3004.947754,1044.232910 3000.438965,1044.934448 2995.050537,1045.643799 
	C2979.044678,1047.646484 2963.732178,1048.559814 2948.812744,1051.481567 
	C2929.017822,1055.357788 2909.529785,1060.802124 2889.909912,1065.572754 
z"/>
<path fill="#1571CB" opacity="1.000000" stroke="none" 
	d="
M3311.904297,1904.822998 
	C3316.309570,1900.944702 3316.013428,1895.865356 3316.009033,1890.843506 
	C3315.984863,1861.902710 3315.989746,1832.962036 3316.645264,1803.288330 
	C3329.271240,1808.400635 3341.236816,1814.245972 3353.765869,1820.573242 
	C3356.769287,1822.104492 3359.148438,1823.333862 3361.657959,1824.174316 
	C3381.784180,1830.913208 3401.935303,1837.578613 3422.538574,1844.759888 
	C3424.768311,1845.445679 3426.538086,1845.638184 3428.943359,1845.764893 
	C3430.389648,1845.940186 3431.200195,1846.181396 3432.390381,1847.141357 
	C3433.179932,1851.109253 3433.887451,1854.353394 3433.943604,1857.608765 
	C3434.104248,1866.912842 3434.000244,1876.221436 3434.000000,1885.528320 
	C3433.999756,1899.821045 3434.036621,1914.113770 3433.977783,1928.406250 
	C3433.957275,1933.419189 3434.188965,1938.696777 3427.570312,1940.174805 
	C3426.126221,1940.103638 3424.682373,1940.032349 3422.115234,1939.274170 
	C3419.790527,1938.468262 3418.588867,1938.349121 3417.387207,1938.229980 
	C3404.472900,1935.371338 3391.227783,1933.523804 3378.716797,1929.432007 
	C3356.371582,1922.123779 3334.468994,1913.461304 3311.904297,1904.822998 
z"/>
<path fill="#126CC6" opacity="1.000000" stroke="none" 
	d="
M3381.390381,969.869995 
	C3386.454102,970.405823 3388.023438,973.156372 3388.013672,977.456299 
	C3387.954590,1003.439087 3388.036865,1029.422363 3387.884033,1055.404419 
	C3387.866943,1058.312378 3386.667725,1061.213379 3385.341797,1065.338989 
	C3374.587891,1070.459106 3364.508789,1074.357910 3353.710449,1078.347900 
	C3331.552979,1089.062622 3310.163818,1099.758911 3290.536621,1113.616333 
	C3285.951660,1116.853394 3281.004883,1119.577637 3276.158691,1121.568604 
	C3276.062012,1107.328613 3276.014648,1094.057495 3276.003906,1080.786499 
	C3275.988281,1061.874756 3276.001709,1042.962891 3275.997314,1024.051147 
	C3275.996582,1020.417419 3276.589355,1016.444031 3271.391113,1015.655823 
	C3295.591309,1000.566589 3321.586426,989.379456 3348.510986,980.224060 
	C3356.988770,977.341125 3365.498291,974.552002 3375.373047,971.802368 
	C3377.803223,971.360046 3378.853271,970.835327 3379.903564,970.310669 
	C3380.221924,970.152344 3380.540283,969.994019 3381.390381,969.869995 
z"/>
<path fill="#36A1CE" opacity="1.000000" stroke="none" 
	d="
M2995.918701,1045.448242 
	C3000.438965,1044.934448 3004.947754,1044.232910 3009.482422,1043.961182 
	C3013.733887,1043.706421 3018.012451,1043.906494 3021.999268,1043.906494 
	C3024.467773,1035.977783 3024.845947,963.549377 3022.468994,952.148438 
	C3015.905762,952.148438 3009.038818,952.148438 3001.283203,952.123413 
	C3006.995361,951.757263 3013.597900,951.089844 3020.196289,951.128479 
	C3060.258789,951.362976 3099.796631,955.913452 3139.733398,967.010803 
	C3141.224854,971.276184 3141.906982,974.533020 3141.946777,977.797729 
	C3142.084961,989.120911 3142.000244,1000.446899 3142.000000,1011.771790 
	C3141.999512,1024.095947 3142.204590,1036.425293 3141.897949,1048.741821 
	C3141.772705,1053.768311 3142.525635,1059.673706 3135.157471,1062.012329 
	C3098.541016,1051.720337 3062.086670,1045.584839 3024.721924,1045.500244 
	C3015.120850,1045.478516 3005.519775,1045.465210 2995.918701,1045.448242 
z"/>
<path fill="#1A7AD1" opacity="1.000000" stroke="none" 
	d="
M3428.235352,1940.631348 
	C3434.188965,1938.696777 3433.957275,1933.419189 3433.977783,1928.406250 
	C3434.036621,1914.113770 3433.999756,1899.821045 3434.000000,1885.528320 
	C3434.000244,1876.221436 3434.104248,1866.912842 3433.943604,1857.608765 
	C3433.887451,1854.353394 3433.179932,1851.109253 3433.191895,1847.062988 
	C3452.452637,1848.935913 3471.291504,1851.605835 3490.740723,1854.818359 
	C3507.059814,1855.553101 3522.768555,1855.780884 3538.478271,1855.863281 
	C3539.615479,1855.869263 3540.758789,1854.817139 3542.670410,1854.059814 
	C3545.559814,1853.848877 3547.677490,1853.835083 3549.795410,1853.821167 
	C3553.020996,1854.381714 3554.010986,1856.438843 3554.003662,1859.528442 
	C3553.943115,1884.833130 3554.050293,1910.138672 3553.837891,1935.441772 
	C3553.811279,1938.606079 3552.218750,1941.757202 3551.283936,1945.162598 
	C3547.667969,1945.662354 3544.440918,1946.108276 3540.629883,1947.041016 
	C3539.149414,1947.652100 3538.252686,1947.776611 3536.485596,1947.459961 
	C3535.065918,1947.236938 3534.516602,1947.454956 3533.967041,1947.672852 
	C3498.690918,1949.529663 3463.662109,1947.435669 3428.235352,1940.631348 
z"/>
<path fill="#0E65C1" opacity="1.000000" stroke="none" 
	d="
M3270.694336,1015.777588 
	C3276.589355,1016.444031 3275.996582,1020.417419 3275.997314,1024.051147 
	C3276.001709,1042.962891 3275.988281,1061.874756 3276.003906,1080.786499 
	C3276.014648,1094.057495 3276.062012,1107.328613 3275.807373,1122.084595 
	C3272.271729,1126.239990 3269.021729,1128.910278 3265.213867,1131.960205 
	C3242.706543,1149.811035 3222.639404,1169.221191 3204.733398,1190.824463 
	C3197.747070,1199.253540 3191.027100,1207.903564 3184.125488,1215.566162 
	C3184.709961,1209.458984 3185.891113,1204.241089 3185.914062,1199.018188 
	C3186.076416,1162.194702 3186.055176,1125.369873 3185.913574,1088.546265 
	C3185.899902,1085.019409 3184.660645,1081.497437 3184.279297,1077.366699 
	C3210.096924,1053.959229 3237.692139,1034.038940 3267.530029,1017.245056 
	C3268.352539,1016.796509 3269.175049,1016.347961 3270.694336,1015.777588 
z"/>
<path fill="#1265B7" opacity="1.000000" stroke="none" 
	d="
M2749.653564,1030.226318 
	C2751.552979,1031.714233 2753.672852,1033.297241 2753.814941,1035.041260 
	C2754.270264,1040.636353 2754.001221,1046.291016 2753.998779,1051.922607 
	C2753.985840,1081.737183 2753.969482,1111.551636 2753.517578,1142.807861 
	C2747.261963,1149.473022 2741.443115,1154.696533 2735.241211,1160.099731 
	C2734.381348,1160.622925 2734.062012,1161.077148 2733.908691,1161.780762 
	C2733.917480,1161.919556 2733.639893,1161.901001 2733.258057,1162.081055 
	C2732.398438,1162.602905 2732.079346,1163.056274 2731.605713,1164.221680 
	C2710.573486,1185.823364 2692.263916,1208.745117 2676.382812,1233.611084 
	C2674.447754,1236.640503 2672.277100,1239.519287 2670.215820,1242.467896 
	C2670.143799,1198.667114 2670.096436,1154.866089 2669.958984,1111.065552 
	C2669.946289,1106.974365 2671.344727,1102.075073 2664.785400,1100.087158 
	C2676.037354,1088.677368 2687.477539,1076.662231 2700.257812,1066.299072 
	C2715.908203,1053.608276 2732.680908,1042.300903 2749.653564,1030.226318 
z"/>
<path fill="#32A8F4" opacity="1.000000" stroke="none" 
	d="
M3820.684082,1842.103271 
	C3820.083740,1808.445190 3820.149902,1774.571899 3819.906494,1740.700684 
	C3819.859375,1734.147095 3818.602783,1727.602417 3818.027832,1719.560181 
	C3835.889160,1697.846313 3851.897461,1676.334473 3865.163086,1652.931396 
	C3873.140625,1638.857178 3880.188232,1624.255981 3887.653809,1609.891724 
	C3891.530029,1610.203491 3893.817383,1612.145752 3893.943848,1616.172119 
	C3894.027100,1618.829834 3893.995605,1621.491455 3893.998047,1624.151245 
	C3894.043213,1673.028564 3894.085693,1721.906006 3894.227539,1771.779053 
	C3885.309814,1782.890137 3876.760498,1793.477173 3867.154785,1802.998291 
	C3855.866699,1814.186890 3843.753174,1824.555420 3831.790283,1835.042969 
	C3828.671387,1837.777344 3824.779785,1839.630737 3820.684082,1842.103271 
z"/>
<path fill="#2280C2" opacity="1.000000" stroke="none" 
	d="
M2814.332031,1904.589355 
	C2818.918213,1904.426025 2821.137695,1901.428101 2821.782227,1897.019165 
	C2822.164551,1894.404663 2821.992676,1891.702637 2821.993408,1889.040039 
	C2822.002441,1861.393921 2821.996094,1833.747681 2822.689453,1805.276367 
	C2837.759277,1811.303589 2851.844238,1818.873901 2866.580811,1824.830811 
	C2885.954346,1832.662109 2905.404541,1840.561890 2926.547852,1844.894653 
	C2928.177979,1845.459961 2929.379639,1845.584351 2930.968750,1845.637939 
	C2931.355713,1845.567139 2932.032715,1845.968506 2932.020996,1846.907715 
	C2932.005127,1873.361816 2932.076172,1898.877075 2931.961426,1924.391602 
	C2931.913574,1935.093018 2929.880127,1937.159912 2919.677002,1938.130127 
	C2918.823730,1938.115112 2917.970703,1938.100220 2916.059814,1937.366089 
	C2913.275146,1936.456665 2911.547852,1936.266357 2909.820801,1936.075928 
	C2905.292236,1935.376709 2900.626221,1935.155640 2896.257324,1933.900635 
	C2868.533447,1925.937866 2840.996826,1917.403564 2814.332031,1904.589355 
z"/>
<path fill="#2A8DC6" opacity="1.000000" stroke="none" 
	d="
M2920.322266,1938.577393 
	C2929.880127,1937.159912 2931.913574,1935.093018 2931.961426,1924.391602 
	C2932.076172,1898.877075 2932.005127,1873.361816 2932.851074,1846.842407 
	C2953.138184,1848.635254 2972.582764,1851.432495 2992.650391,1854.776123 
	C3009.739502,1855.715454 3026.205566,1856.108398 3043.764648,1856.527344 
	C3044.548828,1861.731567 3045.843018,1866.509521 3045.892090,1871.300171 
	C3046.115723,1893.178833 3046.077148,1915.061890 3045.901611,1936.941406 
	C3045.873535,1940.454590 3044.673340,1943.958374 3044.015137,1947.466431 
	C3002.645996,1949.800293 2961.593018,1947.525513 2920.322266,1938.577393 
z"/>
<path fill="#36A1CE" opacity="1.000000" stroke="none" 
	d="
M3044.892578,1947.649902 
	C3044.673340,1943.958374 3045.873535,1940.454590 3045.901611,1936.941406 
	C3046.077148,1915.061890 3046.115723,1893.178833 3045.892090,1871.300171 
	C3045.843018,1866.509521 3044.548828,1861.731567 3043.764648,1856.527344 
	C3026.205566,1856.108398 3009.739502,1855.715454 2993.573730,1854.626099 
	C3030.170410,1855.369507 3066.277100,1853.878906 3101.835938,1845.872681 
	C3117.345947,1842.380615 3132.650635,1837.976929 3148.627930,1834.588989 
	C3149.469727,1836.805298 3149.958496,1838.419189 3149.961426,1840.034058 
	C3150.010254,1866.209961 3150.178223,1892.388306 3149.819824,1918.559448 
	C3149.760010,1922.921265 3147.345947,1927.250854 3146.019775,1931.595459 
	C3126.846436,1935.668457 3107.775635,1940.349487 3088.465332,1943.611816 
	C3074.397217,1945.988647 3060.012939,1946.493774 3044.892578,1947.649902 
z"/>
<path fill="#3FB0D4" opacity="1.000000" stroke="none" 
	d="
M3266.870605,1016.952637 
	C3237.692139,1034.038940 3210.096924,1053.959229 3183.702393,1077.460449 
	C3182.070068,1078.189209 3181.303955,1078.217651 3179.750488,1078.222168 
	C3164.624023,1072.804688 3150.284424,1067.410889 3135.945068,1062.017090 
	C3142.525635,1059.673706 3141.772705,1053.768311 3141.897949,1048.741821 
	C3142.204590,1036.425293 3141.999512,1024.095947 3142.000000,1011.771790 
	C3142.000244,1000.446899 3142.084961,989.120911 3141.946777,977.797729 
	C3141.906982,974.533020 3141.224854,971.276184 3140.481689,967.309570 
	C3167.079102,972.537659 3192.935547,981.801453 3218.022949,993.114563 
	C3234.312500,1000.460327 3250.163574,1008.777954 3266.870605,1016.952637 
z"/>
<path fill="#3FB0D4" opacity="1.000000" stroke="none" 
	d="
M3146.782715,1931.636963 
	C3147.345947,1927.250854 3149.760010,1922.921265 3149.819824,1918.559448 
	C3150.178223,1892.388306 3150.010254,1866.209961 3149.961426,1840.034058 
	C3149.958496,1838.419189 3149.469727,1836.805298 3149.134766,1834.096436 
	C3159.460449,1829.291382 3169.858398,1825.580688 3180.957031,1821.757568 
	C3184.559570,1823.582764 3187.500977,1825.464233 3190.352783,1827.473511 
	C3193.491455,1829.684937 3196.547852,1832.013794 3199.639893,1834.291626 
	C3213.005127,1847.603149 3228.746826,1857.781616 3244.385254,1868.072388 
	C3251.250244,1872.590210 3258.367188,1876.725220 3265.796143,1881.587769 
	C3229.077881,1904.438232 3189.228516,1920.255249 3146.782715,1931.636963 
z"/>
<path fill="#36A1CE" opacity="1.000000" stroke="none" 
	d="
M2985.004395,952.347534 
	C2980.572998,953.050720 2975.307617,953.586121 2969.210449,954.099609 
	C2973.642334,953.445129 2978.906494,952.812439 2985.004395,952.347534 
z"/>
<path fill="#36A1CE" opacity="1.000000" stroke="none" 
	d="
M2963.095703,954.291138 
	C2960.464355,954.977905 2957.076172,955.525391 2952.916016,956.026550 
	C2955.542236,955.370789 2958.940430,954.761292 2963.095703,954.291138 
z"/>
<path fill="#2A8DC6" opacity="1.000000" stroke="none" 
	d="
M2910.333008,1936.481812 
	C2911.547852,1936.266357 2913.275146,1936.456665 2915.465820,1937.112549 
	C2914.234619,1937.348145 2912.540039,1937.117920 2910.333008,1936.481812 
z"/>
<path fill="#1A7AD1" opacity="1.000000" stroke="none" 
	d="
M3417.842285,1938.647217 
	C3418.588867,1938.349121 3419.790527,1938.468262 3421.437500,1939.005737 
	C3420.687744,1939.304199 3419.492432,1939.184448 3417.842285,1938.647217 
z"/>
<path fill="#2B9BEA" opacity="1.000000" stroke="none" 
	d="
M3667.854004,975.410400 
	C3667.118408,975.629333 3665.982910,975.421814 3664.474609,974.758057 
	C3665.218994,974.529175 3666.336914,974.756531 3667.854004,975.410400 
z"/>
<path fill="#2B9BEA" opacity="1.000000" stroke="none" 
	d="
M3661.791504,973.463501 
	C3661.091797,973.674988 3659.989746,973.485107 3658.511719,972.867310 
	C3659.220215,972.646973 3660.304443,972.854492 3661.791504,973.463501 
z"/>
<path fill="#1A7AD1" opacity="1.000000" stroke="none" 
	d="
M3379.298340,970.232727 
	C3378.853271,970.835327 3377.803223,971.360046 3376.136475,971.807129 
	C3376.577881,971.204651 3377.635498,970.679749 3379.298340,970.232727 
z"/>
<path fill="#248CDF" opacity="1.000000" stroke="none" 
	d="
M3534.484863,1947.796875 
	C3534.516602,1947.454956 3535.065918,1947.236938 3535.816895,1947.310791 
	C3535.680176,1947.708862 3535.341309,1947.814819 3534.484863,1947.796875 
z"/>
<path fill="#1265B7" opacity="1.000000" stroke="none" 
	d="
M2647.771484,1116.773193 
	C2647.916748,1117.075073 2647.686035,1117.362671 2647.149414,1117.732910 
	C2646.864258,1117.395752 2647.048340,1117.043457 2647.771484,1116.773193 
z"/>
<path fill="#1265B7" opacity="1.000000" stroke="none" 
	d="
M2649.701172,1114.646729 
	C2649.897705,1115.005249 2649.620605,1115.380859 2648.955078,1115.877930 
	C2648.600586,1115.484253 2648.820801,1115.039062 2649.701172,1114.646729 
z"/>
<path fill="#1265B7" opacity="1.000000" stroke="none" 
	d="
M2651.674316,1112.549927 
	C2651.896240,1112.932861 2651.605469,1113.344604 2650.873779,1113.872314 
	C2650.522705,1113.460571 2650.765625,1112.990845 2651.674316,1112.549927 
z"/>
<path fill="#1265B7" opacity="1.000000" stroke="none" 
	d="
M2653.601562,1110.446533 
	C2653.856689,1110.875977 2653.548340,1111.313843 2652.751953,1111.854614 
	C2652.350586,1111.393555 2652.608643,1110.892578 2653.601562,1110.446533 
z"/>
<path fill="#34ADF8" opacity="1.000000" stroke="none" 
	d="
M3839.495605,1071.644897 
	C3839.118652,1071.870483 3838.693604,1071.579224 3838.136230,1070.844971 
	C3838.543701,1070.485718 3839.024902,1070.727783 3839.495605,1071.644897 
z"/>
<path fill="#34ADF8" opacity="1.000000" stroke="none" 
	d="
M3837.350098,1069.773438 
	C3837.048828,1069.938354 3836.735107,1069.711914 3836.317139,1069.175049 
	C3836.659912,1068.842773 3837.034668,1069.015381 3837.350098,1069.773438 
z"/>
<path fill="#2B9BEA" opacity="1.000000" stroke="none" 
	d="
M3674.118164,977.456787 
	C3673.796875,977.888306 3673.256836,977.764709 3672.478516,977.127502 
	C3672.801270,976.596558 3673.354248,976.692444 3674.118164,977.456787 
z"/>
<path fill="#FDFDFD" opacity="1.000000" stroke="none" 
	d="
M467.901672,1299.564087 
	C454.335510,1299.565186 441.753448,1299.565186 428.684143,1299.565186 
	C428.684143,1232.763428 428.684143,1166.949463 428.684143,1100.085693 
	C431.502045,1100.085693 434.062500,1100.027954 436.619720,1100.094727 
	C459.255127,1100.686157 481.945526,1100.546143 504.502594,1102.209595 
	C516.628479,1103.104004 528.868652,1106.067017 540.460205,1109.901611 
	C573.485962,1120.826782 592.034607,1144.132324 595.376526,1178.819336 
	C597.346436,1199.265747 595.180054,1219.485840 587.782898,1238.771729 
	C577.838867,1264.697632 558.765259,1281.218506 532.860474,1290.306396 
	C512.138977,1297.575928 490.588013,1299.085449 467.901672,1299.564087 
z"/>
<path fill="#FDFDFD" opacity="1.000000" stroke="none" 
	d="
M1251.095215,1508.960938 
	C1271.158203,1499.872803 1291.744263,1496.221802 1312.777100,1494.967285 
	C1333.375488,1493.738403 1354.007080,1493.066040 1375.291260,1492.119751 
	C1375.605225,1494.476318 1376.136475,1496.645142 1376.144775,1498.815918 
	C1376.205200,1514.473267 1376.131470,1530.131104 1376.152710,1545.788696 
	C1376.223877,1598.078003 1338.725708,1628.218384 1302.901001,1637.579712 
	C1285.597900,1642.101074 1268.056396,1642.391235 1250.456299,1638.649780 
	C1226.477661,1633.552246 1212.336426,1618.707642 1208.839355,1594.835327 
	C1207.271118,1584.129883 1207.487427,1572.765747 1209.175659,1562.060303 
	C1213.096558,1537.198730 1227.795166,1519.962891 1251.095215,1508.960938 
z"/>
<path fill="#FEFFFF" opacity="1.000000" stroke="none" 
	d="
M3887.741211,1609.142822 
	C3880.188232,1624.255981 3873.140625,1638.857178 3865.163086,1652.931396 
	C3851.897461,1676.334473 3835.889160,1697.846313 3817.937500,1718.671387 
	C3805.873291,1730.822266 3794.400391,1742.789062 3782.095459,1753.828613 
	C3754.564941,1778.528687 3723.748047,1798.442139 3690.120117,1815.270020 
	C3674.254639,1821.821167 3659.020264,1828.352905 3643.396729,1833.759888 
	C3613.525146,1844.097778 3582.658203,1850.073120 3550.498779,1853.429199 
	C3547.677490,1853.835083 3545.559814,1853.848877 3541.755127,1853.900391 
	C3523.422363,1854.050781 3506.776367,1854.163330 3490.130371,1854.275757 
	C3471.291504,1851.605835 3452.452637,1848.935913 3432.812500,1846.344238 
	C3431.200195,1846.181396 3430.389648,1845.940186 3428.436035,1845.333496 
	C3425.554932,1844.734375 3423.816650,1844.500488 3422.078613,1844.266602 
	C3401.935303,1837.578613 3381.784180,1830.913208 3361.657959,1824.174316 
	C3359.148438,1823.333862 3356.769287,1822.104492 3354.149658,1819.979004 
	C3356.559814,1816.353638 3359.250732,1813.898560 3361.723145,1811.240234 
	C3373.849121,1798.202026 3385.917480,1785.109985 3398.606445,1771.737183 
	C3401.543945,1768.627075 3403.919434,1765.847168 3406.213379,1763.002197 
	C3469.831787,1684.107544 3506.415283,1594.002197 3515.196289,1493.239502 
	C3519.008789,1449.486572 3517.566895,1405.463379 3509.490967,1361.956055 
	C3495.796631,1288.182739 3467.386963,1220.653931 3423.599121,1159.715576 
	C3415.680664,1148.695679 3406.582520,1138.523438 3397.771729,1127.341553 
	C3384.732910,1113.230957 3371.919434,1099.768433 3359.201416,1086.216553 
	C3357.077393,1083.953125 3353.296143,1082.529785 3354.429688,1078.256592 
	C3364.508789,1074.357910 3374.587891,1070.459106 3385.307129,1066.171631 
	C3402.306885,1061.607178 3418.516846,1056.651001 3435.067871,1053.468750 
	C3452.621582,1050.093506 3470.499023,1048.402832 3489.082520,1045.790283 
	C3500.862305,1045.566528 3511.796387,1045.403564 3522.727539,1045.514160 
	C3566.814697,1045.959961 3609.572266,1053.804565 3651.029053,1068.790894 
	C3655.995850,1070.586426 3660.981445,1072.329346 3666.993652,1074.565552 
	C3668.676025,1075.193481 3669.322998,1075.352661 3669.969971,1075.511841 
	C3670.276123,1075.679321 3670.582275,1075.846802 3671.410645,1076.042969 
	C3675.763184,1078.007202 3679.535400,1080.068970 3683.432129,1081.859741 
	C3742.632812,1109.064819 3792.212891,1148.506226 3833.470703,1199.615967 
	C3844.149170,1215.161987 3854.924072,1229.965454 3864.253906,1245.629761 
	C3892.159912,1292.481812 3909.255859,1343.131714 3916.479004,1397.233154 
	C3921.443604,1434.419189 3921.317871,1471.519287 3915.730469,1508.523682 
	C3910.539062,1542.907959 3900.798828,1576.128418 3887.741211,1609.142822 
z"/>
<path fill="#FEFFFF" opacity="1.000000" stroke="none" 
	d="
M3180.256348,1821.870117 
	C3169.858398,1825.580688 3159.460449,1829.291382 3148.555420,1833.494507 
	C3132.650635,1837.976929 3117.345947,1842.380615 3101.835938,1845.872681 
	C3066.277100,1853.878906 3030.170410,1855.369507 2992.950928,1854.079590 
	C2972.582764,1851.432495 2953.138184,1848.635254 2932.863037,1845.903320 
	C2932.032715,1845.968506 2931.355713,1845.567139 2930.527832,1845.208740 
	C2928.506592,1844.718262 2927.312988,1844.586060 2926.119385,1844.453857 
	C2905.404541,1840.561890 2885.954346,1832.662109 2866.580811,1824.830811 
	C2851.844238,1818.873901 2837.759277,1811.303589 2822.698242,1804.355225 
	C2807.889648,1794.995605 2793.444824,1786.183105 2779.713135,1776.372803 
	C2751.773193,1756.411987 2727.384521,1732.567139 2704.816895,1705.910400 
	C2695.201660,1692.830811 2685.779541,1680.322754 2677.259521,1667.228027 
	C2656.234131,1634.912842 2641.020264,1599.945435 2629.537354,1563.135742 
	C2625.232178,1549.335815 2621.642334,1535.405273 2618.497070,1521.385742 
	C2616.483398,1512.411377 2616.404053,1502.943237 2616.027832,1493.673218 
	C2615.163574,1472.388794 2614.648926,1451.090332 2614.188477,1428.537109 
	C2614.267578,1426.200073 2614.150391,1425.123169 2614.033447,1424.046387 
	C2615.411133,1408.902344 2615.980469,1393.627441 2618.404541,1378.652832 
	C2620.609131,1365.036255 2624.401611,1351.620850 2628.284424,1338.347900 
	C2632.035156,1325.527710 2636.702393,1312.970093 2641.132568,1300.355347 
	C2648.202637,1280.222046 2659.860107,1262.410400 2670.100586,1243.146606 
	C2672.277100,1239.519287 2674.447754,1236.640503 2676.382812,1233.611084 
	C2692.263916,1208.745117 2710.573486,1185.823364 2732.042969,1164.116699 
	C2733.357422,1163.066040 2733.639404,1162.562500 2733.639893,1161.901001 
	C2733.639893,1161.901001 2733.917480,1161.919556 2734.345947,1161.675293 
	C2735.341064,1161.087036 2735.624268,1160.583374 2735.624023,1159.920166 
	C2741.443115,1154.696533 2747.261963,1149.473022 2753.508301,1143.690674 
	C2761.243408,1137.453735 2768.491455,1131.695801 2775.870117,1126.110840 
	C2810.231934,1100.102295 2847.990234,1080.473877 2889.263672,1065.916016 
	C2909.529785,1060.802124 2929.017822,1055.357788 2948.812744,1051.481567 
	C2963.732178,1048.559814 2979.044678,1047.646484 2995.050537,1045.643677 
	C3005.519775,1045.465210 3015.120850,1045.478516 3024.721924,1045.500244 
	C3062.086670,1045.584839 3098.541016,1051.720337 3135.157471,1062.012329 
	C3150.284424,1067.410889 3164.624023,1072.804688 3179.626221,1078.899658 
	C3179.544189,1080.670776 3178.926270,1081.862183 3178.035400,1082.792358 
	C3162.641357,1098.865112 3146.608643,1114.378052 3131.997559,1131.131348 
	C3121.603271,1143.049805 3113.113770,1156.629517 3103.192383,1169.841675 
	C3039.732178,1263.989136 3011.104004,1367.138672 3017.542480,1479.978638 
	C3021.444092,1548.355591 3038.833984,1613.119507 3070.069092,1673.963379 
	C3079.896484,1693.106445 3092.125732,1711.016357 3103.417480,1730.118408 
	C3123.891113,1761.043701 3147.771240,1788.280029 3174.175781,1813.383423 
	C3176.652832,1815.738647 3178.250488,1819.019165 3180.256348,1821.870117 
z"/>
<path fill="#2A8DC6" opacity="1.000000" stroke="none" 
	d="
M2613.602051,1424.315796 
	C2614.150391,1425.123169 2614.267578,1426.200073 2614.110107,1427.597656 
	C2613.614014,1426.807251 2613.392334,1425.696289 2613.602051,1424.315796 
z"/>
<path fill="#2B9BEA" opacity="1.000000" stroke="none" 
	d="
M3669.648193,1075.123657 
	C3669.322998,1075.352661 3668.676025,1075.193481 3667.723389,1074.615967 
	C3668.053955,1074.376709 3668.690186,1074.556030 3669.648193,1075.123657 
z"/>
<path fill="#FEFFFF" opacity="1.000000" stroke="none" 
	d="
M3184.185791,1216.453003 
	C3191.027100,1207.903564 3197.747070,1199.253540 3204.733398,1190.824463 
	C3222.639404,1169.221191 3242.706543,1149.811035 3265.918457,1132.117188 
	C3278.558350,1141.532471 3290.524658,1150.563843 3301.193604,1160.930420 
	C3325.571777,1184.616699 3347.097412,1210.760498 3363.896729,1240.429199 
	C3373.840820,1257.990601 3382.813477,1276.101929 3392.245117,1294.699463 
	C3408.352051,1333.768433 3418.420898,1373.736694 3421.474609,1415.085938 
	C3424.796143,1460.062134 3422.739014,1504.925781 3410.579834,1548.729614 
	C3405.608887,1566.637207 3399.542969,1584.240845 3393.480713,1602.473267 
	C3387.962646,1613.763672 3383.399414,1624.807861 3377.829834,1635.318481 
	C3360.053467,1668.865234 3338.848877,1700.068237 3312.543945,1727.589722 
	C3298.315430,1742.476929 3283.613037,1756.881714 3266.437256,1768.469238 
	C3244.604736,1751.977295 3225.337402,1732.794312 3206.582520,1711.273193 
	C3167.794678,1664.794189 3140.101807,1613.717773 3125.066650,1556.316406 
	C3119.200684,1533.921387 3116.144775,1510.790161 3111.939453,1487.198486 
	C3111.825439,1484.276611 3111.581299,1482.150513 3111.502441,1479.166016 
	C3111.096191,1470.871338 3110.525146,1463.434814 3110.150146,1455.157715 
	C3110.213135,1450.878662 3110.080078,1447.440552 3110.187988,1443.181641 
	C3110.731934,1434.897705 3111.034912,1427.434448 3111.550293,1419.245850 
	C3111.722168,1417.017700 3111.681396,1415.515015 3111.907715,1413.207764 
	C3116.502197,1373.627441 3124.948730,1335.883301 3138.795166,1299.283081 
	C3146.678467,1278.445312 3156.899414,1258.914673 3168.268066,1239.914429 
	C3173.112549,1231.817871 3178.852783,1224.257202 3184.185791,1216.453003 
z"/>
<path fill="#0858B7" opacity="1.000000" stroke="none" 
	d="
M3111.809082,1487.994263 
	C3116.144775,1510.790161 3119.200684,1533.921387 3125.066650,1556.316406 
	C3140.101807,1613.717773 3167.794678,1664.794189 3205.974121,1710.969971 
	C3206.128662,1747.861084 3206.029297,1784.123291 3206.040283,1820.385498 
	C3206.041992,1825.498291 3206.242432,1830.481689 3200.340820,1833.906250 
	C3196.547852,1832.013794 3193.491455,1829.684937 3190.352783,1827.473511 
	C3187.500977,1825.464233 3184.559570,1823.582764 3180.957031,1821.757568 
	C3178.250488,1819.019165 3176.652832,1815.738647 3174.175781,1813.383423 
	C3147.771240,1788.280029 3123.891113,1761.043701 3103.808594,1729.303223 
	C3108.268311,1723.670776 3108.037354,1718.352783 3108.033447,1712.969604 
	C3107.983154,1644.447754 3108.020020,1575.926025 3107.948730,1507.404175 
	C3107.944824,1503.472900 3107.558838,1499.462158 3106.705811,1495.632080 
	C3105.666748,1490.968750 3107.205078,1488.603516 3111.809082,1487.994263 
z"/>
<path fill="#4EC9DD" opacity="1.000000" stroke="none" 
	d="
M3266.769531,1768.977051 
	C3283.613037,1756.881714 3298.315430,1742.476929 3312.543945,1727.589722 
	C3338.848877,1700.068237 3360.053467,1668.865234 3377.829834,1635.318481 
	C3383.399414,1624.807861 3387.962646,1613.763672 3394.313965,1602.512207 
	C3400.702637,1602.380981 3400.040771,1606.188721 3399.973877,1609.425781 
	C3398.851807,1663.624023 3402.418945,1717.879272 3398.006104,1772.036865 
	C3385.917480,1785.109985 3373.849121,1798.202026 3361.723145,1811.240234 
	C3359.250732,1813.898560 3356.559814,1816.353638 3353.585938,1819.496826 
	C3341.236816,1814.245972 3329.271240,1808.400635 3316.637939,1802.361450 
	C3307.261475,1797.038696 3298.310547,1792.273804 3289.915039,1786.675537 
	C3282.006104,1781.401855 3274.682861,1775.250244 3266.769531,1768.977051 
z"/>
<path fill="#1A7AD1" opacity="1.000000" stroke="none" 
	d="
M3422.538574,1844.759766 
	C3423.816650,1844.500488 3425.554932,1844.734375 3427.800293,1845.399536 
	C3426.538086,1845.638184 3424.768311,1845.445679 3422.538574,1844.759766 
z"/>
<path fill="#4EC9DD" opacity="1.000000" stroke="none" 
	d="
M3392.222900,1293.965942 
	C3382.813477,1276.101929 3373.840820,1257.990601 3363.896729,1240.429199 
	C3347.097412,1210.760498 3325.571777,1184.616699 3301.193604,1160.930420 
	C3290.524658,1150.563843 3278.558350,1141.532471 3266.476562,1131.737793 
	C3269.021729,1128.910278 3272.271729,1126.239990 3275.873047,1123.053589 
	C3281.004883,1119.577637 3285.951660,1116.853394 3290.536621,1113.616333 
	C3310.163818,1099.758911 3331.552979,1089.062622 3353.710449,1078.347900 
	C3353.296143,1082.529785 3357.077393,1083.953125 3359.201416,1086.216553 
	C3371.919434,1099.768433 3384.732910,1113.230957 3397.757324,1128.281738 
	C3398.000000,1180.587158 3398.000488,1231.334106 3397.998779,1282.081055 
	C3397.998535,1284.402710 3397.909668,1286.726562 3397.984375,1289.045532 
	C3398.116211,1293.142090 3395.648438,1294.089722 3392.222900,1293.965942 
z"/>
<path fill="#248CDF" opacity="1.000000" stroke="none" 
	d="
M3490.740723,1854.818359 
	C3506.776367,1854.163330 3523.422363,1854.050781 3540.983887,1854.097656 
	C3540.758789,1854.817139 3539.615479,1855.869263 3538.478271,1855.863281 
	C3522.768555,1855.780884 3507.059814,1855.553101 3490.740723,1854.818359 
z"/>
<path fill="#0858B7" opacity="1.000000" stroke="none" 
	d="
M3184.125488,1215.566162 
	C3178.852783,1224.257202 3173.112549,1231.817871 3168.268066,1239.914429 
	C3156.899414,1258.914673 3146.678467,1278.445312 3138.795166,1299.283081 
	C3124.948730,1335.883301 3116.502197,1373.627441 3111.205566,1413.057495 
	C3106.312256,1410.749268 3105.388672,1406.985596 3106.778809,1402.308105 
	C3107.520996,1399.809326 3107.948242,1397.117554 3107.950439,1394.512573 
	C3108.011719,1323.005249 3107.958740,1251.497803 3108.099609,1179.990845 
	C3108.108398,1175.604248 3106.728516,1172.354614 3103.774170,1169.467773 
	C3113.113770,1156.629517 3121.603271,1143.049805 3131.997559,1131.131348 
	C3146.608643,1114.378052 3162.641357,1098.865112 3178.035400,1082.792358 
	C3178.926270,1081.862183 3179.544189,1080.670776 3180.413330,1078.923584 
	C3181.303955,1078.217651 3182.070068,1078.189209 3183.413330,1078.066895 
	C3184.660645,1081.497437 3185.899902,1085.019409 3185.913574,1088.546265 
	C3186.055176,1125.369873 3186.076416,1162.194702 3185.914062,1199.018188 
	C3185.891113,1204.241089 3184.709961,1209.458984 3184.125488,1215.566162 
z"/>
<path fill="#1C77BE" opacity="1.000000" stroke="none" 
	d="
M2733.258057,1162.081055 
	C2733.639404,1162.562500 2733.357422,1163.066040 2732.356445,1163.516602 
	C2732.079346,1163.056274 2732.398438,1162.602905 2733.258057,1162.081055 
z"/>
<path fill="#1C77BE" opacity="1.000000" stroke="none" 
	d="
M2735.241211,1160.099731 
	C2735.624268,1160.583374 2735.341064,1161.087036 2734.336914,1161.536621 
	C2734.062012,1161.077148 2734.381348,1160.622925 2735.241211,1160.099731 
z"/>
<path fill="#2A8DC6" opacity="1.000000" stroke="none" 
	d="
M2926.547852,1844.894775 
	C2927.312988,1844.586060 2928.506592,1844.718262 2930.140869,1845.279541 
	C2929.379639,1845.584351 2928.177979,1845.459961 2926.547852,1844.894775 
z"/>
<path fill="#58D8E3" opacity="1.000000" stroke="none" 
	d="
M3392.245117,1294.699463 
	C3395.648438,1294.089722 3398.116211,1293.142090 3397.984375,1289.045532 
	C3397.909668,1286.726562 3397.998535,1284.402710 3397.998779,1282.081055 
	C3398.000488,1231.334106 3398.000000,1180.587158 3398.014648,1128.900024 
	C3406.582520,1138.523438 3415.680664,1148.695679 3423.599121,1159.715576 
	C3467.386963,1220.653931 3495.796631,1288.182739 3509.490967,1361.956055 
	C3517.566895,1405.463379 3519.008789,1449.486572 3515.196289,1493.239502 
	C3506.415283,1594.002197 3469.831787,1684.107544 3406.213379,1763.002197 
	C3403.919434,1765.847168 3401.543945,1768.627075 3398.606445,1771.737061 
	C3402.418945,1717.879272 3398.851807,1663.624023 3399.973877,1609.425781 
	C3400.040771,1606.188721 3400.702637,1602.380981 3394.808105,1602.021729 
	C3399.542969,1584.240845 3405.608887,1566.637207 3410.579834,1548.729614 
	C3422.739014,1504.925781 3424.796143,1460.062134 3421.474609,1415.085938 
	C3418.420898,1373.736694 3408.352051,1333.768433 3392.245117,1294.699463 
z"/>
<path fill="#0450B1" opacity="1.000000" stroke="none" 
	d="
M3103.192383,1169.841675 
	C3106.728516,1172.354614 3108.108398,1175.604248 3108.099609,1179.990845 
	C3107.958740,1251.497803 3108.011719,1323.005249 3107.950439,1394.512573 
	C3107.948242,1397.117554 3107.520996,1399.809326 3106.778809,1402.308105 
	C3105.388672,1406.985596 3106.312256,1410.749268 3110.938477,1413.861816 
	C3111.681396,1415.515015 3111.722168,1417.017700 3110.817627,1419.398682 
	C3105.995117,1421.790283 3105.686768,1425.137451 3106.061279,1428.472656 
	C3106.623047,1433.474731 3104.044189,1438.936768 3108.104004,1443.420044 
	C3108.477295,1443.832275 3109.321533,1443.818237 3109.947021,1444.002197 
	C3110.080078,1447.440552 3110.213135,1450.878662 3109.375000,1455.333740 
	C3104.027588,1463.168579 3105.505371,1470.230347 3107.808350,1477.189453 
	C3108.206299,1478.391968 3110.122314,1479.092041 3111.336914,1480.024292 
	C3111.581299,1482.150513 3111.825439,1484.276611 3111.939453,1487.198486 
	C3107.205078,1488.603516 3105.666748,1490.968750 3106.705811,1495.632080 
	C3107.558838,1499.462158 3107.944824,1503.472900 3107.948730,1507.404175 
	C3108.020020,1575.926025 3107.983154,1644.447754 3108.033447,1712.969604 
	C3108.037354,1718.352783 3108.268311,1723.670776 3103.646973,1728.675293 
	C3092.125732,1711.016357 3079.896484,1693.106445 3070.069092,1673.963379 
	C3038.833984,1613.119507 3021.444092,1548.355591 3017.542480,1479.978638 
	C3011.104004,1367.138672 3039.732178,1263.989136 3103.192383,1169.841675 
z"/>
<path fill="#0858B7" opacity="1.000000" stroke="none" 
	d="
M3110.187988,1443.181641 
	C3109.321533,1443.818237 3108.477295,1443.832275 3108.104004,1443.420044 
	C3104.044189,1438.936768 3106.623047,1433.474731 3106.061279,1428.472656 
	C3105.686768,1425.137451 3105.995117,1421.790283 3110.604980,1420.124023 
	C3111.034912,1427.434448 3110.731934,1434.897705 3110.187988,1443.181641 
z"/>
<path fill="#0858B7" opacity="1.000000" stroke="none" 
	d="
M3111.502197,1479.166016 
	C3110.122314,1479.092041 3108.206299,1478.391968 3107.808350,1477.189453 
	C3105.505371,1470.230347 3104.027588,1463.168579 3109.179199,1456.174561 
	C3110.525146,1463.434814 3111.096191,1470.871338 3111.502197,1479.166016 
z"/>
</svg>