<?xml version="1.0" encoding="UTF-8"?>
<!DOCTYPE svg PUBLIC "-//W3C//DTD SVG 1.1//EN" "http://www.w3.org/Graphics/SVG/1.1/DTD/svg11.dtd">
<svg xmlns="http://www.w3.org/2000/svg" version="1.1" width="256px" height="256px" style="shape-rendering:geometricPrecision; text-rendering:geometricPrecision; image-rendering:optimizeQuality; fill-rule:evenodd; clip-rule:evenodd" xmlns:xlink="http://www.w3.org/1999/xlink">
<g><path style="opacity:1" fill="#257ed3" d="M 164.5,42.5 C 169.518,42.6133 174.518,42.9466 179.5,43.5C 179.5,48.1667 179.5,52.8333 179.5,57.5C 172.576,57.0678 165.909,57.7345 159.5,59.5C 154.457,60.6775 149.457,62.0108 144.5,63.5C 143.391,63.5569 142.391,63.8902 141.5,64.5C 141.828,59.1254 141.495,53.7921 140.5,48.5C 137.766,50.3706 134.766,51.3706 131.5,51.5C 141.685,45.8685 152.685,42.8685 164.5,42.5 Z"/></g>
<g><path style="opacity:1" fill="#4098cb" d="M 90.5,42.5 C 92.3598,47.193 93.0265,52.193 92.5,57.5C 87.9677,57.1818 83.6344,57.5151 79.5,58.5C 76.6553,59.3438 73.6553,60.0104 70.5,60.5C 71.4491,55.2599 71.7825,49.9265 71.5,44.5C 69.5,44.5 67.5,44.5 65.5,44.5C 71.7535,42.8177 78.2535,41.8177 85,41.5C 87.0326,41.5056 88.866,41.8389 90.5,42.5 Z"/></g>
<g><path style="opacity:1" fill="#3189c5" d="M 65.5,44.5 C 67.5,44.5 69.5,44.5 71.5,44.5C 71.7825,49.9265 71.4491,55.2599 70.5,60.5C 66.7768,61.2967 63.1101,62.2967 59.5,63.5C 60.4491,58.2599 60.7825,52.9265 60.5,47.5C 58.1944,47.9926 55.861,48.3259 53.5,48.5C 57.0845,46.1939 61.0845,44.8606 65.5,44.5 Z"/></g>
<g><path style="opacity:1" fill="#42a7d1" d="M 90.5,42.5 C 95.6572,42.2943 100.657,42.961 105.5,44.5C 105.5,49.8333 105.5,55.1667 105.5,60.5C 104.5,60.5 103.5,60.5 102.5,60.5C 94.8893,59.2572 87.2226,58.5905 79.5,58.5C 83.6344,57.5151 87.9677,57.1818 92.5,57.5C 93.0265,52.193 92.3598,47.193 90.5,42.5 Z"/></g>
<g><path style="opacity:1" fill="#3d94e2" d="M 164.5,42.5 C 177.095,41.1619 189.429,42.8286 201.5,47.5C 202.65,50.651 203.317,53.9844 203.5,57.5C 203.478,60.5902 202.812,63.2568 201.5,65.5C 188.04,59.7341 174.04,57.7341 159.5,59.5C 165.909,57.7345 172.576,57.0678 179.5,57.5C 179.5,52.8333 179.5,48.1667 179.5,43.5C 174.518,42.9466 169.518,42.6133 164.5,42.5 Z"/></g>
<g><path style="opacity:1" fill="#2c7fc1" d="M 59.5,63.5 C 56.1667,65.1667 52.8333,66.8333 49.5,68.5C 49.5,62.8333 49.5,57.1667 49.5,51.5C 48.5,51.5 47.5,51.5 46.5,51.5C 48.4261,49.7073 50.7594,48.7073 53.5,48.5C 55.861,48.3259 58.1944,47.9926 60.5,47.5C 60.7825,52.9265 60.4491,58.2599 59.5,63.5 Z"/></g>
<g><path style="opacity:1" fill="#4ab2d5" d="M 105.5,44.5 C 113.467,46.3776 121.134,49.0443 128.5,52.5C 122.692,56.5795 117.025,60.9128 111.5,65.5C 111.631,64.6236 111.298,63.9569 110.5,63.5C 107.718,62.4844 105.051,61.4844 102.5,60.5C 103.5,60.5 104.5,60.5 105.5,60.5C 105.5,55.1667 105.5,49.8333 105.5,44.5 Z"/></g>
<g><path style="opacity:1" fill="#2975be" d="M 46.5,51.5 C 47.5,51.5 48.5,51.5 49.5,51.5C 49.5,57.1667 49.5,62.8333 49.5,68.5C 44.9863,71.5912 40.653,74.9245 36.5,78.5C 36.5,72.1667 36.5,65.8333 36.5,59.5C 35.5,59.5 34.5,59.5 33.5,59.5C 37.2991,56.0482 41.6325,53.3815 46.5,51.5 Z"/></g>
<g><path style="opacity:1" fill="#3aa3ef" d="M 201.5,47.5 C 212.179,51.532 221.512,57.532 229.5,65.5C 230.107,69.9511 230.441,74.4511 230.5,79C 230.49,83.229 229.823,87.0623 228.5,90.5C 221.708,79.7052 212.708,71.3719 201.5,65.5C 202.812,63.2568 203.478,60.5902 203.5,57.5C 203.317,53.9844 202.65,50.651 201.5,47.5 Z"/></g>
<g><path style="opacity:1" fill="#2162be" d="M 141.5,64.5 C 136.457,67.015 131.79,70.015 127.5,73.5C 115.067,84.2676 106.733,97.6009 102.5,113.5C 102.667,101.829 102.5,90.1619 102,78.5C 101.292,79.3805 100.458,80.0472 99.5,80.5C 100.072,78.7446 100.906,77.0779 102,75.5C 104.952,71.9008 108.118,68.5675 111.5,65.5C 117.025,60.9128 122.692,56.5795 128.5,52.5C 129.391,51.8902 130.391,51.5569 131.5,51.5C 134.766,51.3706 137.766,50.3706 140.5,48.5C 141.495,53.7921 141.828,59.1254 141.5,64.5 Z"/></g>
<g><path style="opacity:1" fill="#2469b9" d="M 33.5,59.5 C 34.5,59.5 35.5,59.5 36.5,59.5C 36.5,65.8333 36.5,72.1667 36.5,78.5C 30.7515,85.0095 25.7515,92.0095 21.5,99.5C 22.1377,90.1045 21.4711,81.1045 19.5,72.5C 23.539,67.46 28.2056,63.1266 33.5,59.5 Z"/></g>
<g><path style="opacity:1" fill="#53c9dd" d="M 144.5,63.5 C 144.389,64.1174 144.056,64.6174 143.5,65C 145.041,66.3712 146.375,67.8712 147.5,69.5C 148.608,78.1188 148.775,86.7855 148,95.5C 147.578,93.5743 146.411,92.5743 144.5,92.5C 139.977,85.1015 134.31,78.7681 127.5,73.5C 131.79,70.015 136.457,67.015 141.5,64.5C 142.391,63.8902 143.391,63.5569 144.5,63.5 Z"/></g>
<g><path style="opacity:1" fill="#2862b7" d="M 19.5,72.5 C 21.4711,81.1045 22.1377,90.1045 21.5,99.5C 14.8622,118.168 14.8622,136.834 21.5,155.5C 21.178,157.722 21.8446,159.556 23.5,161C 23.1773,169.154 22.1773,176.987 20.5,184.5C 17.6644,181.487 15.3311,178.154 13.5,174.5C 14.8333,143.5 14.8333,112.5 13.5,81.5C 14.7589,77.9754 16.7589,74.9754 19.5,72.5 Z"/></g>
<g><path style="opacity:1" fill="#40adf6" d="M 229.5,65.5 C 235.306,70.6364 239.973,76.6364 243.5,83.5C 243.5,113.167 243.5,142.833 243.5,172.5C 237.192,183.141 228.859,191.808 218.5,198.5C 218.666,192.158 218.5,185.825 218,179.5C 216.871,181.141 215.371,182.141 213.5,182.5C 237.823,160.548 244.989,133.882 235,102.5C 233.075,98.3133 230.908,94.3133 228.5,90.5C 229.823,87.0623 230.49,83.229 230.5,79C 230.441,74.4511 230.107,69.9511 229.5,65.5 Z"/></g>
<g><path style="opacity:1" fill="#5bd6e2" d="M 147.5,69.5 C 153.641,75.1087 158.308,81.7753 161.5,89.5C 161.5,115.167 161.5,140.833 161.5,166.5C 158.331,173.662 153.998,179.995 148.5,185.5C 149.135,176.766 148.468,168.433 146.5,160.5C 157.611,137.423 156.944,114.756 144.5,92.5C 146.411,92.5743 147.578,93.5743 148,95.5C 148.775,86.7855 148.608,78.1188 147.5,69.5 Z"/></g>
<g><path style="opacity:1" fill="#3eb4fc" d="M 243.5,83.5 C 249.436,92.3706 253.436,102.037 255.5,112.5C 255.5,122.833 255.5,133.167 255.5,143.5C 253.069,153.786 249.069,163.453 243.5,172.5C 243.5,142.833 243.5,113.167 243.5,83.5 Z"/></g>
<g><path style="opacity:1" fill="#2057b5" d="M 102.5,113.5 C 101.167,123.167 101.167,132.833 102.5,142.5C 102.667,154.171 102.5,165.838 102,177.5C 101.329,176.748 100.496,176.414 99.5,176.5C 82.9381,150.685 80.1047,123.351 91,94.5C 93.1057,89.2697 95.939,84.603 99.5,80.5C 100.458,80.0472 101.292,79.3805 102,78.5C 102.5,90.1619 102.667,101.829 102.5,113.5 Z"/></g>
<g><path style="opacity:1" fill="#61dee5" d="M 161.5,89.5 C 168.248,101.164 171.248,113.831 170.5,127.5C 171.094,141.45 168.094,154.45 161.5,166.5C 161.5,140.833 161.5,115.167 161.5,89.5 Z"/></g>
<g><path style="opacity:1" fill="#1c56b2" d="M 13.5,81.5 C 14.8333,112.5 14.8333,143.5 13.5,174.5C 6.61475,164.065 1.94808,152.732 -0.5,140.5C -0.5,132.167 -0.5,123.833 -0.5,115.5C 1.25258,107.401 3.75258,99.4012 7,91.5C 8.94169,87.9311 11.1084,84.5978 13.5,81.5 Z"/></g>
<g><path style="opacity:1" fill="#1e60bc" d="M 102.5,142.5 C 106.442,156.792 113.775,169.125 124.5,179.5C 125.774,186.296 125.774,192.963 124.5,199.5C 119.929,197.262 115.929,194.262 112.5,190.5C 107.46,186.461 103.127,181.794 99.5,176.5C 100.496,176.414 101.329,176.748 102,177.5C 102.5,165.838 102.667,154.171 102.5,142.5 Z"/></g>
<g><path style="opacity:1" fill="#55cade" d="M 146.5,160.5 C 148.468,168.433 149.135,176.766 148.5,185.5C 146.833,187.5 145.167,189.5 143.5,191.5C 137.002,189.423 131.335,186.09 126.5,181.5C 127.552,181.649 128.552,181.483 129.5,181C 136.498,175.11 142.164,168.277 146.5,160.5 Z"/></g>
<g><path style="opacity:1" fill="#246aba" d="M 21.5,155.5 C 24.7235,162.27 28.7235,168.604 33.5,174.5C 33.6663,181.175 33.4996,187.842 33,194.5C 32.3292,193.748 31.4959,193.414 30.5,193.5C 26.5442,191.212 23.2109,188.212 20.5,184.5C 22.1773,176.987 23.1773,169.154 23.5,161C 21.8446,159.556 21.178,157.722 21.5,155.5 Z"/></g>
<g><path style="opacity:1" fill="#2472bd" d="M 33.5,174.5 C 38.3175,178.74 43.3175,182.74 48.5,186.5C 49.0811,189.783 49.4145,193.116 49.5,196.5C 49.4783,199.59 48.8117,202.257 47.5,204.5C 40.9735,202.076 35.3068,198.409 30.5,193.5C 31.4959,193.414 32.3292,193.748 33,194.5C 33.4996,187.842 33.6663,181.175 33.5,174.5 Z"/></g>
<g><path style="opacity:1" fill="#1b6cc6" d="M 124.5,179.5 C 125.5,179.833 126.167,180.5 126.5,181.5C 131.335,186.09 137.002,189.423 143.5,191.5C 144.167,191.833 144.833,192.167 145.5,192.5C 145.5,197.833 145.5,203.167 145.5,208.5C 144.5,208.5 143.5,208.5 142.5,208.5C 137.311,207.568 132.644,205.568 128.5,202.5C 127.167,201.5 125.833,200.5 124.5,199.5C 125.774,192.963 125.774,186.296 124.5,179.5 Z"/></g>
<g><path style="opacity:1" fill="#3698e6" d="M 218.5,198.5 C 210.018,205.236 200.352,209.57 189.5,211.5C 191.37,206.468 192.037,201.135 191.5,195.5C 189.833,195.5 188.167,195.5 186.5,195.5C 196.096,192.536 205.096,188.203 213.5,182.5C 215.371,182.141 216.871,181.141 218,179.5C 218.5,185.825 218.666,192.158 218.5,198.5 Z"/></g>
<g><path style="opacity:1" fill="#2f83c3" d="M 48.5,186.5 C 53.21,189.406 58.21,191.739 63.5,193.5C 64.4002,198.772 64.7335,204.105 64.5,209.5C 62.8333,209.5 61.1667,209.5 59.5,209.5C 55.1108,208.597 51.1108,206.931 47.5,204.5C 48.8117,202.257 49.4783,199.59 49.5,196.5C 49.4145,193.116 49.0811,189.783 48.5,186.5 Z"/></g>
<g><path style="opacity:1" fill="#48b2d5" d="M 112.5,190.5 C 115.929,194.262 119.929,197.262 124.5,199.5C 125.833,200.5 127.167,201.5 128.5,202.5C 120.929,206.618 112.929,209.618 104.5,211.5C 105.449,206.26 105.782,200.927 105.5,195.5C 104.167,195.5 102.833,195.5 101.5,195.5C 105.408,194.417 109.074,192.751 112.5,190.5 Z"/></g>
<g><path style="opacity:1" fill="#4193e0" d="M 186.5,195.5 C 188.167,195.5 189.833,195.5 191.5,195.5C 192.037,201.135 191.37,206.468 189.5,211.5C 179.123,213.642 168.79,213.975 158.5,212.5C 165.833,212.5 173.167,212.5 180.5,212.5C 180.5,207.5 180.5,202.5 180.5,197.5C 173.646,197.824 166.979,197.491 160.5,196.5C 169.195,196.673 177.862,196.34 186.5,195.5 Z"/></g>
<g><path style="opacity:1" fill="#318fc7" d="M 63.5,193.5 C 68.0468,195.01 72.7134,196.01 77.5,196.5C 79.6074,197.468 81.9407,197.802 84.5,197.5C 84.5,202.5 84.5,207.5 84.5,212.5C 80.8333,212.5 77.1667,212.5 73.5,212.5C 68.5233,212.419 63.8566,211.419 59.5,209.5C 61.1667,209.5 62.8333,209.5 64.5,209.5C 64.7335,204.105 64.4002,198.772 63.5,193.5 Z"/></g>
<g><path style="opacity:1" fill="#43a3cf" d="M 101.5,195.5 C 102.833,195.5 104.167,195.5 105.5,195.5C 105.782,200.927 105.449,206.26 104.5,211.5C 94.0921,213.606 83.7588,213.94 73.5,212.5C 77.1667,212.5 80.8333,212.5 84.5,212.5C 84.5,207.5 84.5,202.5 84.5,197.5C 81.9407,197.802 79.6074,197.468 77.5,196.5C 85.5288,196.656 93.5288,196.323 101.5,195.5 Z"/></g>
<g><path style="opacity:1" fill="#227dd3" d="M 145.5,192.5 C 150.478,193.994 155.478,195.327 160.5,196.5C 166.979,197.491 173.646,197.824 180.5,197.5C 180.5,202.5 180.5,207.5 180.5,212.5C 173.167,212.5 165.833,212.5 158.5,212.5C 152.755,212.397 147.422,211.064 142.5,208.5C 143.5,208.5 144.5,208.5 145.5,208.5C 145.5,203.167 145.5,197.833 145.5,192.5 Z"/></g>
</svg>
