<svg version="1.1" id="Layer_1" xmlns="http://www.w3.org/2000/svg" xmlns:xlink="http://www.w3.org/1999/xlink" x="0px" y="0px"
	 width="100%" viewBox="0 0 958 302" enable-background="new 0 0 958 302" xml:space="preserve">
<path fill="#FEFEFE" opacity="1.000000" stroke="none" 
	d="
M621.000000,303.000000 
	C414.000000,303.000000 207.500000,303.000000 1.000000,303.000000 
	C1.000000,202.333328 1.000000,101.666664 1.000000,1.000000 
	C320.333344,1.000000 639.666687,1.000000 959.000000,1.000000 
	C959.000000,101.666664 959.000000,202.333328 959.000000,303.000000 
	C846.500000,303.000000 734.000000,303.000000 621.000000,303.000000 
M435.013672,215.715286 
	C435.646301,216.217590 436.278900,216.719910 436.876556,217.868347 
	C437.050751,218.238327 437.224915,218.608307 437.587952,219.466400 
	C438.091278,219.884537 438.594574,220.302673 439.071045,220.876038 
	C439.071045,220.876038 439.228577,220.875931 439.426971,221.518707 
	C443.948273,225.864105 448.469543,230.209518 453.419464,235.045151 
	C453.849396,235.068512 454.279297,235.091873 454.813019,235.822678 
	C455.523346,236.246964 456.233673,236.671249 456.975800,237.011383 
	C456.975800,237.011383 456.900818,237.061127 457.013672,237.733093 
	C457.680786,238.145111 458.347931,238.557144 459.004120,239.004608 
	C459.004120,239.004608 459.034485,238.982574 459.193481,239.602768 
	C459.814087,240.005539 460.434662,240.408325 461.342865,241.292969 
	C461.897125,241.713104 462.451416,242.133224 463.642853,242.963425 
	C466.663605,244.347412 469.684326,245.731400 472.833130,247.802475 
	C473.557312,248.151733 474.281494,248.500992 475.543030,249.145721 
	C475.950012,249.138306 476.356964,249.130905 476.905884,249.867874 
	C479.581299,250.920944 482.256683,251.974014 485.221588,253.676010 
	C486.482697,254.075333 487.743805,254.474670 489.581512,255.130493 
	C490.000580,255.120911 490.419678,255.111313 491.050232,255.860657 
	C493.599030,256.280701 496.147858,256.700745 498.967194,257.811310 
	C500.313873,258.141602 501.660583,258.471863 503.839569,258.989532 
	C505.542267,259.044525 507.244965,259.099518 509.161072,259.917755 
	C514.770813,260.239563 520.380554,260.561401 526.905640,261.039673 
	C530.933228,260.962372 534.960876,260.885040 539.788940,260.919250 
	C541.555359,260.299713 543.321838,259.680145 545.032410,258.997131 
	C545.032410,258.997131 545.046814,259.080383 545.935181,259.193115 
	C550.287415,258.400665 554.639709,257.608185 559.774658,256.910156 
	C562.776855,255.845535 565.823486,254.890350 568.771545,253.692505 
	C574.217712,251.479675 579.606079,249.124634 585.745422,247.011581 
	C592.163208,249.664948 598.580994,252.318314 605.639404,255.366165 
	C611.420898,256.594421 617.202332,257.822693 623.331787,259.737366 
	C630.551147,260.117065 637.770569,260.496735 645.913574,261.030243 
	C652.273865,260.294891 658.634155,259.559540 665.818359,258.927765 
	C673.544189,256.252777 681.270081,253.577805 689.703918,250.949234 
	C690.769531,250.282700 691.835144,249.616165 692.953918,248.984512 
	C692.953918,248.984512 692.976257,248.924957 693.725830,248.969238 
	C700.799438,244.259552 707.873108,239.549866 715.636475,234.780609 
	C719.425110,230.856369 723.213684,226.932144 727.653137,222.899094 
	C728.088501,222.259628 728.523926,221.620148 728.993652,220.992188 
	C728.993652,220.992188 728.980957,220.956177 729.673950,220.828201 
	C732.645325,216.884155 735.616638,212.940109 738.945984,208.399765 
	C738.977722,207.937775 739.009460,207.475800 739.646790,206.859726 
	C740.016785,206.238281 740.386841,205.616837 741.103455,204.364197 
	C742.382019,202.633713 743.660583,200.903229 745.050842,200.082703 
	C745.050842,208.870483 745.050842,217.658279 745.050842,226.721741 
	C759.948425,226.721741 774.334717,226.721741 789.002869,226.721741 
	C789.002869,207.344131 788.820496,188.204803 789.099731,169.072189 
	C789.200378,162.175339 790.117371,155.246124 791.248413,148.429016 
	C791.745056,145.435303 793.320557,142.416443 795.078125,139.873413 
	C800.905701,131.441467 815.256165,129.072937 819.848755,141.082321 
	C821.488342,145.369690 822.441589,150.102249 822.711304,154.690231 
	C823.180115,162.663483 822.885803,170.682281 822.890076,178.681992 
	C822.898560,194.640472 822.892578,210.598953 822.892578,226.601364 
	C837.629761,226.601364 852.009949,226.601364 866.687561,226.601364 
	C866.687561,212.899811 866.393066,199.588928 866.770813,186.297134 
	C867.146057,173.094162 867.724854,159.860031 869.123779,146.736496 
	C870.007324,138.448669 877.282166,132.069901 887.141907,133.007355 
	C893.255554,133.588638 898.690308,140.077286 899.072327,148.052261 
	C899.438782,155.701996 899.775879,163.360214 899.825073,171.016647 
	C899.935364,188.182327 899.936279,205.349854 899.794067,222.515076 
	C899.765198,226.003677 900.851196,227.191681 904.372925,227.072586 
	C911.364807,226.836136 918.370300,227.002670 925.370178,227.002670 
	C931.295898,227.002670 937.221558,227.002686 943.216003,227.002686 
	C943.216003,202.145004 943.410217,177.977661 943.117981,153.816193 
	C943.005310,144.496597 942.428650,135.084076 940.905823,125.905952 
	C939.146790,115.303665 932.546875,107.684082 922.819824,103.089645 
	C914.162231,99.000374 904.855225,98.382843 895.482666,99.057869 
	C886.052551,99.737045 877.380615,102.641655 870.093872,108.963150 
	C867.723877,111.019051 865.630554,113.933937 862.871338,114.875870 
	C858.612671,116.329651 858.057739,111.039062 855.458496,109.167992 
	C849.725281,105.040894 843.770264,101.992638 836.755615,100.388779 
	C825.849854,97.895264 815.162659,98.255142 804.751221,101.715744 
	C797.479248,104.132851 791.306458,108.650818 786.866516,115.235481 
	C786.465454,115.830292 783.516479,115.719757 783.355652,115.308701 
	C781.558655,110.717056 780.077454,106.001846 778.434448,101.090660 
	C768.604919,101.090660 758.786987,101.090660 748.320435,100.774124 
	C745.788391,96.182976 743.256348,91.591827 740.720642,86.384941 
	C740.149597,85.922501 739.578613,85.460060 738.993652,84.286690 
	C738.373657,83.728050 737.753662,83.169411 737.212341,81.888031 
	C735.089233,78.940094 732.966187,75.992149 730.777466,72.356705 
	C725.516052,67.303032 720.254639,62.249352 714.444946,56.762589 
	C709.346069,53.462624 704.247192,50.162659 699.115234,46.909809 
	C699.115234,46.909809 699.161133,46.891899 699.076477,46.214581 
	C698.383301,45.840706 697.690186,45.466831 696.376526,44.723167 
	C691.962646,42.789272 687.548828,40.855377 682.945496,38.324242 
	C682.298340,37.983517 681.651245,37.642792 680.370178,37.036037 
	C679.913147,37.043102 679.456116,37.050167 678.323242,36.729176 
	C673.546265,35.526360 668.769287,34.323547 663.183411,32.942245 
	C657.119690,32.347462 651.056030,31.752680 644.064758,31.023771 
	C638.594116,31.055155 633.117249,30.951832 627.656555,31.201248 
	C626.050293,31.274616 624.489746,32.347206 622.100281,32.840317 
	C618.732971,33.576958 615.365723,34.313595 611.249817,34.930264 
	C610.502197,35.029560 609.754578,35.128860 608.256531,35.150730 
	C607.842896,35.378300 607.429260,35.605869 606.366211,35.744789 
	C603.581970,36.842606 600.713623,37.768536 598.033813,39.079735 
	C594.297668,40.907825 590.702454,43.023994 586.371521,45.016193 
	C585.930664,45.087177 585.489868,45.158165 584.262085,45.117714 
	C581.786865,44.060989 579.356384,42.879734 576.827698,41.971775 
	C570.238892,39.605942 563.607117,37.359924 556.401428,34.873146 
	C555.989075,34.892464 555.576782,34.911785 554.903748,34.260239 
	C553.598572,33.914581 552.293457,33.568924 550.165283,33.043571 
	C546.105530,32.417103 542.045715,31.790636 537.062683,31.040417 
	C532.373230,31.080801 527.683716,31.121187 522.076538,31.028534 
	C519.981873,31.019611 517.851196,30.765720 515.802002,31.066624 
	C513.481934,31.407303 511.235016,32.245590 508.107147,32.766151 
	C506.407623,32.913387 504.708069,33.060623 502.266785,33.106007 
	C501.085663,33.700401 499.904510,34.294796 497.899658,34.771034 
	C495.543335,35.490608 493.186981,36.210182 490.207794,36.851944 
	C489.807129,36.947407 489.406464,37.042870 488.284363,37.061028 
	C487.175201,37.701591 486.066040,38.342155 484.181274,38.933491 
	C481.765381,40.226372 479.349518,41.519253 476.268311,42.820705 
	C475.848633,42.938778 475.428986,43.056847 474.324829,43.124584 
	C473.802429,43.717266 473.280029,44.309952 472.146393,44.837799 
	C471.767975,44.962597 471.389526,45.087395 470.360840,45.193565 
	C469.875153,45.783066 469.389465,46.372566 468.208740,47.160801 
	C465.798096,48.583317 463.387482,50.005833 460.393433,51.619587 
	C459.259338,52.738155 458.125275,53.856720 456.284851,55.007343 
	C455.776276,55.640087 455.267700,56.272827 454.038910,56.886124 
	C449.755737,60.951077 445.472534,65.016029 441.059387,69.076263 
	C441.059387,69.076263 441.082336,69.204285 440.509949,69.382004 
	C440.086639,69.951157 439.663300,70.520309 439.072968,71.091919 
	C439.072968,71.091919 439.095459,71.257431 438.588074,71.452751 
	C438.183105,71.977425 437.778137,72.502098 436.919647,73.638954 
	C436.318573,74.735786 435.784729,75.876297 435.105316,76.922256 
	C431.180786,82.964157 427.221832,88.983696 422.972473,95.603096 
	C422.973083,96.045593 422.973724,96.488098 422.388336,97.155983 
	C422.021393,97.774399 421.654419,98.392815 420.976562,99.606400 
	C420.380188,100.112198 419.783813,100.618004 418.231781,101.018387 
	C408.587555,101.018387 398.943329,101.018387 389.325714,101.018387 
	C380.991638,128.777695 372.749481,156.230835 364.471985,183.801758 
	C356.472443,155.717117 348.686737,128.383316 341.001648,101.402687 
	C325.511597,101.402687 310.625519,101.402687 295.590698,101.402687 
	C311.661224,143.524536 327.580811,185.250748 343.444641,226.830811 
	C358.125336,226.830811 372.429260,226.830811 386.638214,226.830811 
	C389.494659,219.253372 392.220215,211.833801 395.087128,204.469238 
	C398.176910,196.532074 401.530853,188.695938 404.522278,180.722916 
	C406.982483,174.165756 409.080933,167.472839 412.027496,161.194092 
	C415.124084,171.791687 418.220642,182.389297 421.340393,193.594162 
	C421.891174,194.069824 422.441956,194.545486 422.961670,195.701096 
	C423.076721,196.130112 423.191772,196.559128 423.325653,197.692902 
	C426.008514,202.122162 428.691376,206.551422 431.517029,211.508133 
	C432.036987,211.943390 432.556946,212.378632 433.036469,212.920288 
	C433.036469,212.920288 433.148682,212.939346 433.184387,213.598495 
	C433.786499,214.071167 434.388580,214.543854 435.001221,215.000610 
	C435.001221,215.000610 434.985046,215.008301 435.013672,215.715286 
M150.483978,216.991409 
	C146.763657,211.683533 142.926437,206.453171 139.345978,201.052582 
	C130.322342,187.441742 121.658691,173.583771 112.318611,160.196106 
	C109.325279,155.905609 111.807358,154.876373 114.482597,153.074448 
	C127.808670,144.098648 136.199799,132.011047 136.833649,115.618828 
	C137.050995,109.998077 135.970139,104.278404 135.055283,98.673637 
	C133.559479,89.509567 128.438690,82.486244 121.112053,77.032059 
	C110.111794,68.843102 97.308746,65.541344 83.985588,65.150993 
	C63.339149,64.546074 42.665283,64.869217 22.002987,64.829681 
	C20.422594,64.826660 18.841732,65.067322 17.458200,65.178825 
	C17.458200,119.385559 17.458200,172.970169 17.458200,226.723587 
	C32.134979,226.723587 46.539436,226.723587 61.263699,226.723587 
	C61.263699,207.336395 61.263699,188.227478 61.263699,169.221786 
	C69.673920,166.642166 72.612801,167.669647 76.489983,174.342896 
	C85.990654,190.695068 95.433571,207.081467 105.077492,223.348694 
	C106.021545,224.941132 108.179283,226.815887 109.805161,226.845749 
	C124.464279,227.115036 139.130447,227.010391 153.794464,226.978363 
	C154.693390,226.976395 155.591629,226.660507 156.405396,226.506714 
	C154.442307,223.334885 152.674240,220.478149 150.483978,216.991409 
M227.476562,147.042435 
	C213.675003,146.927994 200.081741,148.327637 187.008774,153.027390 
	C174.883881,157.386322 162.608902,168.035660 162.802963,183.987518 
	C162.865753,189.148514 162.453415,194.382294 163.172958,199.453003 
	C164.329956,207.606339 167.989929,214.931747 174.156769,220.382538 
	C185.503433,230.411728 199.521301,230.327774 213.229645,228.374023 
	C219.552231,227.472900 225.737518,223.950928 231.398438,220.620239 
	C235.493500,218.210876 238.622147,214.158981 242.681427,210.373672 
	C244.918976,214.811829 246.883713,218.983093 249.120026,223.003281 
	C249.960236,224.513718 251.393555,226.776276 252.620056,226.817795 
	C262.039978,227.136673 271.475555,226.993073 280.907928,226.993073 
	C280.907928,196.276108 281.146362,166.138351 280.724487,136.009857 
	C280.630157,129.271881 277.583374,122.863091 273.520660,117.158241 
	C265.226135,105.511032 253.165405,100.301277 239.737564,99.391731 
	C228.440872,98.626534 216.974625,100.223099 205.591827,100.912628 
	C195.343430,101.533432 185.967972,105.376595 176.654724,109.279892 
	C175.950394,109.575081 175.216217,111.549225 175.539978,112.280975 
	C179.468460,121.159805 183.593079,129.951828 187.629730,138.686401 
	C190.974182,137.399139 194.121170,135.913391 197.423767,134.975830 
	C203.646698,133.209198 210.081268,132.127045 216.209122,130.099319 
	C228.764084,125.944847 238.413452,133.488968 236.818359,147.039536 
	C234.074402,147.039536 231.272064,147.039536 227.476562,147.042435 
z"/>
<path fill="#020202" opacity="1.000000" stroke="none" 
	d="
M748.969116,101.090660 
	C758.786987,101.090660 768.604919,101.090660 778.434448,101.090660 
	C780.077454,106.001846 781.558655,110.717056 783.355652,115.308701 
	C783.516479,115.719757 786.465454,115.830292 786.866516,115.235481 
	C791.306458,108.650818 797.479248,104.132851 804.751221,101.715744 
	C815.162659,98.255142 825.849854,97.895264 836.755615,100.388779 
	C843.770264,101.992638 849.725281,105.040894 855.458496,109.167992 
	C858.057739,111.039062 858.612671,116.329651 862.871338,114.875870 
	C865.630554,113.933937 867.723877,111.019051 870.093872,108.963150 
	C877.380615,102.641655 886.052551,99.737045 895.482666,99.057869 
	C904.855225,98.382843 914.162231,99.000374 922.819824,103.089645 
	C932.546875,107.684082 939.146790,115.303665 940.905823,125.905952 
	C942.428650,135.084076 943.005310,144.496597 943.117981,153.816193 
	C943.410217,177.977661 943.216003,202.145004 943.216003,227.002686 
	C937.221558,227.002686 931.295898,227.002670 925.370178,227.002670 
	C918.370300,227.002670 911.364807,226.836136 904.372925,227.072586 
	C900.851196,227.191681 899.765198,226.003677 899.794067,222.515076 
	C899.936279,205.349854 899.935364,188.182327 899.825073,171.016647 
	C899.775879,163.360214 899.438782,155.701996 899.072327,148.052261 
	C898.690308,140.077286 893.255554,133.588638 887.141907,133.007355 
	C877.282166,132.069901 870.007324,138.448669 869.123779,146.736496 
	C867.724854,159.860031 867.146057,173.094162 866.770813,186.297134 
	C866.393066,199.588928 866.687561,212.899811 866.687561,226.601364 
	C852.009949,226.601364 837.629761,226.601364 822.892578,226.601364 
	C822.892578,210.598953 822.898560,194.640472 822.890076,178.681992 
	C822.885803,170.682281 823.180115,162.663483 822.711304,154.690231 
	C822.441589,150.102249 821.488342,145.369690 819.848755,141.082321 
	C815.256165,129.072937 800.905701,131.441467 795.078125,139.873413 
	C793.320557,142.416443 791.745056,145.435303 791.248413,148.429016 
	C790.117371,155.246124 789.200378,162.175339 789.099731,169.072189 
	C788.820496,188.204803 789.002869,207.344131 789.002869,226.721741 
	C774.334717,226.721741 759.948425,226.721741 745.050842,226.721741 
	C745.050842,217.658279 745.050842,208.870483 745.130249,199.263596 
	C746.027283,196.182816 746.673889,193.840912 747.690796,191.672745 
	C753.384277,179.533798 756.356201,166.729630 756.962219,153.391159 
	C757.226074,147.582397 757.421265,141.702896 756.822388,135.941299 
	C756.206970,130.020126 754.704041,124.176323 753.369873,118.348961 
	C752.045288,112.563599 750.447205,106.840866 748.969116,101.090660 
z"/>
<path fill="#030303" opacity="1.000000" stroke="none" 
	d="
M150.695068,217.306412 
	C152.674240,220.478149 154.442307,223.334885 156.405396,226.506714 
	C155.591629,226.660507 154.693390,226.976395 153.794464,226.978363 
	C139.130447,227.010391 124.464279,227.115036 109.805161,226.845749 
	C108.179283,226.815887 106.021545,224.941132 105.077492,223.348694 
	C95.433571,207.081467 85.990654,190.695068 76.489983,174.342896 
	C72.612801,167.669647 69.673920,166.642166 61.263699,169.221786 
	C61.263699,188.227478 61.263699,207.336395 61.263699,226.723587 
	C46.539436,226.723587 32.134979,226.723587 17.458200,226.723587 
	C17.458200,172.970169 17.458200,119.385559 17.458200,65.178825 
	C18.841732,65.067322 20.422594,64.826660 22.002987,64.829681 
	C42.665283,64.869217 63.339149,64.546074 83.985588,65.150993 
	C97.308746,65.541344 110.111794,68.843102 121.112053,77.032059 
	C128.438690,82.486244 133.559479,89.509567 135.055283,98.673637 
	C135.970139,104.278404 137.050995,109.998077 136.833649,115.618828 
	C136.199799,132.011047 127.808670,144.098648 114.482597,153.074448 
	C111.807358,154.876373 109.325279,155.905609 112.318611,160.196106 
	C121.658691,173.583771 130.322342,187.441742 139.345978,201.052582 
	C142.926437,206.453171 146.763657,211.683533 150.695068,217.306412 
M61.134686,119.495346 
	C61.134686,124.569382 61.134686,129.643417 61.134686,134.968124 
	C64.682610,134.968124 67.497818,135.032333 70.309250,134.956543 
	C80.417755,134.684052 88.893456,131.962387 92.036926,120.835045 
	C93.648605,115.129974 93.422447,109.758545 89.739670,104.969810 
	C85.523964,99.488129 69.075989,94.886726 62.956081,97.526321 
	C62.016685,97.931496 61.254120,99.826180 61.215832,101.057053 
	C61.035152,106.865738 61.134922,112.683144 61.134686,119.495346 
z"/>
<path fill="#030303" opacity="1.000000" stroke="none" 
	d="
M227.973145,147.040985 
	C231.272064,147.039536 234.074402,147.039536 236.818359,147.039536 
	C238.413452,133.488968 228.764084,125.944847 216.209122,130.099319 
	C210.081268,132.127045 203.646698,133.209198 197.423767,134.975830 
	C194.121170,135.913391 190.974182,137.399139 187.629730,138.686401 
	C183.593079,129.951828 179.468460,121.159805 175.539978,112.280975 
	C175.216217,111.549225 175.950394,109.575081 176.654724,109.279892 
	C185.967972,105.376595 195.343430,101.533432 205.591827,100.912628 
	C216.974625,100.223099 228.440872,98.626534 239.737564,99.391731 
	C253.165405,100.301277 265.226135,105.511032 273.520660,117.158241 
	C277.583374,122.863091 280.630157,129.271881 280.724487,136.009857 
	C281.146362,166.138351 280.907928,196.276108 280.907928,226.993073 
	C271.475555,226.993073 262.039978,227.136673 252.620056,226.817795 
	C251.393555,226.776276 249.960236,224.513718 249.120026,223.003281 
	C246.883713,218.983093 244.918976,214.811829 242.681427,210.373672 
	C238.622147,214.158981 235.493500,218.210876 231.398438,220.620239 
	C225.737518,223.950928 219.552231,227.472900 213.229645,228.374023 
	C199.521301,230.327774 185.503433,230.411728 174.156769,220.382538 
	C167.989929,214.931747 164.329956,207.606339 163.172958,199.453003 
	C162.453415,194.382294 162.865753,189.148514 162.802963,183.987518 
	C162.608902,168.035660 174.883881,157.386322 187.008774,153.027390 
	C200.081741,148.327637 213.675003,146.927994 227.973145,147.040985 
M221.273849,171.439453 
	C219.906448,171.950562 218.568619,172.568741 217.166977,172.955856 
	C205.744705,176.110565 204.265488,188.686615 209.110825,194.647293 
	C213.741119,200.343460 221.224197,200.089371 229.029434,195.715317 
	C238.035065,190.668564 238.621902,182.194092 238.395752,173.428543 
	C238.373749,172.576599 236.273163,171.121948 235.091522,171.073807 
	C230.779404,170.898117 226.447800,171.200180 221.273849,171.439453 
z"/>
<path fill="#030303" opacity="1.000000" stroke="none" 
	d="
M411.339722,160.840103 
	C409.080933,167.472839 406.982483,174.165756 404.522278,180.722916 
	C401.530853,188.695938 398.176910,196.532074 395.087128,204.469238 
	C392.220215,211.833801 389.494659,219.253372 386.638214,226.830811 
	C372.429260,226.830811 358.125336,226.830811 343.444641,226.830811 
	C327.580811,185.250748 311.661224,143.524536 295.590698,101.402687 
	C310.625519,101.402687 325.511597,101.402687 341.001648,101.402687 
	C348.686737,128.383316 356.472443,155.717117 364.471985,183.801758 
	C372.749481,156.230835 380.991638,128.777695 389.325714,101.018387 
	C398.943329,101.018387 408.587555,101.018387 418.714355,101.474991 
	C419.089569,102.749390 419.119507,103.614975 418.854034,104.377731 
	C415.536560,113.909660 412.634583,123.473961 412.676056,133.766724 
	C412.699585,139.608765 411.756683,145.449554 411.404877,151.300278 
	C411.214264,154.470062 411.350800,157.659515 411.339722,160.840103 
z"/>
<path fill="#36AFF6" opacity="1.000000" stroke="none" 
	d="
M748.644775,100.932388 
	C750.447205,106.840866 752.045288,112.563599 753.369873,118.348961 
	C754.704041,124.176323 756.206970,130.020126 756.822388,135.941299 
	C757.421265,141.702896 757.226074,147.582397 756.962219,153.391159 
	C756.356201,166.729630 753.384277,179.533798 747.690796,191.672745 
	C746.673889,193.840912 746.027283,196.182816 745.074463,198.808624 
	C743.660583,200.903229 742.382019,202.633713 740.556763,204.612061 
	C739.340149,203.324005 738.120605,201.801147 738.083801,200.250168 
	C737.622192,180.819122 737.125732,161.384628 737.068848,141.949738 
	C737.030029,128.676147 737.686890,115.401031 737.986816,102.125565 
	C738.073242,98.298729 737.775696,94.447540 738.125916,90.651039 
	C738.244568,89.365280 739.816528,88.213600 740.724243,87.000664 
	C743.256348,91.591827 745.788391,96.182976 748.644775,100.932388 
z"/>
<path fill="#0858B1" opacity="1.000000" stroke="none" 
	d="
M437.399078,218.978302 
	C437.224915,218.608307 437.050751,218.238327 436.888123,217.202057 
	C436.261505,216.026611 435.623260,215.517456 434.985046,215.008301 
	C434.985046,215.008301 435.001221,215.000610 434.972961,214.692322 
	C434.346039,213.902481 433.747345,213.420914 433.148682,212.939346 
	C433.148682,212.939346 433.036469,212.920288 433.018494,212.585480 
	C432.458405,211.827347 431.916290,211.404022 431.374207,210.980682 
	C428.691376,206.551422 426.008514,202.122162 423.684937,197.261627 
	C424.695892,195.454208 425.911621,194.080017 425.916412,192.701630 
	C426.024323,161.638336 426.037415,130.574402 425.883728,99.511497 
	C425.876251,98.007011 424.182861,96.510872 423.274567,95.010834 
	C427.221832,88.983696 431.180786,82.964157 435.105316,76.922256 
	C435.784729,75.876297 436.318573,74.735786 437.425415,73.301605 
	C438.319305,72.395309 438.707397,71.826378 439.095459,71.257431 
	C439.095459,71.257431 439.072968,71.091919 439.449951,71.042175 
	C440.245392,70.396385 440.663879,69.800339 441.082336,69.204285 
	C441.082336,69.204285 441.059387,69.076263 441.504456,69.175293 
	C442.300446,70.778633 442.929596,72.278389 442.954346,73.788055 
	C443.064728,80.518555 442.865631,87.256592 443.097534,93.980904 
	C443.156281,95.683571 444.389832,97.345734 445.068604,99.367264 
	C444.919769,100.130661 444.785858,100.553299 444.354645,101.020309 
	C443.702393,101.703491 443.347473,102.342285 443.007629,103.325348 
	C442.910400,104.106003 442.798065,104.542381 442.382355,105.026665 
	C441.724792,105.730354 441.370636,106.386131 441.033569,107.375626 
	C440.944244,108.133636 440.837830,108.557922 440.415710,109.037254 
	C439.757599,109.786964 439.415192,110.481628 439.108704,111.581200 
	C437.168793,119.617348 433.957092,127.178085 433.516815,134.896912 
	C432.908813,145.556122 434.390442,156.334549 434.965027,167.461975 
	C435.582886,169.577103 436.212830,171.292145 436.949188,173.321884 
	C437.041992,174.078400 437.028351,174.520203 436.996155,175.333038 
	C437.603149,176.804947 438.228638,177.905823 438.985413,179.294403 
	C439.098694,180.001617 439.080688,180.421143 439.057556,181.158432 
	C439.606781,181.988846 440.161072,182.501511 440.862854,183.316895 
	C441.011505,184.067886 441.012665,184.516159 440.997162,185.426682 
	C440.886230,190.487183 440.915924,195.092117 440.668884,199.682175 
	C440.288452,206.752121 439.718292,213.811859 439.228577,220.875931 
	C439.228577,220.875931 439.071045,220.876038 439.038391,220.527252 
	C438.470184,219.778427 437.934631,219.378357 437.399078,218.978302 
z"/>
<path fill="#034FAA" opacity="1.000000" stroke="none" 
	d="
M423.123535,95.306969 
	C424.182861,96.510872 425.876251,98.007011 425.883728,99.511497 
	C426.037415,130.574402 426.024323,161.638336 425.916412,192.701630 
	C425.911621,194.080017 424.695892,195.454208 423.675507,196.909241 
	C423.191772,196.559128 423.076721,196.130112 422.963135,195.058289 
	C422.415497,193.939285 421.866364,193.463089 421.317230,192.986893 
	C418.220642,182.389297 415.124084,171.791687 411.683594,161.017090 
	C411.350800,157.659515 411.214264,154.470062 411.404877,151.300278 
	C411.756683,145.449554 412.699585,139.608765 412.676056,133.766724 
	C412.634583,123.473961 415.536560,113.909660 418.854034,104.377731 
	C419.119507,103.614975 419.089569,102.749390 419.192169,101.527710 
	C419.783813,100.618004 420.380188,100.112198 421.435364,99.255478 
	C422.254211,98.246559 422.614258,97.588570 422.974304,96.930588 
	C422.973724,96.488098 422.973083,96.045593 423.123535,95.306969 
z"/>
<path fill="#34ACF5" opacity="1.000000" stroke="none" 
	d="
M740.722473,86.692795 
	C739.816528,88.213600 738.244568,89.365280 738.125916,90.651039 
	C737.775696,94.447540 738.073242,98.298729 737.986816,102.125565 
	C737.686890,115.401031 737.030029,128.676147 737.068848,141.949738 
	C737.125732,161.384628 737.622192,180.819122 738.083801,200.250168 
	C738.120605,201.801147 739.340149,203.324005 740.383484,204.927643 
	C740.386841,205.616837 740.016785,206.238281 739.059021,206.962097 
	C738.117371,207.324356 737.763428,207.584244 737.409546,207.844131 
	C737.802368,208.228134 738.195190,208.612122 738.588013,208.996094 
	C735.616638,212.940109 732.645325,216.884155 729.332153,220.426880 
	C728.993469,211.311310 728.963623,202.596863 729.019348,193.882950 
	C729.036743,191.163956 728.814819,188.812057 725.204651,188.639832 
	C727.455200,183.365997 730.509949,178.661057 731.826721,173.511719 
	C736.898560,153.677017 737.177551,133.867462 729.768677,114.383270 
	C728.637634,111.408707 727.837219,108.308403 726.917236,104.821701 
	C727.300476,95.263756 727.663818,86.150856 727.989685,77.036621 
	C728.061340,75.033234 727.655579,72.780350 730.843079,73.044205 
	C732.966187,75.992149 735.089233,78.940094 737.162598,82.608597 
	C737.744385,83.885300 738.376038,84.441444 739.007629,84.997604 
	C739.578613,85.460060 740.149597,85.922501 740.722473,86.692795 
z"/>
<path fill="#2E9EEA" opacity="1.000000" stroke="none" 
	d="
M714.946655,234.840179 
	C707.873108,239.549866 700.799438,244.259552 693.300415,248.537048 
	C692.583313,243.005386 692.384644,237.898026 691.953979,232.810318 
	C691.783020,230.791000 691.097961,228.815201 690.704468,226.454620 
	C696.919800,221.082123 703.077576,216.074615 709.523376,211.009048 
	C710.231750,210.359985 710.652161,209.768982 711.062744,209.109909 
	C711.053040,209.041855 711.190186,209.031876 711.552185,209.112289 
	C712.609497,211.240433 713.744263,213.251617 713.918152,215.342712 
	C714.457336,221.825531 714.631104,228.338760 714.946655,234.840179 
z"/>
<path fill="#1366B6" opacity="1.000000" stroke="none" 
	d="
M445.083496,99.026505 
	C444.389832,97.345734 443.156281,95.683571 443.097534,93.980904 
	C442.865631,87.256592 443.064728,80.518555 442.954346,73.788055 
	C442.929596,72.278389 442.300446,70.778633 441.569458,69.177643 
	C445.472534,65.016029 449.755737,60.951077 454.744202,56.890629 
	C455.963379,56.255184 456.477264,55.615238 456.991180,54.975288 
	C458.125275,53.856720 459.259338,52.738155 460.610168,51.868057 
	C460.906708,59.802921 460.941559,67.490532 461.149994,75.173439 
	C461.167023,75.801010 462.368286,76.396454 462.955688,77.358597 
	C458.781372,82.610901 454.666473,87.507904 450.561890,92.413567 
	C448.725037,94.608910 446.908966,96.821663 445.083496,99.026505 
z"/>
<path fill="#2893E1" opacity="1.000000" stroke="none" 
	d="
M690.646973,226.819580 
	C691.097961,228.815201 691.783020,230.791000 691.953979,232.810318 
	C692.384644,237.898026 692.583313,243.005386 692.925659,248.514923 
	C692.976257,248.924957 692.953918,248.984512 692.563965,248.972046 
	C691.114624,249.607330 690.055298,250.255066 688.995911,250.902802 
	C681.270081,253.577805 673.544189,256.252777 665.492981,258.523926 
	C666.430298,257.066925 668.822571,255.954330 668.770813,254.970291 
	C668.454224,248.949081 667.583496,242.957016 667.049316,236.613342 
	C673.752258,233.828262 680.303284,231.385086 687.178284,228.933136 
	C688.003723,228.334991 688.505066,227.745605 689.246094,226.988083 
	C689.872803,226.819824 690.259888,226.819702 690.646973,226.819580 
z"/>
<path fill="#0C64BD" opacity="1.000000" stroke="none" 
	d="
M585.049011,45.229153 
	C585.489868,45.158165 585.930664,45.087177 587.129639,45.025040 
	C591.773499,44.516373 593.455566,46.222805 593.000366,50.093903 
	C592.336914,55.736710 591.676941,61.379917 591.012573,67.012527 
	C591.009705,67.002098 591.023254,67.014847 590.706848,67.041473 
	C589.921875,67.669220 589.453247,68.270340 588.668518,68.981178 
	C587.215515,70.351669 586.078674,71.612434 584.576355,72.905281 
	C580.577454,75.670097 576.944031,78.402840 572.964539,80.868752 
	C572.412231,74.032349 572.166077,67.463646 572.022949,60.892696 
	C571.976807,58.774597 572.059448,56.759388 569.109558,56.673897 
	C574.467834,52.628666 579.758423,48.928909 585.049011,45.229153 
z"/>
<path fill="#2288D8" opacity="1.000000" stroke="none" 
	d="
M666.897400,236.955231 
	C667.583496,242.957016 668.454224,248.949081 668.770813,254.970291 
	C668.822571,255.954330 666.430298,257.066925 665.081055,258.472137 
	C658.634155,259.559540 652.273865,260.294891 645.455750,260.493164 
	C644.997925,253.852371 644.997925,247.748627 644.997925,241.023438 
	C642.231812,241.023438 640.082764,241.260437 638.015869,240.950165 
	C636.291260,240.691254 634.663025,239.791016 633.457520,239.111877 
	C642.216187,239.005310 650.509399,238.961685 659.223145,238.954407 
	C661.430847,238.365311 663.217957,237.739899 665.309326,237.007202 
	C666.041504,236.918335 666.469421,236.936783 666.897400,236.955231 
z"/>
<path fill="#33A7F0" opacity="1.000000" stroke="none" 
	d="
M715.291565,234.810394 
	C714.631104,228.338760 714.457336,221.825531 713.918152,215.342712 
	C713.744263,213.251617 712.609497,211.240433 711.590088,208.772919 
	C715.914124,201.903641 720.562317,195.454132 725.210571,189.004608 
	C728.814819,188.812057 729.036743,191.163956 729.019348,193.882950 
	C728.963623,202.596863 728.993469,211.311310 728.985596,220.490875 
	C728.980957,220.956177 728.993652,220.992188 728.658936,221.034912 
	C727.883606,221.721069 727.442993,222.364487 727.002319,223.007904 
	C723.213684,226.932144 719.425110,230.856369 715.291565,234.810394 
z"/>
<path fill="#146FC5" opacity="1.000000" stroke="none" 
	d="
M591.015503,67.022964 
	C591.676941,61.379917 592.336914,55.736710 593.000366,50.093903 
	C593.455566,46.222805 591.773499,44.516373 587.467346,45.025375 
	C590.702454,43.023994 594.297668,40.907825 598.033813,39.079735 
	C600.713623,37.768536 603.581970,36.842606 606.781372,35.994637 
	C607.800049,35.905708 608.403503,35.566936 609.006958,35.228165 
	C609.754578,35.128860 610.502197,35.029560 611.624878,35.455269 
	C612.330444,42.913609 612.660950,49.846939 612.683350,56.905830 
	C611.932495,57.026752 611.489746,57.022114 610.671997,57.004799 
	C609.197205,57.634289 608.097534,58.276451 606.728149,59.078911 
	C605.962769,59.817249 605.467041,60.395298 604.585205,60.959946 
	C603.154968,61.291965 602.058350,61.528561 601.076172,62.002506 
	C597.700928,63.631176 594.365906,65.342918 591.015503,67.022964 
z"/>
<path fill="#1A7DD0" opacity="1.000000" stroke="none" 
	d="
M632.992065,239.174820 
	C634.663025,239.791016 636.291260,240.691254 638.015869,240.950165 
	C640.082764,241.260437 642.231812,241.023438 644.997925,241.023438 
	C644.997925,247.748627 644.997925,253.852371 644.993896,260.416260 
	C637.770569,260.496735 630.551147,260.117065 623.162842,258.922272 
	C623.052246,251.682053 623.110657,245.256943 623.605896,238.754395 
	C627.025818,238.842911 630.008972,239.008865 632.992065,239.174820 
z"/>
<path fill="#33A7F0" opacity="1.000000" stroke="none" 
	d="
M730.810303,72.700455 
	C727.655579,72.780350 728.061340,75.033234 727.989685,77.036621 
	C727.663818,86.150856 727.300476,95.263756 726.558350,104.725296 
	C724.873718,102.957214 723.633606,100.806885 722.278564,98.731598 
	C719.270325,94.124443 716.204529,89.554909 713.545288,84.867355 
	C714.285461,83.084023 714.926392,81.407524 714.951172,79.721985 
	C715.061462,72.214630 714.995483,64.704681 714.993225,57.195671 
	C720.254639,62.249352 725.516052,67.303032 730.810303,72.700455 
z"/>
<path fill="#2EA0EB" opacity="1.000000" stroke="none" 
	d="
M714.719116,56.979134 
	C714.995483,64.704681 715.061462,72.214630 714.951172,79.721985 
	C714.926392,81.407524 714.285461,83.084023 713.488647,84.866501 
	C713.049133,84.968315 713.060242,84.855927 713.007446,84.560249 
	C712.364868,83.819153 711.775085,83.373734 711.119568,82.927963 
	C711.053833,82.927605 711.077820,82.798317 711.023315,82.518524 
	C710.413147,81.822563 709.857544,81.406395 709.059265,80.734741 
	C705.524780,77.373840 702.232910,74.268417 698.959106,70.684448 
	C699.034119,62.424835 699.091248,54.643764 699.148315,46.862694 
	C704.247192,50.162659 709.346069,53.462624 714.719116,56.979134 
z"/>
<path fill="#1062B5" opacity="1.000000" stroke="none" 
	d="
M439.327759,221.197327 
	C439.718292,213.811859 440.288452,206.752121 440.668884,199.682175 
	C440.915924,195.092117 440.886230,190.487183 441.334473,185.562363 
	C443.496704,189.059509 445.304962,192.883224 447.109680,197.053528 
	C447.731018,197.935593 448.355927,198.471100 449.307770,199.119934 
	C450.781372,201.097305 451.927979,202.961334 453.049683,205.304367 
	C453.013458,215.373886 453.002136,224.964417 452.990845,234.554932 
	C448.469543,230.209518 443.948273,225.864105 439.327759,221.197327 
z"/>
<path fill="#106BC2" opacity="1.000000" stroke="none" 
	d="
M604.998779,254.971680 
	C598.580994,252.318314 592.163208,249.664948 585.380371,246.620148 
	C584.993408,245.828934 584.971436,245.429138 585.350342,244.932190 
	C586.167480,243.343826 586.899292,241.862045 586.944153,240.359756 
	C587.117737,234.540161 587.072571,228.714035 587.479675,222.900970 
	C589.110657,223.528076 590.416992,224.066147 591.622925,224.774933 
	C596.127014,227.422195 600.598267,230.125412 605.313599,232.872818 
	C605.545349,232.938019 605.994873,233.110641 605.936890,233.518433 
	C605.585510,240.941391 605.292175,247.956528 604.998779,254.971680 
z"/>
<path fill="#42B0D3" opacity="1.000000" stroke="none" 
	d="
M584.655518,45.173431 
	C579.758423,48.928909 574.467834,52.628666 569.091919,56.670883 
	C569.006653,57.013340 569.018250,57.038105 568.692627,57.064438 
	C567.884766,57.716320 567.402588,58.341873 566.661987,59.156628 
	C565.612000,59.895405 564.820312,60.444981 563.701660,60.825882 
	C562.641724,60.127579 561.976257,59.436386 561.163879,59.096504 
	C557.781860,57.681625 554.355530,56.372540 551.371948,55.003067 
	C555.579529,55.423153 557.263367,53.950272 557.059570,49.949982 
	C556.807495,45.000397 556.994934,40.028423 556.992432,35.066120 
	C563.607117,37.359924 570.238892,39.605942 576.827698,41.971775 
	C579.356384,42.879734 581.786865,44.060989 584.655518,45.173431 
z"/>
<path fill="#39A3CE" opacity="1.000000" stroke="none" 
	d="
M556.696899,34.969635 
	C556.994934,40.028423 556.807495,45.000397 557.059570,49.949982 
	C557.263367,53.950272 555.579529,55.423153 550.938965,55.039459 
	C545.716187,54.351349 541.352844,53.605267 536.993286,52.399590 
	C537.326782,45.014717 537.656372,38.089443 537.985962,31.164169 
	C542.045715,31.790636 546.105530,32.417103 550.663940,33.482544 
	C552.496521,34.258045 553.830505,34.594578 555.164429,34.931107 
	C555.576782,34.911785 555.989075,34.892464 556.696899,34.969635 
z"/>
<path fill="#2790DF" opacity="1.000000" stroke="none" 
	d="
M681.004150,37.302086 
	C681.651245,37.642792 682.298340,37.983517 682.721191,38.908104 
	C682.330933,44.687363 682.045166,49.882889 682.050415,55.078114 
	C682.052917,57.608719 681.488586,59.230663 678.258057,59.225002 
	C671.912415,57.783436 665.936096,56.346889 659.994263,54.779972 
	C658.863342,54.481739 657.868408,53.667973 657.251160,53.053680 
	C662.759644,53.751049 664.504456,51.526699 664.079102,46.540089 
	C663.700134,42.096825 663.994873,37.596104 663.992310,33.120735 
	C668.769287,34.323547 673.546265,35.526360 678.697266,37.175339 
	C679.359619,37.949642 679.648071,38.277782 679.936523,38.605942 
	C680.292358,38.171341 680.648254,37.736721 681.004150,37.302086 
z"/>
<path fill="#349CCA" opacity="1.000000" stroke="none" 
	d="
M538.988464,260.807739 
	C534.960876,260.885040 530.933228,260.962372 526.451538,260.501038 
	C525.997498,253.848434 525.997498,247.734436 525.997498,242.375259 
	C523.129150,241.079971 521.059021,240.145126 519.454590,239.148605 
	C527.585815,239.045456 535.251221,239.003983 543.315063,239.067535 
	C544.142273,240.653351 544.893066,242.123657 544.941589,243.616760 
	C545.108887,248.766998 545.031189,253.925217 545.046814,259.080383 
	C545.046814,259.080383 545.032410,258.997131 544.650146,258.996307 
	C542.508057,259.599548 540.748291,260.203644 538.988464,260.807739 
z"/>
<path fill="#2997E5" opacity="1.000000" stroke="none" 
	d="
M678.639404,59.184742 
	C681.488586,59.230663 682.052917,57.608719 682.050415,55.078114 
	C682.045166,49.882889 682.330933,44.687363 682.815918,39.206726 
	C687.548828,40.855377 691.962646,42.789272 696.738708,45.231071 
	C697.787659,46.123287 698.474365,46.507595 699.161133,46.891899 
	C699.161133,46.891899 699.115234,46.909809 699.131775,46.886253 
	C699.091248,54.643764 699.034119,62.424835 698.595947,70.644989 
	C694.973083,69.098442 691.736633,67.104179 688.488220,65.129608 
	C685.211426,63.137802 681.922852,61.165558 678.639404,59.184742 
z"/>
<path fill="#2086D7" opacity="1.000000" stroke="none" 
	d="
M663.587891,33.031490 
	C663.994873,37.596104 663.700134,42.096825 664.079102,46.540089 
	C664.504456,51.526699 662.759644,53.751049 656.803772,53.114357 
	C651.607849,53.027950 647.299744,52.842472 643.090332,52.302464 
	C643.792603,50.159927 644.833740,48.391972 644.916748,46.580112 
	C645.151855,41.448997 644.994873,36.299904 644.992310,31.157894 
	C651.056030,31.752680 657.119690,32.347462 663.587891,33.031490 
z"/>
<path fill="#186FB9" opacity="1.000000" stroke="none" 
	d="
M463.019287,77.006828 
	C462.368286,76.396454 461.167023,75.801010 461.149994,75.173439 
	C460.941559,67.490532 460.906708,59.802921 460.901886,51.772438 
	C463.387482,50.005833 465.798096,48.583317 468.872955,47.051407 
	C470.028473,46.365410 470.519806,45.788803 471.011108,45.212196 
	C471.389526,45.087395 471.767975,44.962597 472.783356,44.877617 
	C473.949982,44.336597 474.479645,43.755760 475.009308,43.174919 
	C475.428986,43.056847 475.848633,42.938778 476.621124,43.297554 
	C476.977844,51.437794 476.981781,59.101192 476.722656,66.925690 
	C476.049774,67.088791 475.639923,67.090782 474.887817,67.094070 
	C474.028198,67.723938 473.510834,68.352516 472.891968,69.321983 
	C469.533447,72.110855 466.276367,74.558846 463.019287,77.006828 
z"/>
<path fill="#1573C9" opacity="1.000000" stroke="none" 
	d="
M605.319092,255.168915 
	C605.292175,247.956528 605.585510,240.941391 606.328247,233.470001 
	C610.850342,234.393356 614.923035,235.772934 619.078369,237.507797 
	C620.502930,238.196274 621.844666,238.529480 623.159180,238.873810 
	C623.131897,238.884933 623.169067,238.831818 623.169067,238.831818 
	C623.110657,245.256943 623.052246,251.682053 622.988892,258.579071 
	C617.202332,257.822693 611.420898,256.594421 605.319092,255.168915 
z"/>
<path fill="#207ABD" opacity="1.000000" stroke="none" 
	d="
M476.985687,66.764587 
	C476.981781,59.101192 476.977844,51.437794 476.953796,43.293266 
	C479.349518,41.519253 481.765381,40.226372 484.940887,38.973282 
	C486.802277,38.388161 487.904053,37.763245 489.005798,37.138332 
	C489.406464,37.042870 489.807129,36.947407 490.926270,36.993877 
	C492.096741,38.587013 492.901123,40.029182 492.938568,41.491009 
	C493.086090,47.248398 492.992554,53.011967 492.680969,58.896107 
	C491.932617,59.018932 491.491760,59.018894 490.745209,59.030556 
	C489.954987,59.592369 489.470490,60.142487 488.644257,60.846790 
	C484.530243,62.922176 480.757965,64.843376 476.985687,66.764587 
z"/>
<path fill="#3DA8D0" opacity="1.000000" stroke="none" 
	d="
M545.490967,259.136749 
	C545.031189,253.925217 545.108887,248.766998 544.941589,243.616760 
	C544.893066,242.123657 544.142273,240.653351 543.500732,238.738327 
	C548.432617,237.166061 553.577209,236.028030 559.051697,234.904953 
	C559.924988,234.363052 560.468445,233.806229 561.249878,233.156326 
	C561.656799,233.085480 561.825745,233.107697 561.996765,233.590378 
	C561.999878,238.653137 561.867188,243.260605 562.045593,247.856018 
	C562.179688,251.307281 562.102966,254.537903 558.991943,256.815704 
	C554.639709,257.608185 550.287415,258.400665 545.490967,259.136749 
z"/>
<path fill="#2685C1" opacity="1.000000" stroke="none" 
	d="
M498.696655,257.120789 
	C496.147858,256.700745 493.599030,256.280701 491.265137,255.194458 
	C491.317566,247.392548 491.155060,240.256836 491.386597,233.085297 
	C496.183838,234.444809 500.587067,235.840179 505.075378,237.581757 
	C506.475769,238.260788 507.791107,238.593597 509.086517,238.941284 
	C509.066620,238.956177 509.077148,238.904968 509.053589,239.378815 
	C509.002563,246.286606 508.975098,252.720566 508.947662,259.154510 
	C507.244965,259.099518 505.542267,259.044525 503.332794,258.537964 
	C501.449554,257.764557 500.073120,257.442657 498.696655,257.120789 
z"/>
<path fill="#1B7ED1" opacity="1.000000" stroke="none" 
	d="
M644.528564,31.090832 
	C644.994873,36.299904 645.151855,41.448997 644.916748,46.580112 
	C644.833740,48.391972 643.792603,50.159927 642.762573,52.373032 
	C641.893860,52.752388 641.451660,52.706646 640.909546,52.322716 
	C638.871826,52.258862 636.934021,52.533195 634.563965,52.882912 
	C632.088135,52.980934 630.044434,53.003574 628.000366,52.556477 
	C627.999329,47.501404 627.954346,42.915504 628.012573,38.330917 
	C628.057129,34.821033 626.892395,32.582756 622.908203,32.961853 
	C624.489746,32.347206 626.050293,31.274616 627.656555,31.201248 
	C633.117249,30.951832 638.594116,31.055155 644.528564,31.090832 
z"/>
<path fill="#2C8FC5" opacity="1.000000" stroke="none" 
	d="
M509.054382,259.536133 
	C508.975098,252.720566 509.002563,246.286606 509.497314,239.304138 
	C512.972717,238.907181 515.980774,239.058731 518.988892,239.210266 
	C521.059021,240.145126 523.129150,241.079971 525.997498,242.375259 
	C525.997498,247.734436 525.997498,253.848434 525.993896,260.422821 
	C520.380554,260.561401 514.770813,260.239563 509.054382,259.536133 
z"/>
<path fill="#2685C1" opacity="1.000000" stroke="none" 
	d="
M492.988464,58.773247 
	C492.992554,53.011967 493.086090,47.248398 492.938568,41.491009 
	C492.901123,40.029182 492.096741,38.587013 491.237701,37.032784 
	C493.186981,36.210182 495.543335,35.490608 498.698059,34.870224 
	C500.667175,34.382229 501.837860,33.795044 503.008545,33.207855 
	C504.708069,33.060623 506.407623,32.913387 508.545380,33.294514 
	C508.989441,36.633675 509.021423,39.444714 508.995148,42.255211 
	C508.952057,46.865353 510.245026,51.911541 504.613281,54.972961 
	C500.485138,56.305737 496.736816,57.539497 492.988464,58.773247 
z"/>
<path fill="#1877CB" opacity="1.000000" stroke="none" 
	d="
M622.504272,32.901089 
	C626.892395,32.582756 628.057129,34.821033 628.012573,38.330917 
	C627.954346,42.915504 627.999329,47.501404 627.799194,52.632187 
	C627.598389,53.177635 627.182312,53.069336 626.765503,53.040230 
	C624.564636,53.612976 622.780457,54.214828 620.617798,54.914581 
	C617.823364,55.601746 615.407410,56.191010 612.991455,56.780273 
	C612.660950,49.846939 612.330444,42.913609 611.999207,35.515259 
	C615.365723,34.313595 618.732971,33.576958 622.504272,32.901089 
z"/>
<path fill="#1A71BA" opacity="1.000000" stroke="none" 
	d="
M472.705078,247.115387 
	C469.684326,245.731400 466.663605,244.347412 463.425507,242.413147 
	C463.805725,240.071365 464.860840,238.294449 464.918518,236.485733 
	C465.125214,230.002075 464.994324,223.507629 465.349854,217.066376 
	C468.131805,219.098877 470.555023,221.082245 473.035767,223.395920 
	C473.796509,224.124222 474.499725,224.522232 475.553284,224.905777 
	C476.929993,225.612457 477.956329,226.333588 478.813416,227.433228 
	C478.429840,232.244080 478.314545,236.684250 477.964447,241.105835 
	C477.751648,243.793228 477.176392,246.451904 476.763947,249.123489 
	C476.356964,249.130905 475.950012,249.138306 475.211975,248.668900 
	C474.155670,247.833176 473.430359,247.474289 472.705078,247.115387 
z"/>
<path fill="#1569B7" opacity="1.000000" stroke="none" 
	d="
M464.991058,217.017273 
	C464.994324,223.507629 465.125214,230.002075 464.918518,236.485733 
	C464.860840,238.294449 463.805725,240.071365 463.106934,242.208115 
	C462.451416,242.133224 461.897125,241.713104 461.141235,240.748749 
	C460.304596,239.797211 459.669525,239.389893 459.034485,238.982574 
	C459.034485,238.982574 459.004120,239.004608 458.961426,238.660965 
	C458.246094,237.898590 457.573456,237.479858 456.900818,237.061127 
	C456.900818,237.061127 456.975800,237.011383 456.926331,236.702087 
	C456.154297,235.966949 455.431763,235.541092 454.709229,235.115234 
	C454.279297,235.091873 453.849396,235.068512 453.205139,234.800049 
	C453.002136,224.964417 453.013458,215.373886 453.406372,205.369370 
	C455.523529,206.975555 457.259003,208.995728 459.031219,211.334595 
	C459.696930,212.109604 460.325928,212.565933 460.977448,213.010986 
	C461.000000,212.999725 460.978027,213.045120 461.021790,213.362259 
	C461.702209,214.123779 462.338928,214.568161 462.988220,215.005707 
	C463.000824,214.998856 462.987732,215.024246 463.028320,215.343781 
	C463.706848,216.111893 464.344788,216.560455 464.990906,217.004288 
	C464.999054,216.999557 464.991058,217.017273 464.991058,217.017273 
z"/>
<path fill="#207ABD" opacity="1.000000" stroke="none" 
	d="
M476.834900,249.495682 
	C477.176392,246.451904 477.751648,243.793228 477.964447,241.105835 
	C478.314545,236.684250 478.429840,232.244080 479.183655,227.434143 
	C482.146759,228.425644 484.570343,229.794724 487.054871,231.489532 
	C487.831421,232.175644 488.546997,232.536026 489.559479,232.859680 
	C490.235107,232.922363 490.613831,233.021759 490.992584,233.121140 
	C491.155060,240.256836 491.317566,247.392548 491.159393,254.814972 
	C490.419678,255.111313 490.000580,255.120911 489.216125,254.650238 
	C487.544495,253.789032 486.238312,253.408066 484.932098,253.027100 
	C482.256683,251.974014 479.581299,250.920944 476.834900,249.495682 
z"/>
<path fill="#2C8FC5" opacity="1.000000" stroke="none" 
	d="
M504.993042,54.873947 
	C510.245026,51.911541 508.952057,46.865353 508.995148,42.255211 
	C509.021423,39.444714 508.989441,36.633675 508.969971,33.345192 
	C511.235016,32.245590 513.481934,31.407303 515.802002,31.066624 
	C517.851196,30.765720 519.981873,31.019611 522.537231,31.552475 
	C522.998596,38.380306 522.999268,44.684193 522.657471,51.000172 
	C521.539246,51.622456 520.763550,52.232651 519.545715,52.907379 
	C514.400024,53.605919 509.696533,54.239933 504.993042,54.873947 
z"/>
<path fill="#44B2D4" opacity="1.000000" stroke="none" 
	d="
M559.383301,256.862915 
	C562.102966,254.537903 562.179688,251.307281 562.045593,247.856018 
	C561.867188,243.260605 561.999878,238.653137 562.316528,233.410248 
	C562.832581,231.841751 563.030945,230.913879 563.483154,230.065598 
	C564.186523,230.425110 564.635986,230.705002 565.131348,231.303345 
	C565.780273,232.089172 566.383423,232.556564 566.992554,233.016296 
	C566.998596,233.008621 566.975708,233.015640 567.033142,233.361984 
	C571.684326,236.825531 576.278076,239.942734 580.943237,243.377274 
	C581.680542,244.082642 582.346558,244.470688 583.333984,244.903168 
	C584.086792,244.974838 584.518127,245.002090 584.949463,245.029343 
	C584.971436,245.429138 584.993408,245.828934 585.016968,246.528778 
	C579.606079,249.124634 574.217712,251.479675 568.771545,253.692505 
	C565.823486,254.890350 562.776855,255.845535 559.383301,256.862915 
z"/>
<path fill="#2E97C8" opacity="1.000000" stroke="none" 
	d="
M523.000000,50.988083 
	C522.999268,44.684193 522.998596,38.380306 522.996094,31.618994 
	C527.683716,31.121187 532.373230,31.080801 537.524292,31.102291 
	C537.656372,38.089443 537.326782,45.014717 536.665100,52.448021 
	C535.893860,52.917850 535.454712,52.879650 534.903687,52.463978 
	C530.861206,51.720367 526.930603,51.354225 523.000000,50.988083 
z"/>
<path fill="#3DA8D0" opacity="1.000000" stroke="none" 
	d="
M539.388672,260.863495 
	C540.748291,260.203644 542.508057,259.599548 544.678101,259.028046 
	C543.321838,259.680145 541.555359,260.299713 539.388672,260.863495 
z"/>
<path fill="#2C8FC5" opacity="1.000000" stroke="none" 
	d="
M502.637665,33.156929 
	C501.837860,33.795044 500.667175,34.382229 499.109924,34.929306 
	C499.904510,34.294796 501.085663,33.700401 502.637665,33.156929 
z"/>
<path fill="#2685C1" opacity="1.000000" stroke="none" 
	d="
M488.645081,37.099678 
	C487.904053,37.763245 486.802277,38.388161 485.328674,38.997898 
	C486.066040,38.342155 487.175201,37.701591 488.645081,37.099678 
z"/>
<path fill="#42B0D3" opacity="1.000000" stroke="none" 
	d="
M555.034058,34.595673 
	C553.830505,34.594578 552.496521,34.258045 551.075439,33.572388 
	C552.293457,33.568924 553.598572,33.914581 555.034058,34.595673 
z"/>
<path fill="#2E9EEA" opacity="1.000000" stroke="none" 
	d="
M689.349915,250.926025 
	C690.055298,250.255066 691.114624,249.607330 692.537354,248.954620 
	C691.835144,249.616165 690.769531,250.282700 689.349915,250.926025 
z"/>
<path fill="#2685C1" opacity="1.000000" stroke="none" 
	d="
M485.076843,253.351562 
	C486.238312,253.408066 487.544495,253.789032 488.927795,254.522003 
	C487.743805,254.474670 486.482697,254.075333 485.076843,253.351562 
z"/>
<path fill="#2C8FC5" opacity="1.000000" stroke="none" 
	d="
M498.831909,257.466064 
	C500.073120,257.442657 501.449554,257.764557 502.916626,258.444275 
	C501.660583,258.471863 500.313873,258.141602 498.831909,257.466064 
z"/>
<path fill="#2EA0EB" opacity="1.000000" stroke="none" 
	d="
M699.118774,46.553242 
	C698.474365,46.507595 697.787659,46.123287 697.048950,45.415966 
	C697.690186,45.466831 698.383301,45.840706 699.118774,46.553242 
z"/>
<path fill="#34ACF5" opacity="1.000000" stroke="none" 
	d="
M727.327759,222.953491 
	C727.442993,222.364487 727.883606,221.721069 728.641846,221.029160 
	C728.523926,221.620148 728.088501,222.259628 727.327759,222.953491 
z"/>
<path fill="#186FB9" opacity="1.000000" stroke="none" 
	d="
M456.638000,54.991318 
	C456.477264,55.615238 455.963379,56.255184 455.104309,56.900352 
	C455.267700,56.272827 455.776276,55.640087 456.638000,54.991318 
z"/>
<path fill="#1A71BA" opacity="1.000000" stroke="none" 
	d="
M454.761108,235.468948 
	C455.431763,235.541092 456.154297,235.966949 456.910400,236.744171 
	C456.233673,236.671249 455.523346,236.246964 454.761108,235.468948 
z"/>
<path fill="#1A71BA" opacity="1.000000" stroke="none" 
	d="
M456.957245,237.397110 
	C457.573456,237.479858 458.246094,237.898590 458.966888,238.643250 
	C458.347931,238.557144 457.680786,238.145111 456.957245,237.397110 
z"/>
<path fill="#207ABD" opacity="1.000000" stroke="none" 
	d="
M470.685974,45.202881 
	C470.519806,45.788803 470.028473,46.365410 469.220459,46.952042 
	C469.389465,46.372566 469.875153,45.783066 470.685974,45.202881 
z"/>
<path fill="#207ABD" opacity="1.000000" stroke="none" 
	d="
M474.667053,43.149754 
	C474.479645,43.755760 473.949982,44.336597 473.088989,44.910034 
	C473.280029,44.309952 473.802429,43.717266 474.667053,43.149754 
z"/>
<path fill="#1A71BA" opacity="1.000000" stroke="none" 
	d="
M459.113983,239.292664 
	C459.669525,239.389893 460.304596,239.797211 460.997437,240.507812 
	C460.434662,240.408325 459.814087,240.005539 459.113983,239.292664 
z"/>
<path fill="#2997E5" opacity="1.000000" stroke="none" 
	d="
M680.687134,37.169067 
	C680.648254,37.736721 680.292358,38.171341 679.936523,38.605942 
	C679.648071,38.277782 679.359619,37.949642 679.035156,37.339367 
	C679.456116,37.050167 679.913147,37.043102 680.687134,37.169067 
z"/>
<path fill="#207ABD" opacity="1.000000" stroke="none" 
	d="
M472.769104,247.458923 
	C473.430359,247.474289 474.155670,247.833176 474.943298,248.521179 
	C474.281494,248.500992 473.557312,248.151733 472.769104,247.458923 
z"/>
<path fill="#1877CB" opacity="1.000000" stroke="none" 
	d="
M608.631714,35.189445 
	C608.403503,35.566936 607.800049,35.905708 607.106079,36.038963 
	C607.429260,35.605869 607.842896,35.378300 608.631714,35.189445 
z"/>
<path fill="#1366B6" opacity="1.000000" stroke="none" 
	d="
M438.841766,71.355095 
	C438.707397,71.826378 438.319305,72.395309 437.652222,72.995514 
	C437.778137,72.502098 438.183105,71.977425 438.841766,71.355095 
z"/>
<path fill="#0858B1" opacity="1.000000" stroke="none" 
	d="
M422.681335,97.043289 
	C422.614258,97.588570 422.254211,98.246559 421.590820,98.957886 
	C421.654419,98.392815 422.021393,97.774399 422.681335,97.043289 
z"/>
<path fill="#36AFF6" opacity="1.000000" stroke="none" 
	d="
M739.000610,84.642136 
	C738.376038,84.441444 737.744385,83.885300 737.123230,82.969971 
	C737.753662,83.169411 738.373657,83.728050 739.000610,84.642136 
z"/>
<path fill="#0858B1" opacity="1.000000" stroke="none" 
	d="
M421.328796,193.290527 
	C421.866364,193.463089 422.415497,193.939285 422.978699,194.718307 
	C422.441956,194.545486 421.891174,194.069824 421.328796,193.290527 
z"/>
<path fill="#36AFF6" opacity="1.000000" stroke="none" 
	d="
M738.766968,208.697937 
	C738.195190,208.612122 737.802368,208.228134 737.409546,207.844131 
	C737.763428,207.584244 738.117371,207.324356 738.756226,207.039154 
	C739.009460,207.475800 738.977722,207.937775 738.766968,208.697937 
z"/>
<path fill="#1366B6" opacity="1.000000" stroke="none" 
	d="
M440.796143,69.293152 
	C440.663879,69.800339 440.245392,70.396385 439.533447,71.040955 
	C439.663300,70.520309 440.086639,69.951157 440.796143,69.293152 
z"/>
<path fill="#1062B5" opacity="1.000000" stroke="none" 
	d="
M431.445618,211.244415 
	C431.916290,211.404022 432.458405,211.827347 433.038696,212.532272 
	C432.556946,212.378632 432.036987,211.943390 431.445618,211.244415 
z"/>
<path fill="#1062B5" opacity="1.000000" stroke="none" 
	d="
M433.166534,213.268921 
	C433.747345,213.420914 434.346039,213.902481 434.967712,214.700287 
	C434.388580,214.543854 433.786499,214.071167 433.166534,213.268921 
z"/>
<path fill="#1062B5" opacity="1.000000" stroke="none" 
	d="
M434.999359,215.361786 
	C435.623260,215.517456 436.261505,216.026611 436.905609,216.878998 
	C436.278900,216.719910 435.646301,216.217590 434.999359,215.361786 
z"/>
<path fill="#1062B5" opacity="1.000000" stroke="none" 
	d="
M437.493530,219.222351 
	C437.934631,219.378357 438.470184,219.778427 439.051819,220.449646 
	C438.594574,220.302673 438.091278,219.884537 437.493530,219.222351 
z"/>
<path fill="#F4F4F4" opacity="1.000000" stroke="none" 
	d="
M61.134686,118.996399 
	C61.134922,112.683144 61.035152,106.865738 61.215832,101.057053 
	C61.254120,99.826180 62.016685,97.931496 62.956081,97.526321 
	C69.075989,94.886726 85.523964,99.488129 89.739670,104.969810 
	C93.422447,109.758545 93.648605,115.129974 92.036926,120.835045 
	C88.893456,131.962387 80.417755,134.684052 70.309250,134.956543 
	C67.497818,135.032333 64.682610,134.968124 61.134686,134.968124 
	C61.134686,129.643417 61.134686,124.569382 61.134686,118.996399 
z"/>
<path fill="#F6F6F6" opacity="1.000000" stroke="none" 
	d="
M221.698700,171.380844 
	C226.447800,171.200180 230.779404,170.898117 235.091522,171.073807 
	C236.273163,171.121948 238.373749,172.576599 238.395752,173.428543 
	C238.621902,182.194092 238.035065,190.668564 229.029434,195.715317 
	C221.224197,200.089371 213.741119,200.343460 209.110825,194.647293 
	C204.265488,188.686615 205.744705,176.110565 217.166977,172.955856 
	C218.568619,172.568741 219.906448,171.950562 221.698700,171.380844 
z"/>
<path fill="#FDFEFF" opacity="1.000000" stroke="none" 
	d="
M535.015564,52.841446 
	C535.454712,52.879650 535.893860,52.917850 536.661255,52.907619 
	C541.352844,53.605267 545.716187,54.351349 550.512573,55.061035 
	C554.355530,56.372540 557.781860,57.681625 561.163879,59.096504 
	C561.976257,59.436386 562.641724,60.127579 563.643616,61.201645 
	C559.668579,66.179024 555.424622,70.611961 550.910522,75.235825 
	C550.069031,76.555122 549.497742,77.683495 548.584961,78.874374 
	C547.789551,79.609367 547.335571,80.281853 546.565735,81.110443 
	C545.869995,81.979355 545.475037,82.684570 545.112549,83.406128 
	C540.493591,92.600487 534.822571,101.438805 531.549377,111.090118 
	C527.997986,121.561569 525.973999,132.661331 526.903442,144.030441 
	C527.430969,150.483551 526.407837,157.158875 527.619141,163.437805 
	C529.350952,172.414658 531.818481,181.390289 535.228943,189.860214 
	C538.217651,197.282562 542.939392,204.007065 546.967346,211.374420 
	C547.665649,212.182526 548.292175,212.656021 548.944092,213.087494 
	C548.969482,213.045441 548.875854,213.075256 548.890198,213.440704 
	C549.555359,214.334030 550.206116,214.861908 550.797791,215.733368 
	C551.496521,217.037964 552.254333,217.998993 553.043701,219.323029 
	C556.459900,223.119354 559.844604,226.552673 563.229370,229.985992 
	C563.030945,230.913879 562.832581,231.841751 562.314392,232.949768 
	C561.825745,233.107697 561.656799,233.085480 560.921265,233.131226 
	C559.810303,233.762787 559.266052,234.326385 558.721802,234.889999 
	C553.577209,236.028030 548.432617,237.166061 543.102356,238.633301 
	C535.251221,239.003983 527.585815,239.045456 519.454590,239.148590 
	C515.980774,239.058731 512.972717,238.907181 509.520874,238.830292 
	C509.077148,238.904968 509.066620,238.956177 508.951324,238.620850 
	C507.554138,237.935532 506.272217,237.585541 504.990326,237.235550 
	C500.587067,235.840179 496.183838,234.444809 491.386597,233.085297 
	C490.613831,233.021759 490.235107,232.922363 489.488922,232.523987 
	C488.412292,231.871246 487.703125,231.517532 486.993927,231.163818 
	C484.570343,229.794724 482.146759,228.425644 479.352905,227.055634 
	C477.956329,226.333588 476.929993,225.612457 475.487213,224.566223 
	C474.373260,223.849319 473.675720,223.457474 472.978210,223.065628 
	C470.555023,221.082245 468.131805,219.098877 465.349854,217.066376 
	C464.991058,217.017273 464.999054,216.999557 464.944336,216.673401 
	C464.255646,215.906250 463.621674,215.465256 462.987732,215.024246 
	C462.987732,215.024246 463.000824,214.998856 462.938171,214.678070 
	C462.243011,213.919907 461.610535,213.482513 460.978027,213.045120 
	C460.978027,213.045120 461.000000,212.999725 460.925415,212.685059 
	C460.232086,211.918900 459.613281,211.467407 458.994507,211.015915 
	C457.259003,208.995728 455.523529,206.975555 453.431305,204.890366 
	C451.927979,202.961334 450.781372,201.097305 449.297363,198.764771 
	C448.344391,197.766495 447.728821,197.236710 447.113220,196.706940 
	C445.304962,192.883224 443.496704,189.059509 441.351135,185.100128 
	C441.012665,184.516159 441.011505,184.067886 440.868256,182.997772 
	C440.171692,181.864182 439.617188,181.352432 439.062683,180.840683 
	C439.080688,180.421143 439.098694,180.001617 439.026245,178.936005 
	C438.295410,177.180618 437.655060,176.071320 437.014679,174.962021 
	C437.028351,174.520203 437.041992,174.078400 436.999390,172.937195 
	C436.287842,170.512512 435.632477,168.787216 434.977112,167.061905 
	C434.390442,156.334549 432.908813,145.556122 433.516815,134.896912 
	C433.957092,127.178085 437.168793,119.617348 439.417145,111.483109 
	C440.036926,110.314133 440.384186,109.648170 440.731415,108.982208 
	C440.837830,108.557922 440.944244,108.133636 441.313751,107.251442 
	C441.946503,106.188614 442.316101,105.583687 442.685730,104.978760 
	C442.798065,104.542381 442.910400,104.106003 443.264008,103.180984 
	C443.887512,102.120209 444.269714,101.548065 444.651947,100.975937 
	C444.785858,100.553299 444.919769,100.130661 445.068604,99.367264 
	C446.908966,96.821663 448.725037,94.608910 450.561890,92.413567 
	C454.666473,87.507904 458.781372,82.610901 462.955688,77.358597 
	C466.276367,74.558846 469.533447,72.110855 473.240234,69.305420 
	C474.203369,68.329567 474.716705,67.711174 475.230072,67.092773 
	C475.639923,67.090782 476.049774,67.088791 476.722656,66.925690 
	C480.757965,64.843376 484.530243,62.922176 488.950104,60.838760 
	C490.082092,60.123989 490.566528,59.571430 491.050964,59.018864 
	C491.491760,59.018894 491.932617,59.018932 492.680969,58.896111 
	C496.736816,57.539497 500.485138,56.305737 504.613281,54.972961 
	C509.696533,54.239933 514.400024,53.605919 520.008057,52.972687 
	C525.613525,52.929459 530.314575,52.885452 535.015564,52.841446 
z"/>
<path fill="#1062B5" opacity="1.000000" stroke="none" 
	d="
M434.965027,167.461975 
	C435.632477,168.787216 436.287842,170.512512 436.892944,172.622498 
	C436.212830,171.292145 435.582886,169.577103 434.965027,167.461975 
z"/>
<path fill="#1062B5" opacity="1.000000" stroke="none" 
	d="
M436.996155,175.333038 
	C437.655060,176.071320 438.295410,177.180618 438.894958,178.648315 
	C438.228638,177.905823 437.603149,176.804947 436.996155,175.333038 
z"/>
<path fill="#1366B6" opacity="1.000000" stroke="none" 
	d="
M440.415710,109.037262 
	C440.384186,109.648170 440.036926,110.314133 439.381226,111.078186 
	C439.415192,110.481628 439.757599,109.786964 440.415710,109.037262 
z"/>
<path fill="#1366B6" opacity="1.000000" stroke="none" 
	d="
M444.354645,101.020309 
	C444.269714,101.548065 443.887512,102.120209 443.248932,102.836716 
	C443.347473,102.342285 443.702393,101.703491 444.354645,101.020309 
z"/>
<path fill="#1062B5" opacity="1.000000" stroke="none" 
	d="
M439.057556,181.158432 
	C439.617188,181.352432 440.171692,181.864182 440.720764,182.695068 
	C440.161072,182.501511 439.606781,181.988846 439.057556,181.158432 
z"/>
<path fill="#1366B6" opacity="1.000000" stroke="none" 
	d="
M442.382355,105.026665 
	C442.316101,105.583687 441.946503,106.188614 441.296692,106.917725 
	C441.370636,106.386131 441.724792,105.730354 442.382355,105.026665 
z"/>
<path fill="#FDFEFF" opacity="1.000000" stroke="none" 
	d="
M612.683350,56.905830 
	C615.407410,56.191010 617.823364,55.601746 621.016968,54.964684 
	C623.590515,54.301033 625.386414,53.685192 627.182312,53.069344 
	C627.182312,53.069336 627.598389,53.177635 627.799561,53.101925 
	C630.044434,53.003574 632.088135,52.980934 634.990601,52.950439 
	C637.569397,52.848694 639.289368,52.754799 641.009399,52.660904 
	C641.451660,52.706646 641.893860,52.752388 642.663879,52.727562 
	C647.299744,52.842472 651.607849,53.027950 656.363342,53.152748 
	C657.868408,53.667973 658.863342,54.481739 659.994263,54.779972 
	C665.936096,56.346889 671.912415,57.783436 678.258057,59.225006 
	C681.922852,61.165558 685.211426,63.137802 688.488220,65.129608 
	C691.736633,67.104179 694.973083,69.098442 698.577942,71.123528 
	C702.232910,74.268417 705.524780,77.373840 709.098022,81.024582 
	C709.945618,81.979378 710.511719,82.388863 711.077820,82.798325 
	C711.077820,82.798317 711.053833,82.927605 711.162964,83.238434 
	C711.868164,83.984825 712.464172,84.420380 713.060242,84.855927 
	C713.060242,84.855927 713.049133,84.968315 713.105713,84.969170 
	C716.204529,89.554909 719.270325,94.124443 722.278564,98.731598 
	C723.633606,100.806885 724.873718,102.957214 726.524963,105.169868 
	C727.837219,108.308403 728.637634,111.408707 729.768677,114.383270 
	C737.177551,133.867462 736.898560,153.677017 731.826721,173.511719 
	C730.509949,178.661057 727.455200,183.365997 725.204712,188.639847 
	C720.562317,195.454132 715.914124,201.903641 711.228027,208.692505 
	C711.190186,209.031876 711.053040,209.041855 710.767212,209.180511 
	C710.066040,209.901794 709.650696,210.484436 709.235352,211.067093 
	C703.077576,216.074615 696.919800,221.082123 690.704468,226.454605 
	C690.259888,226.819702 689.872803,226.819824 688.915405,226.983582 
	C687.848206,227.745422 687.351196,228.343658 686.854248,228.941895 
	C680.303284,231.385086 673.752258,233.828262 667.049316,236.613342 
	C666.469421,236.936783 666.041504,236.918335 664.910034,236.962540 
	C662.405212,237.656158 660.603943,238.287125 658.802673,238.918076 
	C650.509399,238.961685 642.216187,239.005310 633.457520,239.111877 
	C630.008972,239.008865 627.025818,238.842911 623.605896,238.754395 
	C623.169067,238.831818 623.131897,238.884933 623.070190,238.519958 
	C621.670837,237.820816 620.333252,237.486664 618.995667,237.152527 
	C614.923035,235.772934 610.850342,234.393356 606.386292,233.062210 
	C605.994873,233.110641 605.545349,232.938019 605.319824,232.522827 
	C605.774231,230.517624 606.454224,228.927597 607.483154,227.264069 
	C612.246826,221.853271 616.661560,216.515991 621.428589,211.100952 
	C624.889954,205.108231 627.998962,199.193314 631.433044,193.193130 
	C632.197998,192.414688 632.638000,191.721512 633.377075,190.826202 
	C633.821838,189.430695 633.967407,188.237335 634.413574,186.823669 
	C636.146912,181.986328 637.977295,177.450623 638.940979,172.737701 
	C642.437378,155.637192 642.286072,138.468765 639.078979,121.326935 
	C638.362244,117.495743 637.720947,113.621033 636.580994,109.908783 
	C635.825195,107.447403 634.243591,105.239601 633.047852,102.594177 
	C632.982422,101.848228 632.900635,101.426392 632.838074,100.674774 
	C632.267517,99.821594 631.677673,99.298203 631.101440,98.395218 
	C627.765930,92.290237 624.416870,86.564842 621.041382,80.486702 
	C616.388733,74.974777 611.762512,69.815613 607.123962,64.325752 
	C606.398254,62.987827 605.684753,61.980591 604.971313,60.973347 
	C605.467041,60.395298 605.962769,59.817249 607.092590,59.111938 
	C608.833435,58.328934 609.940247,57.673199 611.046997,57.017467 
	C611.489746,57.022114 611.932495,57.026752 612.683350,56.905830 
z"/>
<path fill="#33A7F0" opacity="1.000000" stroke="none" 
	d="
M709.523376,211.009033 
	C709.650696,210.484436 710.066040,209.901794 710.776978,209.248566 
	C710.652161,209.768982 710.231750,210.359985 709.523376,211.009033 
z"/>
<path fill="#2E9EEA" opacity="1.000000" stroke="none" 
	d="
M687.178284,228.933136 
	C687.351196,228.343658 687.848206,227.745422 688.675781,227.151703 
	C688.505066,227.745605 688.003723,228.334991 687.178284,228.933136 
z"/>
<path fill="#FCFEFE" opacity="1.000000" stroke="none" 
	d="
M573.310608,81.135590 
	C576.944031,78.402840 580.577454,75.670097 584.884644,73.064865 
	C592.110840,80.437584 598.663147,87.682800 605.227112,95.278427 
	C611.306335,103.095078 614.067505,112.078094 616.938477,121.432129 
	C619.643799,131.858704 621.690918,142.026901 620.698242,152.420074 
	C620.101196,158.670700 618.409363,164.816742 617.100952,171.389694 
	C615.187256,181.182144 610.269470,189.156143 605.140564,197.433716 
	C598.820496,204.677704 592.688660,211.627502 586.401611,218.433990 
	C585.791016,219.095093 584.221802,218.870712 582.780029,218.904129 
	C578.770935,215.445953 575.079468,212.141037 571.359131,208.467682 
	C566.457581,200.398331 561.584900,192.697403 556.703186,184.622559 
	C554.137939,175.604111 549.950317,167.059952 549.410828,158.291336 
	C548.617126,145.392365 550.426819,132.333206 551.453369,119.253235 
	C552.099121,118.439934 552.419006,117.715683 552.869995,116.687202 
	C553.394348,115.251724 553.787537,114.120483 554.481445,112.750854 
	C554.792969,112.006218 554.803833,111.499969 554.945618,110.699394 
	C555.067261,109.976761 555.058044,109.548470 555.403564,109.003662 
	C557.205933,106.162476 558.462891,103.313782 560.138489,100.737373 
	C564.429871,94.138878 568.907471,87.661446 573.310608,81.135590 
z"/>
<path fill="#0A5CB7" opacity="1.000000" stroke="none" 
	d="
M572.964539,80.868767 
	C568.907471,87.661446 564.429871,94.138878 560.138489,100.737373 
	C558.462891,103.313782 557.205933,106.162476 555.381104,108.527237 
	C555.002563,98.449509 554.918152,88.730568 555.050476,79.014580 
	C555.089966,76.108360 554.324585,74.567726 551.180725,75.044891 
	C555.424622,70.611961 559.668579,66.179024 563.970581,61.370323 
	C564.820312,60.444981 565.612000,59.895405 566.990356,59.131916 
	C568.057434,58.291363 568.537842,57.664726 569.018250,57.038097 
	C569.018250,57.038105 569.006653,57.013340 569.024292,57.016357 
	C572.059448,56.759388 571.976807,58.774597 572.022949,60.892696 
	C572.166077,67.463646 572.412231,74.032349 572.964539,80.868767 
z"/>
<path fill="#4CC5DB" opacity="1.000000" stroke="none" 
	d="
M605.215454,94.927994 
	C598.663147,87.682800 592.110840,80.437584 585.250122,73.032791 
	C586.078674,71.612434 587.215515,70.351669 588.988831,68.973610 
	C590.091309,68.242493 590.557251,67.628670 591.023254,67.014847 
	C591.023254,67.014847 591.009705,67.002098 591.012573,67.012535 
	C594.365906,65.342918 597.700928,63.631176 601.076172,62.002506 
	C602.058350,61.528561 603.154968,61.291965 604.585205,60.959949 
	C605.684753,61.980591 606.398254,62.987827 607.082214,64.821815 
	C607.035156,73.637245 607.122314,81.628593 606.919250,89.612549 
	C606.873840,91.397652 605.810303,93.156853 605.215454,94.927994 
z"/>
<path fill="#146FC5" opacity="1.000000" stroke="none" 
	d="
M590.706848,67.041473 
	C590.557251,67.628670 590.091309,68.242493 589.304993,68.863884 
	C589.453247,68.270340 589.921875,67.669220 590.706848,67.041473 
z"/>
<path fill="#2893E1" opacity="1.000000" stroke="none" 
	d="
M659.223145,238.954407 
	C660.603943,238.287125 662.405212,237.656158 664.605835,237.069855 
	C663.217957,237.739899 661.430847,238.365311 659.223145,238.954407 
z"/>
<path fill="#1877CB" opacity="1.000000" stroke="none" 
	d="
M610.671997,57.004791 
	C609.940247,57.673199 608.833435,58.328934 607.362305,58.951645 
	C608.097534,58.276451 609.197205,57.634289 610.671997,57.004791 
z"/>
<path fill="#33A7F0" opacity="1.000000" stroke="none" 
	d="
M713.007446,84.560257 
	C712.464172,84.420380 711.868164,83.984825 711.228699,83.238785 
	C711.775085,83.373734 712.364868,83.819153 713.007446,84.560257 
z"/>
<path fill="#33A7F0" opacity="1.000000" stroke="none" 
	d="
M711.023315,82.518539 
	C710.511719,82.388863 709.945618,81.979378 709.340698,81.280060 
	C709.857544,81.406395 710.413147,81.822563 711.023315,82.518539 
z"/>
<path fill="#1569B7" opacity="1.000000" stroke="none" 
	d="
M447.109680,197.053528 
	C447.728821,197.236710 448.344391,197.766495 448.970398,198.651428 
	C448.355927,198.471100 447.731018,197.935593 447.109680,197.053528 
z"/>
<path fill="#0B62BC" opacity="1.000000" stroke="none" 
	d="
M571.387939,208.836121 
	C575.079468,212.141037 578.770935,215.445953 582.823303,219.207184 
	C583.788757,220.118759 584.393311,220.574036 585.044312,221.352890 
	C585.758423,222.094254 586.426147,222.512039 587.088745,222.925903 
	C587.083618,222.921967 587.108887,222.890350 587.108887,222.890350 
	C587.072571,228.714035 587.117737,234.540161 586.944153,240.359756 
	C586.899292,241.862045 586.167480,243.343826 585.350342,244.932190 
	C584.518127,245.002090 584.086792,244.974838 583.276489,244.590759 
	C582.222412,243.842590 581.547119,243.451263 580.871887,243.059937 
	C576.278076,239.942734 571.684326,236.825531 567.450867,233.339539 
	C568.540466,231.745499 569.843567,230.545685 569.899231,229.290573 
	C570.134949,223.974014 569.900208,218.637924 570.063965,213.315948 
	C570.110291,211.810516 570.925415,210.328735 571.387939,208.836121 
z"/>
<path fill="#4CC5DB" opacity="1.000000" stroke="none" 
	d="
M584.997925,221.029312 
	C584.393311,220.574036 583.788757,220.118759 583.140869,219.360428 
	C584.221802,218.870712 585.791016,219.095093 586.401611,218.433990 
	C592.688660,211.627502 598.820496,204.677704 605.449463,197.647980 
	C606.268860,199.234741 606.919800,200.936081 606.951538,202.648926 
	C607.104065,210.876770 607.089417,219.107712 607.134155,227.337555 
	C606.454224,228.927597 605.774231,230.517624 605.088013,232.457642 
	C600.598267,230.125412 596.127014,227.422195 591.622925,224.774933 
	C590.416992,224.066147 589.110657,223.528076 587.479675,222.900970 
	C587.108887,222.890350 587.083618,222.921967 587.044128,222.598602 
	C586.335754,221.859924 585.666809,221.444626 584.997925,221.029312 
z"/>
<path fill="#0C64BD" opacity="1.000000" stroke="none" 
	d="
M568.692627,57.064430 
	C568.537842,57.664726 568.057434,58.291363 567.248718,58.942715 
	C567.402588,58.341873 567.884766,57.716320 568.692627,57.064430 
z"/>
<path fill="#207ABD" opacity="1.000000" stroke="none" 
	d="
M474.887817,67.094070 
	C474.716705,67.711174 474.203369,68.329567 473.341736,68.964523 
	C473.510834,68.352516 474.028198,67.723938 474.887817,67.094070 
z"/>
<path fill="#1A7DD0" opacity="1.000000" stroke="none" 
	d="
M619.078369,237.507797 
	C620.333252,237.486664 621.670837,237.820816 623.097412,238.508820 
	C621.844666,238.529480 620.502930,238.196274 619.078369,237.507797 
z"/>
<path fill="#2685C1" opacity="1.000000" stroke="none" 
	d="
M490.745239,59.030563 
	C490.566528,59.571430 490.082092,60.123989 489.291809,60.684578 
	C489.470490,60.142487 489.954987,59.592369 490.745239,59.030563 
z"/>
<path fill="#44B2D4" opacity="1.000000" stroke="none" 
	d="
M559.051697,234.904938 
	C559.266052,234.326385 559.810303,233.762787 560.683228,233.224289 
	C560.468445,233.806229 559.924988,234.363052 559.051697,234.904938 
z"/>
<path fill="#2C8FC5" opacity="1.000000" stroke="none" 
	d="
M505.075378,237.581757 
	C506.272217,237.585541 507.554138,237.935532 508.971222,238.605972 
	C507.791107,238.593597 506.475769,238.260788 505.075378,237.581757 
z"/>
<path fill="#2086D7" opacity="1.000000" stroke="none" 
	d="
M640.909546,52.322712 
	C639.289368,52.754799 637.569397,52.848694 635.422729,52.875061 
	C636.934021,52.533195 638.871826,52.258862 640.909546,52.322712 
z"/>
<path fill="#1B7ED1" opacity="1.000000" stroke="none" 
	d="
M626.765503,53.040237 
	C625.386414,53.685192 623.590515,54.301033 621.395508,54.866779 
	C622.780457,54.214828 624.564636,53.612976 626.765503,53.040237 
z"/>
<path fill="#207ABD" opacity="1.000000" stroke="none" 
	d="
M473.035767,223.395920 
	C473.675720,223.457474 474.373260,223.849319 475.136841,224.580688 
	C474.499725,224.522232 473.796509,224.124222 473.035767,223.395920 
z"/>
<path fill="#1A71BA" opacity="1.000000" stroke="none" 
	d="
M459.031219,211.334595 
	C459.613281,211.467407 460.232086,211.918900 460.902893,212.696335 
	C460.325928,212.565933 459.696930,212.109604 459.031219,211.334595 
z"/>
<path fill="#1A71BA" opacity="1.000000" stroke="none" 
	d="
M461.021790,213.362259 
	C461.610535,213.482513 462.243011,213.919907 462.925568,214.684921 
	C462.338928,214.568161 461.702209,214.123779 461.021790,213.362259 
z"/>
<path fill="#1A71BA" opacity="1.000000" stroke="none" 
	d="
M463.028320,215.343781 
	C463.621674,215.465256 464.255646,215.906250 464.936157,216.678131 
	C464.344788,216.560455 463.706848,216.111893 463.028320,215.343781 
z"/>
<path fill="#2685C1" opacity="1.000000" stroke="none" 
	d="
M487.054871,231.489532 
	C487.703125,231.517532 488.412292,231.871246 489.192047,232.560684 
	C488.546997,232.536026 487.831421,232.175644 487.054871,231.489532 
z"/>
<path fill="#42B0D3" opacity="1.000000" stroke="none" 
	d="
M534.903687,52.463978 
	C530.314575,52.885452 525.613525,52.929459 520.450195,52.908157 
	C520.763550,52.232651 521.539246,51.622456 522.657471,51.000168 
	C526.930603,51.354225 530.861206,51.720367 534.903687,52.463978 
z"/>
<path fill="#095CB7" opacity="1.000000" stroke="none" 
	d="
M571.359131,208.467682 
	C570.925415,210.328735 570.110291,211.810516 570.063965,213.315948 
	C569.900208,218.637924 570.134949,223.974014 569.899231,229.290573 
	C569.843567,230.545685 568.540466,231.745499 567.393433,232.993195 
	C566.975708,233.015640 566.998596,233.008621 566.960449,232.698380 
	C566.309998,231.920395 565.697754,231.452652 565.085510,230.984909 
	C564.635986,230.705002 564.186523,230.425110 563.483154,230.065598 
	C559.844604,226.552673 556.459900,223.119354 553.089844,218.909485 
	C553.403015,216.194061 553.932556,214.258331 553.959045,212.315750 
	C554.060425,204.872025 553.837341,197.419785 554.123840,189.985718 
	C554.189148,188.291885 555.808289,186.657974 556.712219,184.996475 
	C561.584900,192.697403 566.457581,200.398331 571.359131,208.467682 
z"/>
<path fill="#0B62BC" opacity="1.000000" stroke="none" 
	d="
M565.131348,231.303345 
	C565.697754,231.452652 566.309998,231.920395 566.954346,232.706055 
	C566.383423,232.556564 565.780273,232.089172 565.131348,231.303345 
z"/>
<path fill="#106BC2" opacity="1.000000" stroke="none" 
	d="
M580.943237,243.377258 
	C581.547119,243.451263 582.222412,243.842590 582.955078,244.546326 
	C582.346558,244.470688 581.680542,244.082642 580.943237,243.377258 
z"/>
<path fill="#0654B1" opacity="1.000000" stroke="none" 
	d="
M556.703186,184.622559 
	C555.808289,186.657974 554.189148,188.291885 554.123840,189.985718 
	C553.837341,197.419785 554.060425,204.872025 553.959045,212.315750 
	C553.932556,214.258331 553.403015,216.194061 553.058350,218.546478 
	C552.254333,217.998993 551.496521,217.037964 550.805542,215.369537 
	C550.206909,214.133179 549.541382,213.604218 548.875854,213.075256 
	C548.875854,213.075256 548.969482,213.045441 548.930298,212.745483 
	C548.225952,211.976959 547.560791,211.508408 546.895569,211.039841 
	C542.939392,204.007065 538.217651,197.282562 535.228943,189.860214 
	C531.818481,181.390289 529.350952,172.414658 527.619141,163.437805 
	C526.407837,157.158875 527.430969,150.483551 526.903442,144.030441 
	C525.973999,132.661331 527.997986,121.561569 531.549377,111.090118 
	C534.822571,101.438805 540.493591,92.600487 545.112549,83.406128 
	C545.475037,82.684570 545.869995,81.979355 546.912231,81.080986 
	C548.025208,80.200912 548.475830,79.506386 548.926392,78.811859 
	C549.497742,77.683495 550.069031,76.555122 550.910522,75.235825 
	C554.324585,74.567726 555.089966,76.108360 555.050476,79.014580 
	C554.918152,88.730568 555.002563,98.449509 555.026367,108.643738 
	C555.058044,109.548470 555.067261,109.976761 554.686401,110.732315 
	C554.257812,111.702789 554.219238,112.346008 554.180725,112.989243 
	C553.787537,114.120483 553.394348,115.251724 552.545898,116.756119 
	C551.769653,117.866943 551.448608,118.604614 551.127502,119.342285 
	C550.426819,132.333206 548.617126,145.392365 549.410828,158.291336 
	C549.950317,167.059952 554.137939,175.604111 556.703186,184.622559 
z"/>
<path fill="#0A5CB7" opacity="1.000000" stroke="none" 
	d="
M548.584961,78.874374 
	C548.475830,79.506386 548.025208,80.200912 547.228149,80.924896 
	C547.335571,80.281853 547.789551,79.609367 548.584961,78.874374 
z"/>
<path fill="#095CB7" opacity="1.000000" stroke="none" 
	d="
M546.967346,211.374420 
	C547.560791,211.508408 548.225952,211.976959 548.904907,212.787537 
	C548.292175,212.656021 547.665649,212.182526 546.967346,211.374420 
z"/>
<path fill="#095CB7" opacity="1.000000" stroke="none" 
	d="
M548.890198,213.440704 
	C549.541382,213.604218 550.206909,214.133179 550.864685,215.025970 
	C550.206116,214.861908 549.555359,214.334030 548.890198,213.440704 
z"/>
<path fill="#58D7E3" opacity="1.000000" stroke="none" 
	d="
M617.209473,171.009781 
	C618.409363,164.816742 620.101196,158.670700 620.698242,152.420074 
	C621.690918,142.026901 619.643799,131.858704 617.362366,121.407883 
	C618.493164,119.457489 619.836792,117.957687 619.906067,116.401184 
	C620.433472,104.553513 620.711853,92.694763 621.067810,80.839462 
	C624.416870,86.564842 627.765930,92.290237 631.099243,98.726181 
	C631.661926,99.959343 632.240417,100.481956 632.818848,101.004562 
	C632.900635,101.426392 632.982422,101.848228 633.033020,103.035843 
	C632.668091,106.583092 632.053955,109.363625 632.044617,112.146172 
	C631.966797,135.413239 631.956055,158.680908 632.091125,181.947433 
	C632.100952,183.650146 633.408691,185.345306 634.112976,187.043976 
	C633.967407,188.237335 633.821838,189.430695 633.027588,190.864014 
	C631.955322,191.828766 631.531677,192.553574 631.108032,193.278397 
	C627.998962,199.193314 624.889954,205.108231 621.401978,210.657867 
	C620.682007,205.854965 620.144348,201.421814 620.044434,196.978790 
	C619.880249,189.678268 619.999329,182.371384 620.000244,175.067169 
	C620.000488,173.073090 620.360107,170.835144 617.209473,171.009781 
z"/>
<path fill="#5DDEE5" opacity="1.000000" stroke="none" 
	d="
M634.413574,186.823669 
	C633.408691,185.345306 632.100952,183.650146 632.091125,181.947433 
	C631.956055,158.680908 631.966797,135.413239 632.044617,112.146172 
	C632.053955,109.363625 632.668091,106.583092 633.016724,103.359955 
	C634.243591,105.239601 635.825195,107.447403 636.580994,109.908783 
	C637.720947,113.621033 638.362244,117.495743 639.078979,121.326935 
	C642.286072,138.468765 642.437378,155.637192 638.940979,172.737701 
	C637.977295,177.450623 636.146912,181.986328 634.413574,186.823669 
z"/>
<path fill="#53D0DF" opacity="1.000000" stroke="none" 
	d="
M621.041382,80.486710 
	C620.711853,92.694763 620.433472,104.553513 619.906067,116.401184 
	C619.836792,117.957687 618.493164,119.457489 617.315918,121.007812 
	C614.067505,112.078094 611.306335,103.095078 605.227051,95.278412 
	C605.810303,93.156853 606.873840,91.397652 606.919250,89.612549 
	C607.122314,81.628593 607.035156,73.637245 607.094482,65.152496 
	C611.762512,69.815613 616.388733,74.974777 621.041382,80.486710 
z"/>
<path fill="#53D0DF" opacity="1.000000" stroke="none" 
	d="
M617.100952,171.389694 
	C620.360107,170.835144 620.000488,173.073090 620.000244,175.067169 
	C619.999329,182.371384 619.880249,189.678268 620.044434,196.978790 
	C620.144348,201.421814 620.682007,205.854965 621.049683,210.735641 
	C616.661560,216.515991 612.246826,221.853271 607.483093,227.264053 
	C607.089417,219.107712 607.104065,210.876770 606.951538,202.648926 
	C606.919800,200.936081 606.268860,199.234741 605.594360,197.313828 
	C610.269470,189.156143 615.187256,181.182144 617.100952,171.389694 
z"/>
<path fill="#5DDEE5" opacity="1.000000" stroke="none" 
	d="
M632.838074,100.674774 
	C632.240417,100.481956 631.661926,99.959343 631.085693,99.105766 
	C631.677673,99.298203 632.267517,99.821594 632.838074,100.674774 
z"/>
<path fill="#5DDEE5" opacity="1.000000" stroke="none" 
	d="
M631.433044,193.193130 
	C631.531677,192.553574 631.955322,191.828766 632.728455,191.066147 
	C632.638000,191.721512 632.197998,192.414688 631.433044,193.193130 
z"/>
<path fill="#0A5CB7" opacity="1.000000" stroke="none" 
	d="
M554.481445,112.750847 
	C554.219238,112.346008 554.257812,111.702789 554.555542,111.026642 
	C554.803833,111.499969 554.792969,112.006218 554.481445,112.750847 
z"/>
<path fill="#0A5CB7" opacity="1.000000" stroke="none" 
	d="
M551.453369,119.253235 
	C551.448608,118.604614 551.769653,117.866943 552.414795,117.060349 
	C552.419006,117.715683 552.099121,118.439934 551.453369,119.253235 
z"/>
<path fill="#106BC2" opacity="1.000000" stroke="none" 
	d="
M585.044312,221.352890 
	C585.666809,221.444626 586.335754,221.859924 587.049255,222.602539 
	C586.426147,222.512039 585.758423,222.094254 585.044312,221.352890 
z"/>
</svg>