<svg xmlns="http://www.w3.org/2000/svg" viewBox="0 0 958 302" xml:space="preserve"><path fill="#FEFEFE" d="M621 303H1V1h958v302H621m-185.986-87.285c.632.503 1.265 1.005 1.863 2.153.174.37.348.74.711 1.598.503.419 1.007.837 1.483 1.41 0 0 .158 0 .356.643 4.521 4.345 9.043 8.69 13.992 13.526.43.024.86.047 1.394.778.71.424 1.42.848 2.163 1.188 0 0-.075.05.038.722.667.412 1.334.824 1.99 1.272 0 0 .03-.022.19.598.62.403 1.24.805 2.149 1.69.554.42 1.108.84 2.3 1.67 3.02 1.384 6.041 2.768 9.19 4.84.724.349 1.448.698 2.71 1.343.407-.008.814-.015 1.363.722 2.675 1.053 5.35 2.106 8.316 3.808 1.26.4 2.522.799 4.36 1.454.419-.01.838-.019 1.468.73 2.549.42 5.098.84 7.917 1.951 1.347.33 2.694.66 4.873 1.179 1.702.055 3.405.11 5.321.928 5.61.322 11.22.643 17.745 1.122 4.027-.078 8.055-.155 12.883-.12 1.766-.62 3.533-1.24 5.243-1.923 0 0 .015.083.903.196 4.352-.792 8.705-1.585 13.84-2.283 3.002-1.064 6.048-2.02 8.997-3.217 5.446-2.213 10.834-4.568 16.973-6.681 6.418 2.653 12.836 5.306 19.894 8.354 5.782 1.228 11.563 2.457 17.693 4.371 7.22.38 14.439.76 22.582 1.293 6.36-.735 12.72-1.47 19.904-2.102 7.726-2.675 15.452-5.35 23.886-7.979 1.066-.666 2.131-1.333 3.25-1.964 0 0 .022-.06.772-.016 7.073-4.71 14.147-9.42 21.91-14.188 3.79-3.925 7.578-7.849 12.017-11.882.436-.64.87-1.279 1.34-1.907 0 0-.012-.036.68-.164 2.972-3.944 5.944-7.888 9.273-12.428.032-.462.063-.924.7-1.54.37-.622.74-1.243 1.457-2.496 1.279-1.73 2.558-3.46 3.948-4.281v26.639h43.952c0-19.378-.183-38.517.097-57.65.1-6.897 1.017-13.826 2.148-20.643.497-2.994 2.073-6.013 3.83-8.556 5.828-8.432 20.178-10.8 24.77 1.21 1.64 4.287 2.594 9.02 2.863 13.607.47 7.973.175 15.992.18 23.992.008 15.958.002 31.917.002 47.92h43.795c0-13.702-.295-27.013.083-40.305.375-13.203.954-26.437 2.353-39.56.883-8.288 8.158-14.667 18.018-13.73 6.114.582 11.548 7.07 11.93 15.045.367 7.65.704 15.308.753 22.965.11 17.165.111 34.333-.03 51.498-.03 3.489 1.056 4.677 4.578 4.558 6.992-.237 13.997-.07 20.997-.07h17.846c0-24.858.194-49.025-.098-73.187-.113-9.32-.69-18.732-2.212-27.91-1.76-10.602-8.36-18.222-18.086-22.816-8.658-4.09-17.965-4.707-27.337-4.032-9.43.679-18.102 3.584-25.39 9.905-2.37 2.056-4.462 4.97-7.222 5.913-4.258 1.454-4.813-3.837-7.413-5.708-5.733-4.127-11.688-7.175-18.702-8.78-10.906-2.493-21.593-2.133-32.005 1.328-7.272 2.417-13.445 6.935-17.884 13.52-.402.594-3.35.484-3.511.073-1.797-4.592-3.279-9.307-4.922-14.218-9.83 0-19.647 0-30.114-.317-2.532-4.591-5.064-9.182-7.6-14.39-.57-.461-1.141-.924-1.726-2.097-.62-.559-1.24-1.118-1.782-2.399-2.123-2.948-4.246-5.896-6.435-9.531-5.26-5.054-10.522-10.108-16.332-15.594-5.099-3.3-10.198-6.6-15.33-9.853 0 0 .046-.018-.039-.695-.693-.374-1.386-.748-2.7-1.492-4.413-1.934-8.827-3.868-13.43-6.399-.648-.34-1.295-.681-2.576-1.288-.457.007-.914.014-2.047-.307a3504.161 3504.161 0 0 0-15.14-3.787c-6.063-.595-12.127-1.19-19.118-1.918-5.47.031-10.948-.072-16.408.177-1.607.074-3.167 1.146-5.557 1.64-3.367.736-6.734 1.473-10.85 2.09-.748.099-1.495.198-2.993.22-.414.227-.828.455-1.89.594-2.785 1.098-5.653 2.024-8.333 3.335-3.736 1.828-7.332 3.944-11.662 5.936-.441.071-.882.142-2.11.102-2.475-1.057-4.906-2.238-7.434-3.146-6.59-2.366-13.22-4.612-20.427-7.099-.412.02-.824.039-1.497-.613-1.305-.345-2.61-.691-4.739-1.216-4.06-.627-8.12-1.253-13.102-2.004-4.69.04-9.38.081-14.986-.011-2.095-.01-4.226-.263-6.275.038-2.32.34-4.567 1.179-7.695 1.7-1.7.146-3.399.294-5.84.339-1.181.594-2.362 1.189-4.367 1.665-2.357.72-4.713 1.44-7.692 2.08-.4.096-.802.192-1.924.21-1.109.64-2.218 1.281-4.103 1.872-2.416 1.293-4.831 2.586-7.913 3.888-.42.118-.839.236-1.943.304-.523.592-1.045 1.185-2.179 1.713-.378.125-.756.25-1.785.356-.486.59-.972 1.179-2.152 1.967-2.41 1.422-4.822 2.845-7.816 4.459-1.134 1.118-2.268 2.237-4.108 3.387-.509.633-1.017 1.266-2.246 1.88-4.283 4.064-8.566 8.129-12.98 12.19 0 0 .023.127-.55.305-.422.57-.846 1.138-1.436 1.71 0 0 .022.165-.485.36-.405.525-.81 1.05-1.668 2.187-.601 1.097-1.135 2.237-1.815 3.283-3.924 6.042-7.883 12.062-12.133 18.681.001.443.002.885-.584 1.553-.367.618-.734 1.237-1.411 2.45-.597.506-1.193 1.012-2.745 1.412h-28.906l-24.854 82.784-23.47-82.4H295.59l47.854 125.429h43.193c2.857-7.578 5.582-14.997 8.45-22.362 3.089-7.937 6.443-15.773 9.434-23.746 2.46-6.557 4.559-13.25 7.505-19.529 3.097 10.598 6.194 21.195 9.313 32.4.551.476 1.102.951 1.622 2.107.115.43.23.858.364 1.992 2.683 4.43 5.365 8.858 8.191 13.815.52.435 1.04.87 1.52 1.412 0 0 .112.02.147.678.602.473 1.205.946 1.817 1.403 0 0-.016.007.013.714m-284.53 1.276c-3.72-5.307-7.558-10.538-11.138-15.938-9.024-13.611-17.687-27.47-27.027-40.857-2.994-4.29-.512-5.32 2.164-7.122 13.326-8.975 21.717-21.063 22.35-37.455.218-5.62-.863-11.34-1.778-16.945-1.496-9.164-6.616-16.188-13.943-21.642-11-8.189-23.803-11.49-37.126-11.881-20.647-.605-41.32-.282-61.983-.321-1.58-.003-3.161.237-4.545.349v161.545h43.806v-57.502c8.41-2.58 11.349-1.552 15.226 5.12 9.5 16.353 18.944 32.74 28.587 49.007.945 1.592 3.102 3.467 4.728 3.497 14.66.269 29.325.164 43.99.132.898-.002 1.797-.317 2.61-.471-1.963-3.172-3.73-6.029-5.921-9.516m76.993-69.949c-13.802-.114-27.395 1.286-40.468 5.985-12.125 4.36-24.4 15.009-24.206 30.96.063 5.162-.35 10.395.37 15.466 1.157 8.153 4.817 15.479 10.984 20.93 11.346 10.029 25.364 9.945 39.073 7.991 6.322-.901 12.508-4.423 18.168-7.754 4.096-2.41 7.224-6.461 11.283-10.246 2.238 4.438 4.203 8.61 6.439 12.63.84 1.51 2.274 3.772 3.5 3.814 9.42.319 18.856.175 28.288.175 0-30.717.238-60.855-.184-90.983-.094-6.738-3.14-13.147-7.203-18.852-8.295-11.647-20.356-16.857-33.783-17.766-11.297-.765-22.763.831-34.146 1.52-10.249.621-19.624 4.465-28.937 8.368-.705.295-1.439 2.27-1.115 3.001 3.928 8.879 8.053 17.67 12.09 26.405 3.344-1.287 6.491-2.773 9.794-3.71 6.223-1.767 12.657-2.849 18.785-4.877 12.555-4.154 22.204 3.39 20.61 16.94-2.745 0-5.547 0-9.342.003z"/><path fill="#020202" d="M748.97 101.09h29.464c1.643 4.912 3.125 9.627 4.922 14.219.16.41 3.11.521 3.51-.074 4.44-6.584 10.613-11.102 17.885-13.52 10.412-3.46 21.099-3.82 32.005-1.326 7.014 1.604 12.97 4.652 18.702 8.779 2.6 1.871 3.155 7.162 7.413 5.708 2.76-.942 4.853-3.857 7.223-5.913 7.287-6.321 15.959-9.226 25.389-9.905 9.372-.675 18.68-.058 27.337 4.032 9.727 4.594 16.327 12.214 18.086 22.816 1.523 9.178 2.1 18.59 2.212 27.91.292 24.162.098 48.329.098 73.187H925.37c-7 0-14.005-.167-20.997.07-3.522.119-4.608-1.07-4.579-4.558.142-17.165.141-34.333.031-51.498-.05-7.657-.386-15.315-.753-22.965-.382-7.975-5.816-14.463-11.93-15.045-9.86-.937-17.135 5.442-18.018 13.73-1.4 13.123-1.978 26.357-2.353 39.56-.378 13.292-.083 26.603-.083 40.304h-43.795c0-16.002.006-31.96-.003-47.919-.004-8 .29-16.019-.179-23.992-.27-4.588-1.223-9.32-2.862-13.608-4.593-12.01-18.943-9.64-24.77-1.209-1.758 2.543-3.334 5.562-3.83 8.556-1.132 6.817-2.049 13.746-2.15 20.643-.279 19.133-.096 38.272-.096 57.65H745.05c0-9.064 0-17.852.08-27.458.896-3.081 1.543-5.423 2.56-7.591 5.693-12.14 8.665-24.943 9.271-38.282.264-5.809.46-11.688-.14-17.45-.615-5.92-2.118-11.765-3.452-17.592-1.325-5.785-2.923-11.508-4.4-17.258z"/><path fill="#030303" d="M150.695 217.306c1.98 3.172 3.747 6.029 5.71 9.2-.813.155-1.712.47-2.61.472-14.665.032-29.33.137-43.99-.132-1.626-.03-3.783-1.905-4.728-3.497-9.643-16.268-19.086-32.654-28.587-49.006-3.877-6.673-6.816-7.7-15.226-5.121v57.502H17.458V65.179c1.384-.112 2.965-.352 4.545-.35 20.662.04 41.336-.283 61.983.322 13.323.39 26.126 3.692 37.126 11.881 7.327 5.454 12.447 12.478 13.943 21.642.915 5.604 1.996 11.324 1.779 16.945-.634 16.392-9.025 28.48-22.351 37.455-2.676 1.802-5.158 2.832-2.164 7.122 9.34 13.388 18.003 27.246 27.027 40.857 3.58 5.4 7.418 10.63 11.35 16.253m-89.561-97.81v15.472c3.548 0 6.363.064 9.174-.011 10.109-.273 18.584-2.995 21.728-14.122 1.612-5.705 1.385-11.076-2.297-15.865-4.216-5.482-20.664-10.083-26.784-7.444-.94.405-1.702 2.3-1.74 3.531-.18 5.809-.081 11.626-.081 18.438zM227.973 147.041l8.845-.001c1.595-13.551-8.054-21.095-20.609-16.94-6.128 2.027-12.562 3.11-18.785 4.876-3.303.937-6.45 2.423-9.794 3.71-4.037-8.734-8.162-17.526-12.09-26.405-.324-.732.41-2.706 1.115-3.001 9.313-3.903 18.688-7.747 28.937-8.367 11.383-.69 22.849-2.286 34.146-1.521 13.427.91 25.488 6.119 33.783 17.766 4.062 5.705 7.11 12.114 7.203 18.852.422 30.128.184 60.266.184 90.983-9.432 0-18.868.144-28.288-.175-1.226-.042-2.66-2.304-3.5-3.815-2.236-4.02-4.201-8.191-6.439-12.63-4.059 3.786-7.188 7.838-11.283 10.247-5.66 3.33-11.846 6.853-18.168 7.754-13.709 1.954-27.727 2.038-39.073-7.991-6.167-5.451-9.827-12.777-10.984-20.93-.72-5.07-.307-10.304-.37-15.465-.194-15.952 12.08-26.602 24.206-30.96 13.073-4.7 26.666-6.1 40.964-5.987m-6.7 24.398c-1.367.512-2.704 1.13-4.106 1.517-11.422 3.155-12.902 15.73-8.056 21.691 4.63 5.696 12.113 5.442 19.918 1.068 9.006-5.046 9.593-13.52 9.367-22.286-.022-.852-2.123-2.307-3.304-2.355-4.313-.176-8.644.126-13.818.365zM411.34 160.84c-2.26 6.633-4.358 13.326-6.818 19.883-2.991 7.973-6.345 15.81-9.435 23.746-2.867 7.365-5.592 14.784-8.449 22.362h-43.193L295.59 101.403H341l23.471 82.399 24.854-82.784c9.617 0 19.262 0 29.388.457.376 1.274.406 2.14.14 2.903-3.317 9.532-6.22 19.096-6.178 29.389.024 5.842-.92 11.683-1.271 17.533-.19 3.17-.054 6.36-.065 9.54z"/><path fill="#36AFF6" d="M748.645 100.932c1.802 5.909 3.4 11.632 4.725 17.417 1.334 5.827 2.837 11.671 3.452 17.592.6 5.762.404 11.641.14 17.45-.606 13.339-3.578 26.143-9.271 38.282-1.017 2.168-1.664 4.51-2.617 7.136-1.413 2.094-2.692 3.825-4.517 5.803-1.217-1.288-2.436-2.81-2.473-4.362-.462-19.43-.958-38.865-1.015-58.3-.039-13.274.618-26.549.918-39.824.086-3.827-.211-7.678.139-11.475.119-1.286 1.69-2.437 2.598-3.65 2.532 4.59 5.064 9.182 7.92 13.931z"/><path fill="#0858B1" d="M437.4 218.978c-.175-.37-.35-.74-.512-1.776-.626-1.175-1.265-1.685-1.903-2.194 0 0 .016-.007-.012-.316-.627-.79-1.226-1.271-1.824-1.753 0 0-.113-.019-.13-.354-.56-.758-1.103-1.181-1.645-1.604-2.683-4.43-5.365-8.859-7.69-13.72 1.012-1.807 2.228-3.181 2.232-4.56.108-31.063.121-62.127-.032-93.19-.008-1.504-1.701-3-2.61-4.5 3.948-6.027 7.907-12.047 11.831-18.089.68-1.046 1.214-2.186 2.32-3.62a12.707 12.707 0 0 0 1.67-2.045s-.022-.165.355-.215c.795-.646 1.214-1.242 1.632-1.838 0 0-.023-.128.422-.029.796 1.604 1.426 3.103 1.45 4.613.11 6.73-.088 13.469.144 20.193.058 1.703 1.292 3.365 1.97 5.386-.148.764-.282 1.186-.713 1.653-.653.683-1.008 1.322-1.347 2.305-.098.781-.21 1.217-.626 1.702-.657.703-1.011 1.36-1.348 2.349-.09.758-.196 1.182-.618 1.661-.658.75-1 1.445-1.307 2.544-1.94 8.036-5.152 15.597-5.592 23.316-.608 10.66.873 21.438 1.448 32.565.618 2.115 1.248 3.83 1.984 5.86.093.756.08 1.198.047 2.011.607 1.472 1.233 2.573 1.99 3.961.113.708.095 1.127.072 1.864.549.83 1.103 1.344 1.805 2.159.149.75.15 1.2.134 2.11-.11 5.06-.081 9.665-.328 14.255-.38 7.07-.95 14.13-1.44 21.194 0 0-.158 0-.19-.349-.569-.749-1.104-1.149-1.64-1.549z"/><path fill="#034FAA" d="M423.124 95.307c1.059 1.204 2.752 2.7 2.76 4.204.153 31.063.14 62.127.032 93.19-.004 1.379-1.22 2.753-2.24 4.208-.484-.35-.6-.779-.713-1.85-.548-1.12-1.097-1.596-1.646-2.072-3.096-10.598-6.193-21.195-9.633-31.97-.333-3.357-.47-6.547-.28-9.717.353-5.85 1.296-11.691 1.272-17.533-.041-10.293 2.86-19.857 6.178-29.39.266-.762.236-1.628.338-2.85.592-.909 1.188-1.415 2.243-2.272.82-1.008 1.18-1.666 1.54-2.324-.001-.443-.002-.885.149-1.624z"/><path fill="#34ACF5" d="M740.722 86.693c-.905 1.52-2.477 2.672-2.596 3.958-.35 3.797-.053 7.648-.14 11.475-.3 13.275-.956 26.55-.917 39.824.057 19.435.553 38.87 1.015 58.3.037 1.551 1.256 3.074 2.3 4.678.003.689-.367 1.31-1.325 2.034-.942.362-1.296.622-1.65.882l1.179 1.152c-2.971 3.944-5.943 7.888-9.256 11.43-.339-9.115-.368-17.83-.313-26.543.018-2.719-.204-5.07-3.814-5.243 2.25-5.274 5.305-9.979 6.622-15.128 5.072-19.835 5.35-39.645-2.058-59.129-1.131-2.974-1.932-6.075-2.852-9.561.383-9.558.747-18.671 1.073-27.785.071-2.004-.334-4.257 2.853-3.993 2.123 2.948 4.246 5.896 6.32 9.565.581 1.276 1.213 1.832 1.845 2.389.57.462 1.142.925 1.714 1.695z"/><path fill="#2E9EEA" d="M714.947 234.84c-7.074 4.71-14.148 9.42-21.647 13.697-.717-5.532-.915-10.639-1.346-15.727-.171-2.019-.856-3.995-1.25-6.355 6.216-5.373 12.374-10.38 18.82-15.446.708-.649 1.128-1.24 1.539-1.9-.01-.067.127-.077.49.003 1.056 2.128 2.191 4.14 2.365 6.23.54 6.484.713 12.997 1.029 19.498z"/><path fill="#1366B6" d="M445.083 99.027c-.693-1.681-1.927-3.343-1.985-5.046-.232-6.724-.033-13.462-.144-20.193-.024-1.51-.654-3.01-1.385-4.61a132.89 132.89 0 0 1 13.175-12.287c1.22-.636 1.733-1.276 2.247-1.916 1.134-1.118 2.268-2.237 3.62-3.107.296 7.935.33 15.623.539 23.305.017.628 1.218 1.223 1.806 2.186-4.175 5.252-8.29 10.149-12.394 15.055-1.837 2.195-3.653 4.408-5.479 6.613z"/><path fill="#2893E1" d="M690.647 226.82c.451 1.995 1.136 3.971 1.307 5.99.43 5.088.63 10.195.972 15.705.05.41.028.47-.362.457-1.45.635-2.509 1.283-3.568 1.93-7.726 2.676-15.452 5.35-23.503 7.622.937-1.457 3.33-2.57 3.278-3.554-.317-6.02-1.188-12.013-1.722-18.357 6.703-2.785 13.254-5.228 20.13-7.68.825-.598 1.326-1.187 2.067-1.945.627-.168 1.014-.168 1.401-.168z"/><path fill="#0C64BD" d="M585.049 45.23c.44-.072.882-.143 2.08-.205 4.644-.509 6.327 1.198 5.871 5.069-.663 5.643-1.323 11.286-1.987 16.919-.003-.01.01.002-.306.028-.785.628-1.254 1.23-2.038 1.94-1.453 1.37-2.59 2.631-4.093 3.924-3.999 2.765-7.632 5.498-11.611 7.964-.553-6.837-.799-13.405-.942-19.976-.046-2.118.036-4.134-2.913-4.22 5.358-4.044 10.648-7.744 15.939-11.444z"/><path fill="#2288D8" d="M666.897 236.955c.686 6.002 1.557 11.994 1.874 18.015.052.984-2.34 2.097-3.69 3.502-6.447 1.088-12.807 1.823-19.625 2.021-.458-6.64-.458-12.744-.458-19.47-2.766 0-4.915.237-6.982-.073-1.725-.259-3.353-1.159-4.558-1.838 8.758-.107 17.051-.15 25.765-.158 2.208-.589 3.995-1.214 6.086-1.947.733-.089 1.16-.07 1.588-.052z"/><path fill="#33A7F0" d="M715.292 234.81c-.66-6.471-.835-12.984-1.374-19.467-.174-2.091-1.309-4.103-2.328-6.57 4.324-6.87 8.972-13.319 13.62-19.768 3.605-.193 3.827 2.159 3.81 4.878-.056 8.714-.027 17.428-.034 26.608-.005.465.008.501-.327.544-.775.686-1.216 1.33-1.657 1.973-3.788 3.924-7.577 7.848-11.71 11.802z"/><path fill="#146FC5" d="M591.016 67.023c.66-5.643 1.32-11.286 1.984-16.93.456-3.87-1.227-5.577-5.533-5.068 3.235-2.001 6.83-4.117 10.567-5.945 2.68-1.311 5.548-2.237 8.747-3.085 1.019-.09 1.623-.428 2.226-.767.748-.1 1.495-.198 2.618.227a232.093 232.093 0 0 1 1.058 21.45c-.75.122-1.193.117-2.011.1-1.475.63-2.574 1.271-3.944 2.074-.765.738-1.261 1.316-2.143 1.88-1.43.333-2.527.57-3.509 1.044-3.375 1.628-6.71 3.34-10.06 5.02z"/><path fill="#1A7DD0" d="M632.992 239.175c1.671.616 3.3 1.516 5.024 1.775 2.067.31 4.216.073 6.982.073 0 6.726 0 12.83-.004 19.393-7.223.08-14.443-.299-21.831-1.494-.11-7.24-.052-13.665.443-20.168 3.42.089 6.403.255 9.386.42z"/><path fill="#33A7F0" d="M730.81 72.7c-3.154.08-2.749 2.333-2.82 4.337-.326 9.114-.69 18.227-1.432 27.688-1.684-1.768-2.924-3.918-4.28-5.993-3.008-4.608-6.073-9.177-8.733-13.865.74-1.783 1.381-3.46 1.406-5.145.11-7.507.044-15.017.042-22.526 5.262 5.053 10.523 10.107 15.817 15.504z"/><path fill="#2EA0EB" d="M714.72 56.98c.275 7.725.341 15.235.231 22.742-.025 1.686-.666 3.362-1.462 5.145-.44.101-.429-.011-.482-.307-.642-.74-1.232-1.186-1.887-1.632-.066 0-.042-.13-.097-.41-.61-.695-1.165-1.112-1.964-1.783-3.534-3.361-6.826-6.467-10.1-10.05.075-8.26.132-16.041.19-23.822 5.098 3.3 10.197 6.6 15.57 10.116z"/><path fill="#1062B5" d="M439.328 221.197c.39-7.385.96-14.445 1.34-21.515.248-4.59.218-9.195.666-14.12 2.163 3.498 3.971 7.321 5.776 11.492.621.882 1.246 1.417 2.198 2.066a35.602 35.602 0 0 1 3.742 6.184c-.037 10.07-.048 19.66-.06 29.25-4.52-4.344-9.042-8.69-13.662-13.357z"/><path fill="#106BC2" d="M604.999 254.972c-6.418-2.654-12.836-5.307-19.619-8.352-.387-.791-.409-1.19-.03-1.688.817-1.588 1.55-3.07 1.594-4.572.174-5.82.129-11.646.536-17.459 1.63.627 2.937 1.165 4.143 1.874 4.504 2.647 8.975 5.35 13.69 8.098.232.065.682.238.624.645-.351 7.423-.645 14.439-.938 21.454z"/><path fill="#42B0D3" d="M584.656 45.173c-4.898 3.756-10.188 7.456-15.564 11.498-.085.342-.074.367-.4.393-.807.652-1.29 1.278-2.03 2.093-1.05.738-1.842 1.288-2.96 1.669-1.06-.698-1.726-1.39-2.538-1.73-3.382-1.414-6.808-2.723-9.792-4.093 4.208.42 5.891-1.053 5.688-5.053-.253-4.95-.065-9.922-.068-14.884 6.615 2.294 13.247 4.54 19.836 6.906 2.528.908 4.959 2.089 7.828 3.201z"/><path fill="#39A3CE" d="M556.697 34.97c.298 5.058.11 10.03.363 14.98.203 4-1.48 5.473-6.121 5.09-5.223-.689-9.586-1.435-13.946-2.64.334-7.385.663-14.31.993-21.236 4.06.627 8.12 1.253 12.678 2.319 1.833.775 3.167 1.112 4.5 1.448.413-.02.825-.039 1.533.039z"/><path fill="#2790DF" d="M681.004 37.302c.647.34 1.294.682 1.717 1.606-.39 5.78-.676 10.975-.67 16.17.002 2.53-.562 4.153-3.793 4.147-6.346-1.442-12.322-2.878-18.264-4.445-1.13-.298-2.126-1.112-2.743-1.726 5.509.697 7.253-1.527 6.828-6.514-.379-4.443-.084-8.944-.087-13.42 4.777 1.204 9.554 2.406 14.705 4.055.663.775.951 1.103 1.24 1.43l1.067-1.303z"/><path fill="#349CCA" d="M538.988 260.808c-4.027.077-8.055.154-12.536-.307-.455-6.653-.455-12.767-.455-18.126-2.868-1.295-4.938-2.23-6.542-3.226 8.13-.104 15.796-.145 23.86-.081.827 1.585 1.578 3.056 1.627 4.549.167 5.15.09 10.308.105 15.463 0 0-.015-.083-.397-.084-2.142.604-3.902 1.208-5.662 1.812z"/><path fill="#2997E5" d="M678.64 59.185c2.849.046 3.413-1.576 3.41-4.107-.005-5.195.28-10.39.766-15.871 4.733 1.648 9.147 3.582 13.923 6.024 1.049.892 1.735 1.277 2.422 1.66 0 0-.046.019-.03-.005-.04 7.758-.097 15.539-.535 23.759-3.623-1.547-6.86-3.54-10.108-5.515-3.277-1.992-6.565-3.964-9.849-5.945z"/><path fill="#2086D7" d="M663.588 33.031c.407 4.565.112 9.066.491 13.51.425 4.986-1.32 7.21-7.275 6.573-5.196-.086-9.504-.272-13.714-.812.703-2.142 1.744-3.91 1.827-5.722.235-5.131.078-10.28.075-15.422 6.064.595 12.128 1.19 18.596 1.873z"/><path fill="#186FB9" d="M463.02 77.007c-.652-.61-1.853-1.206-1.87-1.834-.208-7.682-.243-15.37-.248-23.4 2.485-1.767 4.896-3.19 7.971-4.722 1.155-.686 1.647-1.262 2.138-1.839.379-.125.757-.25 1.772-.334 1.167-.541 1.697-1.122 2.226-1.703.42-.118.84-.236 1.612.123.357 8.14.36 15.803.102 23.628-.673.163-1.083.165-1.835.168-.86.63-1.377 1.259-1.996 2.228-3.359 2.789-6.616 5.237-9.873 7.685z"/><path fill="#1573C9" d="M605.32 255.169c-.028-7.212.266-14.228 1.008-21.699 4.522.923 8.595 2.303 12.75 4.038 1.425.688 2.767 1.021 4.081 1.366-.027.01.01-.042.01-.042l-.18 19.747c-5.787-.756-11.568-1.985-17.67-3.41z"/><path fill="#207ABD" d="M476.986 66.765c-.004-7.664-.008-15.327-.032-23.472 2.396-1.774 4.811-3.067 7.987-4.32 1.861-.585 2.963-1.21 4.065-1.835.4-.095.801-.19 1.92-.144 1.17 1.593 1.975 3.035 2.013 4.497a221 221 0 0 1-.258 17.405c-.748.123-1.19.123-1.936.135-.79.561-1.275 1.111-2.1 1.816a3311.568 3311.568 0 0 0-11.66 5.918z"/><path fill="#3DA8D0" d="M545.491 259.137c-.46-5.212-.382-10.37-.55-15.52-.048-1.493-.799-2.964-1.44-4.879 4.932-1.572 10.076-2.71 15.55-3.833.874-.542 1.417-1.099 2.199-1.749.407-.07.576-.048.747.434.003 5.063-.13 9.67.049 14.266.134 3.451.057 6.682-3.054 8.96-4.352.792-8.705 1.585-13.501 2.32z"/><path fill="#2685C1" d="M498.697 257.12c-2.55-.42-5.098-.84-7.432-1.926.053-7.801-.11-14.937.122-22.109 4.797 1.36 9.2 2.755 13.688 4.497 1.4.679 2.716 1.012 4.012 1.36-.02.014-.01-.037-.033.437-.051 6.908-.079 13.342-.106 19.776-1.703-.055-3.406-.11-5.615-.617-1.883-.773-3.26-1.095-4.636-1.417z"/><path fill="#1B7ED1" d="M644.529 31.09c.466 5.21.623 10.359.388 15.49-.083 1.812-1.124 3.58-2.154 5.793-.87.38-1.311.334-1.853-.05-2.038-.064-3.976.21-6.346.56-2.476.098-4.52.12-6.564-.327 0-5.055-.046-9.64.013-14.225.044-3.51-1.12-5.748-5.105-5.37 1.582-.614 3.142-1.686 4.749-1.76 5.46-.25 10.937-.146 16.872-.11z"/><path fill="#2C8FC5" d="M509.054 259.536c-.079-6.815-.051-13.25.443-20.232 3.476-.397 6.484-.245 9.492-.094l7.008 3.165c0 5.36 0 11.473-.003 18.048-5.613.138-11.223-.183-16.94-.887z"/><path fill="#2685C1" d="M492.988 58.773c.005-5.761.098-11.525-.05-17.282-.037-1.462-.841-2.904-1.7-4.458 1.949-.823 4.305-1.542 7.46-2.163 1.97-.488 3.14-1.075 4.31-1.662 1.7-.147 3.4-.295 5.537.087.444 3.339.476 6.15.45 8.96-.043 4.61 1.25 9.657-4.382 12.718-4.128 1.333-7.876 2.566-11.625 3.8z"/><path fill="#1877CB" d="M622.504 32.901c4.388-.318 5.553 1.92 5.509 5.43-.059 4.585-.014 9.17-.214 14.301-.2.546-.617.437-1.033.408-2.201.573-3.986 1.175-6.148 1.875-2.795.687-5.21 1.276-7.627 1.865-.33-6.933-.66-13.866-.992-21.265 3.367-1.201 6.734-1.938 10.505-2.614z"/><path fill="#1A71BA" d="M472.705 247.115c-3.02-1.384-6.041-2.768-9.28-4.702.38-2.342 1.436-4.119 1.494-5.927.206-6.484.075-12.978.43-19.42 2.783 2.033 5.206 4.016 7.687 6.33.76.728 1.464 1.126 2.517 1.51 1.377.706 2.403 1.428 3.26 2.527-.383 4.811-.498 9.251-.849 13.673-.212 2.687-.788 5.346-1.2 8.017-.407.008-.814.015-1.552-.454-1.056-.836-1.782-1.195-2.507-1.554z"/><path fill="#1569B7" d="M464.991 217.017c.003 6.49.134 12.985-.072 19.469-.058 1.808-1.113 3.585-1.812 5.722-.656-.075-1.21-.495-1.966-1.46-.836-.95-1.471-1.358-2.107-1.765 0 0-.03.022-.073-.322-.715-.762-1.388-1.181-2.06-1.6 0 0 .075-.05.025-.359-.772-.735-1.494-1.16-2.217-1.587-.43-.023-.86-.046-1.504-.315-.203-9.836-.192-19.426.201-29.43 2.118 1.606 3.853 3.626 5.625 5.965.666.775 1.295 1.23 1.946 1.676.023-.011.001.034.045.351.68.762 1.317 1.206 1.966 1.644.013-.007 0 .018.04.338.679.768 1.317 1.216 1.963 1.66.008-.004 0 .013 0 .013z"/><path fill="#207ABD" d="M476.835 249.496c.341-3.044.917-5.703 1.13-8.39.35-4.422.465-8.862 1.219-13.672 2.963.992 5.386 2.36 7.87 4.056.777.686 1.493 1.046 2.505 1.37.676.062 1.055.162 1.434.261.162 7.136.325 14.272.166 21.694-.74.296-1.158.306-1.943-.165-1.672-.861-2.978-1.242-4.284-1.623-2.675-1.053-5.35-2.106-8.097-3.531z"/><path fill="#2C8FC5" d="M504.993 54.874c5.252-2.962 3.96-8.009 4.002-12.619.026-2.81-.006-5.621-.025-8.91 2.265-1.1 4.512-1.938 6.832-2.278 2.05-.301 4.18-.047 6.735.485.462 6.828.462 13.132.12 19.448-1.118.622-1.893 1.233-3.111 1.907-5.146.699-9.85 1.333-14.553 1.967z"/><path fill="#44B2D4" d="M559.383 256.863c2.72-2.325 2.797-5.556 2.663-9.007-.179-4.595-.046-9.203.27-14.446.517-1.568.715-2.496 1.167-3.344.704.36 1.153.639 1.648 1.237.65.786 1.252 1.254 1.862 1.713.006-.007-.017 0 .04.346 4.651 3.464 9.245 6.58 13.91 10.015.738.706 1.404 1.094 2.391 1.526.753.072 1.184.1 1.615.126.022.4.044.8.068 1.5-5.41 2.596-10.8 4.95-16.245 7.164-2.949 1.197-5.995 2.153-9.389 3.17z"/><path fill="#2E97C8" d="M523 50.988c0-6.304-.001-12.608-.004-19.369 4.688-.498 9.377-.538 14.528-.517.132 6.987-.197 13.913-.859 21.346-.771.47-1.21.432-1.761.016-4.043-.744-7.973-1.11-11.904-1.476z"/><path fill="#3DA8D0" d="M539.389 260.863c1.36-.66 3.12-1.263 5.29-1.835-1.357.652-3.124 1.272-5.29 1.835z"/><path fill="#2C8FC5" d="M502.638 33.157c-.8.638-1.97 1.225-3.528 1.772.795-.634 1.976-1.229 3.528-1.772z"/><path fill="#2685C1" d="M488.645 37.1c-.74.663-1.843 1.288-3.316 1.898.737-.656 1.846-1.296 3.316-1.898z"/><path fill="#42B0D3" d="M555.034 34.596c-1.203-.001-2.537-.338-3.959-1.024 1.218-.003 2.524.343 3.96 1.024z"/><path fill="#2E9EEA" d="M689.35 250.926c.705-.67 1.765-1.319 3.187-1.971-.702.661-1.767 1.328-3.187 1.971z"/><path fill="#2685C1" d="M485.077 253.352c1.161.056 2.467.437 3.85 1.17-1.183-.047-2.444-.447-3.85-1.17z"/><path fill="#2C8FC5" d="M498.832 257.466c1.241-.023 2.618.299 4.085.978-1.256.028-2.603-.302-4.085-.978z"/><path fill="#2EA0EB" d="M699.119 46.553c-.645-.045-1.331-.43-2.07-1.137.641.05 1.334.425 2.07 1.137z"/><path fill="#34ACF5" d="M727.328 222.953c.115-.589.556-1.232 1.314-1.924-.118.591-.553 1.23-1.314 1.924z"/><path fill="#186FB9" d="M456.638 54.991c-.16.624-.675 1.264-1.534 1.91.164-.628.672-1.26 1.534-1.91z"/><path fill="#1A71BA" d="M454.761 235.469c.67.072 1.393.498 2.15 1.275-.677-.073-1.388-.497-2.15-1.275zM456.957 237.397c.616.083 1.29.502 2.01 1.246-.62-.086-1.286-.498-2.01-1.246z"/><path fill="#207ABD" d="M470.686 45.203c-.166.586-.658 1.162-1.466 1.749.17-.58.655-1.169 1.466-1.75zM474.667 43.15c-.187.606-.717 1.187-1.578 1.76.191-.6.713-1.193 1.578-1.76z"/><path fill="#1A71BA" d="M459.114 239.293c.556.097 1.19.504 1.883 1.215-.562-.1-1.183-.502-1.883-1.215z"/><path fill="#2997E5" d="M680.687 37.17c-.039.567-.395 1.001-.75 1.436-.289-.328-.577-.656-.902-1.267.421-.289.878-.296 1.652-.17z"/><path fill="#207ABD" d="M472.77 247.459c.66.015 1.386.374 2.173 1.062-.662-.02-1.386-.37-2.174-1.062z"/><path fill="#1877CB" d="M608.632 35.19c-.228.377-.832.716-1.526.849.323-.433.737-.66 1.526-.85z"/><path fill="#1366B6" d="M438.842 71.355c-.135.471-.523 1.04-1.19 1.64.126-.493.531-1.018 1.19-1.64z"/><path fill="#0858B1" d="M422.681 97.043c-.067.546-.427 1.204-1.09 1.915.063-.565.43-1.184 1.09-1.915z"/><path fill="#36AFF6" d="M739 84.642c-.624-.2-1.256-.757-1.877-1.672.63.2 1.25.758 1.878 1.672z"/><path fill="#0858B1" d="M421.329 193.29c.537.173 1.086.65 1.65 1.428-.537-.173-1.088-.648-1.65-1.427z"/><path fill="#36AFF6" d="M738.767 208.698c-.572-.086-.965-.47-1.357-.854.353-.26.707-.52 1.346-.805.253.437.222.899.011 1.659z"/><path fill="#1366B6" d="M440.796 69.293c-.132.507-.55 1.103-1.263 1.748.13-.52.554-1.09 1.263-1.748z"/><path fill="#1062B5" d="M431.446 211.244c.47.16 1.012.583 1.593 1.288-.482-.153-1.002-.589-1.593-1.288zM433.167 213.269c.58.152 1.179.633 1.8 1.431-.578-.156-1.18-.629-1.8-1.431zM435 215.362c.623.155 1.262.665 1.906 1.517-.627-.16-1.26-.661-1.907-1.517zM437.494 219.222c.44.156.976.556 1.558 1.228-.457-.147-.96-.565-1.558-1.228z"/><path fill="#F4F4F4" d="M61.135 118.996c0-6.313-.1-12.13.08-17.939.04-1.23.802-3.126 1.741-3.53 6.12-2.64 22.568 1.961 26.784 7.443 3.682 4.789 3.909 10.16 2.297 15.865-3.144 11.127-11.62 13.85-21.728 14.122-2.811.075-5.626.011-9.174.011v-15.972z"/><path fill="#F6F6F6" d="M221.699 171.38c4.749-.18 9.08-.482 13.393-.306 1.181.048 3.282 1.503 3.304 2.355.226 8.765-.36 17.24-9.367 22.286-7.805 4.374-15.288 4.628-19.918-1.068-4.846-5.96-3.366-18.536 8.056-21.691 1.402-.387 2.74-1.005 4.532-1.575z"/><path fill="#FDFEFF" d="M535.016 52.841c.439.039.878.077 1.645.067 4.692.697 9.055 1.443 13.852 2.153 3.843 1.312 7.269 2.62 10.65 4.036.813.34 1.479 1.03 2.48 2.105-3.974 4.977-8.218 9.41-12.732 14.034-.842 1.32-1.413 2.447-2.326 3.638-.795.735-1.25 1.408-2.02 2.236a12.09 12.09 0 0 0-1.452 2.296c-4.62 9.194-10.29 18.033-13.564 27.684-3.551 10.472-5.575 21.571-4.646 32.94.528 6.454-.495 13.129.716 19.408 1.732 8.977 4.2 17.952 7.61 26.422 2.989 7.423 7.71 14.147 11.738 21.514.699.809 1.325 1.282 1.977 1.713.025-.042-.068-.012-.054.354.665.893 1.316 1.42 1.908 2.292.699 1.305 1.456 2.266 2.246 3.59 3.416 3.796 6.8 7.23 10.185 10.663-.198.928-.396 1.856-.915 2.964-.488.158-.657.135-1.393.181-1.11.632-1.655 1.195-2.2 1.759-5.144 1.138-10.288 2.276-15.619 3.743-7.85.371-15.516.412-23.647.516-3.474-.09-6.482-.242-9.934-.319-.444.075-.454.126-.57-.21-1.397-.684-2.679-1.034-3.96-1.384-4.404-1.396-8.807-2.791-13.604-4.15-.773-.064-1.152-.164-1.898-.562a30.602 30.602 0 0 0-2.495-1.36c-2.424-1.37-4.847-2.738-7.641-4.108-1.397-.722-2.423-1.444-3.866-2.49-1.114-.717-1.811-1.109-2.509-1.5-2.423-1.984-4.846-3.967-7.628-6-.359-.049-.35-.066-.406-.393-.688-.767-1.322-1.208-1.956-1.649 0 0 .013-.025-.05-.346-.695-.758-1.327-1.195-1.96-1.633 0 0 .022-.045-.053-.36-.693-.766-1.312-1.218-1.93-1.67-1.736-2.02-3.471-4.04-5.564-6.125-1.503-1.929-2.65-3.793-4.134-6.125a26.848 26.848 0 0 0-2.184-2.058c-1.808-3.824-3.616-7.647-5.762-11.607-.338-.584-.34-1.032-.483-2.102-.696-1.134-1.25-1.646-1.805-2.157.018-.42.036-.84-.037-1.905-.73-1.755-1.37-2.865-2.011-3.974.013-.442.027-.884-.016-2.025-.711-2.424-1.367-4.15-2.022-5.875-.587-10.727-2.068-21.506-1.46-32.165.44-7.719 3.652-15.28 5.9-23.414.62-1.169.967-1.835 1.314-2.5.107-.425.213-.85.583-1.732a201.667 201.667 0 0 1 1.372-2.272c.112-.437.224-.873.578-1.798a39.357 39.357 0 0 1 1.388-2.205c.134-.423.268-.845.417-1.609 1.84-2.545 3.656-4.758 5.493-6.953 4.104-4.906 8.22-9.803 12.394-15.055 3.32-2.8 6.577-5.248 10.284-8.054.963-.975 1.477-1.594 1.99-2.212a5.66 5.66 0 0 0 1.493-.167c4.035-2.083 7.807-4.004 12.227-6.087 1.132-.715 1.617-1.268 2.101-1.82.44 0 .882 0 1.63-.123 4.056-1.357 7.804-2.59 11.932-3.923 5.084-.733 9.787-1.367 15.395-2 5.606-.044 10.307-.088 15.008-.132z"/><path fill="#1062B5" d="M434.965 167.462c.667 1.325 1.323 3.05 1.928 5.16-.68-1.33-1.31-3.045-1.928-5.16zM436.996 175.333c.66.738 1.3 1.848 1.899 3.315-.666-.742-1.292-1.843-1.899-3.315z"/><path fill="#1366B6" d="M440.416 109.037c-.032.611-.38 1.277-1.035 2.041.034-.596.377-1.291 1.035-2.04zM444.355 101.02c-.085.528-.467 1.1-1.106 1.817.098-.495.453-1.134 1.106-1.817z"/><path fill="#1062B5" d="M439.058 181.158c.56.194 1.114.706 1.663 1.537-.56-.193-1.114-.706-1.663-1.537z"/><path fill="#1366B6" d="M442.382 105.027c-.066.557-.435 1.162-1.085 1.89.074-.53.428-1.187 1.085-1.89z"/><path fill="#FDFEFF" d="M612.683 56.906c2.724-.715 5.14-1.304 8.334-1.941 2.574-.664 4.37-1.28 6.165-1.896 0 0 .416.109.618.033 2.244-.098 4.288-.121 7.19-.152 2.58-.101 4.3-.195 6.02-.29.442.047.884.092 1.654.068 4.636.114 8.944.3 13.7.425 1.504.515 2.5 1.329 3.63 1.627 5.942 1.567 11.918 3.003 18.264 4.445 3.665 1.94 6.953 3.913 10.23 5.905 3.249 1.974 6.485 3.968 10.09 5.994 3.655 3.144 6.947 6.25 10.52 9.9.848.955 1.414 1.365 1.98 1.774 0 0-.024.13.085.44.705.747 1.301 1.182 1.897 1.618 0 0-.01.112.046.113 3.099 4.586 6.164 9.155 9.173 13.763 1.355 2.075 2.595 4.225 4.246 6.438 1.312 3.138 2.113 6.239 3.244 9.213 7.409 19.484 7.13 39.294 2.058 59.129-1.317 5.15-4.372 9.854-6.622 15.128-4.643 6.814-9.29 13.264-13.977 20.053-.038.339-.175.349-.46.488-.702.72-1.117 1.303-1.533 1.886-6.157 5.008-12.315 10.015-18.53 15.388-.445.365-.832.365-1.79.529-1.067.761-1.564 1.36-2.06 1.958-6.552 2.443-13.103 4.886-19.806 7.671-.58.324-1.007.305-2.139.35-2.505.693-4.306 1.324-6.107 1.955-8.294.044-16.587.087-25.345.194-3.449-.103-6.432-.27-9.852-.358-.437.078-.474.13-.536-.234-1.4-.7-2.737-1.033-4.074-1.367-4.073-1.38-8.146-2.76-12.61-4.09a1.065 1.065 0 0 1-1.066-.54c.454-2.005 1.134-3.595 2.163-5.259 4.764-5.41 9.179-10.748 13.946-16.163 3.461-5.993 6.57-11.908 10.004-17.908.765-.778 1.205-1.471 1.944-2.367.445-1.395.59-2.589 1.037-4.002 1.733-4.838 3.563-9.373 4.527-14.086 3.496-17.1 3.345-34.27.138-51.411-.717-3.831-1.358-7.706-2.498-11.418-.756-2.462-2.337-4.67-3.533-7.315-.066-.746-.147-1.168-.21-1.92-.57-.852-1.16-1.376-1.737-2.279-3.335-6.105-6.684-11.83-10.06-17.908-4.652-5.512-9.278-10.671-13.917-16.161-.726-1.338-1.44-2.345-2.153-3.353.496-.578.992-1.156 2.122-1.861 1.74-.783 2.847-1.439 3.954-2.095.443.005.885.01 1.636-.111z"/><path fill="#33A7F0" d="M709.523 211.009c.128-.525.543-1.107 1.254-1.76-.125.52-.545 1.111-1.254 1.76z"/><path fill="#2E9EEA" d="M687.178 228.933c.173-.59.67-1.188 1.498-1.781-.17.594-.672 1.183-1.498 1.781z"/><path fill="#FCFEFE" d="M573.31 81.136c3.634-2.733 7.267-5.466 11.575-8.071 7.226 7.373 13.778 14.618 20.342 22.213 6.08 7.817 8.84 16.8 11.711 26.154 2.706 10.427 4.753 20.595 3.76 30.988-.597 6.25-2.289 12.397-3.597 18.97-1.914 9.792-6.832 17.766-11.96 26.044-6.32 7.244-12.452 14.194-18.74 21-.61.661-2.18.437-3.621.47-4.01-3.458-7.7-6.763-11.42-10.436-4.902-8.07-9.775-15.77-14.657-23.845-2.565-9.019-6.753-17.563-7.292-26.332-.794-12.899 1.016-25.958 2.042-39.038.646-.813.966-1.537 1.417-2.566.524-1.435.918-2.567 1.611-3.936.312-.745.323-1.251.465-2.052.121-.722.112-1.15.458-1.695 1.802-2.842 3.059-5.69 4.734-8.267 4.292-6.598 8.77-13.076 13.173-19.601z"/><path fill="#0A5CB7" d="M572.965 80.869c-4.058 6.792-8.535 13.27-12.827 19.868-1.675 2.577-2.932 5.425-4.757 7.79a573.012 573.012 0 0 1-.33-29.512c.039-2.907-.726-4.447-3.87-3.97 4.244-4.433 8.488-8.866 12.79-13.675.85-.925 1.641-1.475 3.02-2.238 1.066-.84 1.547-1.467 2.027-2.094 0 0-.011-.025.006-.022 3.035-.257 2.953 1.759 2.999 3.877.143 6.57.39 13.14.942 19.976z"/><path fill="#4CC5DB" d="M605.215 94.928c-6.552-7.245-13.104-14.49-19.965-21.895.829-1.42 1.966-2.681 3.739-4.06 1.102-.73 1.568-1.344 2.034-1.958 0 0-.013-.013-.01-.002 3.353-1.67 6.688-3.382 10.063-5.01.982-.474 2.079-.711 3.51-1.043 1.099 1.02 1.812 2.028 2.496 3.862-.047 8.815.04 16.807-.163 24.79-.045 1.786-1.109 3.545-1.704 5.316z"/><path fill="#146FC5" d="M590.707 67.041c-.15.588-.616 1.201-1.402 1.823.148-.594.617-1.195 1.402-1.823z"/><path fill="#2893E1" d="M659.223 238.954c1.38-.667 3.182-1.298 5.383-1.884-1.388.67-3.175 1.295-5.383 1.884z"/><path fill="#1877CB" d="M610.672 57.005c-.732.668-1.839 1.324-3.31 1.947.736-.676 1.835-1.318 3.31-1.947z"/><path fill="#33A7F0" d="M713.007 84.56c-.543-.14-1.139-.575-1.778-1.321.546.135 1.136.58 1.778 1.321zM711.023 82.519c-.511-.13-1.077-.54-1.682-1.239.517.126 1.072.543 1.682 1.239z"/><path fill="#1569B7" d="M447.11 197.054c.619.183 1.234.712 1.86 1.597-.614-.18-1.239-.715-1.86-1.597z"/><path fill="#0B62BC" d="M571.388 208.836c3.691 3.305 7.383 6.61 11.435 10.371.966.912 1.57 1.367 2.221 2.146.714.741 1.382 1.159 2.045 1.573-.005-.004.02-.036.02-.036-.036 5.824.009 11.65-.165 17.47-.045 1.502-.777 2.984-1.594 4.572-.832.07-1.263.043-2.074-.341-1.054-.748-1.729-1.14-2.404-1.531-4.594-3.117-9.188-6.234-13.421-9.72 1.09-1.595 2.393-2.794 2.448-4.05.236-5.316.001-10.652.165-15.974.046-1.505.861-2.987 1.324-4.48z"/><path fill="#4CC5DB" d="M584.998 221.03c-.605-.456-1.21-.911-1.857-1.67 1.08-.49 2.65-.265 3.26-.926 6.288-6.806 12.42-13.756 19.048-20.786.82 1.587 1.47 3.288 1.503 5 .152 8.229.137 16.46.182 24.69-.68 1.59-1.36 3.18-2.046 5.12-4.49-2.333-8.961-5.036-13.465-7.683-1.206-.709-2.512-1.247-4.143-1.874-.371-.01-.396.021-.436-.302-.708-.74-1.377-1.154-2.046-1.57z"/><path fill="#0C64BD" d="M568.693 57.064c-.155.6-.636 1.227-1.444 1.879.154-.601.636-1.227 1.444-1.879z"/><path fill="#207ABD" d="M474.888 67.094c-.171.617-.685 1.236-1.546 1.87.169-.611.686-1.24 1.546-1.87z"/><path fill="#1A7DD0" d="M619.078 237.508c1.255-.021 2.593.313 4.02 1-1.253.021-2.595-.312-4.02-1z"/><path fill="#2685C1" d="M490.745 59.03c-.178.541-.663 1.094-1.453 1.655.178-.543.663-1.093 1.453-1.654z"/><path fill="#44B2D4" d="M559.052 234.905c.214-.579.758-1.142 1.631-1.68-.215.581-.758 1.138-1.631 1.68z"/><path fill="#2C8FC5" d="M505.075 237.582c1.197.004 2.48.354 3.896 1.024-1.18-.012-2.495-.345-3.896-1.024z"/><path fill="#2086D7" d="M640.91 52.323c-1.62.432-3.34.526-5.487.552 1.511-.342 3.449-.616 5.487-.552z"/><path fill="#1B7ED1" d="M626.766 53.04c-1.38.645-3.175 1.261-5.37 1.827 1.384-.652 3.169-1.254 5.37-1.827z"/><path fill="#207ABD" d="M473.036 223.396c.64.061 1.337.453 2.1 1.185-.636-.059-1.34-.457-2.1-1.185z"/><path fill="#1A71BA" d="M459.031 211.335c.582.132 1.201.584 1.872 1.361-.577-.13-1.206-.586-1.872-1.361zM461.022 213.362c.589.12 1.221.558 1.904 1.323-.587-.117-1.224-.561-1.904-1.323zM463.028 215.344c.594.121 1.228.562 1.908 1.334-.591-.118-1.23-.566-1.908-1.334z"/><path fill="#2685C1" d="M487.055 231.49c.648.028 1.357.381 2.137 1.07-.645-.024-1.36-.384-2.137-1.07z"/><path fill="#42B0D3" d="M534.904 52.464c-4.59.421-9.29.465-14.454.444.314-.675 1.09-1.286 2.207-1.908 4.274.354 8.204.72 12.247 1.464z"/><path fill="#095CB7" d="M571.36 208.468c-.435 1.86-1.25 3.343-1.296 4.848-.164 5.322.07 10.658-.165 15.975-.055 1.255-1.359 2.454-2.506 3.702-.417.023-.394.016-.433-.295-.65-.778-1.262-1.245-1.874-1.713-.45-.28-.9-.56-1.603-.92-3.638-3.512-7.023-6.946-10.393-11.156.313-2.715.843-4.65.869-6.593.101-7.444-.122-14.896.165-22.33.065-1.694 1.684-3.328 2.588-4.99 4.873 7.701 9.746 15.402 14.647 23.472z"/><path fill="#0B62BC" d="M565.131 231.303c.567.15 1.179.617 1.823 1.403-.57-.15-1.174-.617-1.823-1.403z"/><path fill="#106BC2" d="M580.943 243.377c.604.074 1.28.466 2.012 1.17-.608-.076-1.274-.464-2.012-1.17z"/><path fill="#0654B1" d="M556.703 184.623c-.895 2.035-2.514 3.669-2.58 5.363-.286 7.434-.063 14.886-.164 22.33-.026 1.942-.556 3.878-.9 6.23-.805-.547-1.562-1.508-2.253-3.176-.6-1.237-1.265-1.766-1.93-2.295 0 0 .093-.03.054-.33-.704-.768-1.37-1.237-2.034-1.705-3.957-7.033-8.678-13.757-11.667-21.18-3.41-8.47-5.878-17.445-7.61-26.422-1.211-6.28-.188-12.954-.716-19.408-.929-11.369 1.095-22.468 4.646-32.94 3.274-9.651 8.945-18.49 13.564-27.684.362-.721.757-1.427 1.8-2.325 1.112-.88 1.563-1.575 2.013-2.27.572-1.128 1.143-2.256 1.985-3.575 3.414-.668 4.179.872 4.14 3.779-.133 9.716-.048 19.435-.025 29.629.032.904.041 1.333-.34 2.088-.428.97-.467 1.614-.505 2.257-.393 1.131-.787 2.263-1.635 3.767-.776 1.11-1.097 1.849-1.418 2.586-.701 12.991-2.51 26.05-1.717 38.95.54 8.768 4.727 17.312 7.292 26.33z"/><path fill="#0A5CB7" d="M548.585 78.874c-.11.632-.56 1.327-1.357 2.05.108-.642.562-1.315 1.357-2.05z"/><path fill="#095CB7" d="M546.967 211.374c.594.134 1.259.603 1.938 1.414-.613-.132-1.24-.605-1.938-1.414zM548.89 213.44c.651.164 1.317.693 1.975 1.586-.659-.164-1.31-.692-1.975-1.585z"/><path fill="#58D7E3" d="M617.21 171.01c1.2-6.193 2.891-12.34 3.488-18.59.993-10.393-1.054-20.561-3.336-31.012 1.131-1.95 2.475-3.45 2.544-5.007.527-11.847.806-23.706 1.162-35.562 3.349 5.726 6.698 11.451 10.031 17.887.563 1.233 1.141 1.756 1.72 2.279.082.421.163.843.214 2.03-.365 3.548-.979 6.329-.988 9.111-.078 23.267-.089 46.535.046 69.801.01 1.703 1.318 3.398 2.022 5.097-.146 1.193-.291 2.387-1.085 3.82-1.073.965-1.496 1.69-1.92 2.414-3.109 5.915-6.218 11.83-9.706 17.38-.72-4.803-1.258-9.236-1.358-13.68-.164-7.3-.045-14.607-.044-21.91 0-1.995.36-4.233-2.79-4.058z"/><path fill="#5DDEE5" d="M634.414 186.824c-1.005-1.479-2.313-3.174-2.323-4.877-.135-23.266-.124-46.534-.046-69.8.009-2.783.623-5.564.972-8.787 1.227 1.88 2.808 4.087 3.564 6.549 1.14 3.712 1.781 7.587 2.498 11.418 3.207 17.142 3.358 34.31-.138 51.41-.964 4.714-2.794 9.25-4.527 14.087z"/><path fill="#53D0DF" d="M621.041 80.487c-.33 12.208-.608 24.067-1.135 35.914-.07 1.557-1.413 3.056-2.59 4.607-3.248-8.93-6.01-17.913-12.089-25.73.583-2.121 1.647-3.88 1.692-5.665.203-7.984.116-15.976.175-24.46 4.669 4.663 9.295 9.822 13.947 15.334zM617.101 171.39c3.26-.555 2.9 1.683 2.9 3.677-.002 7.304-.12 14.611.043 21.912.1 4.443.638 8.876 1.006 13.757-4.388 5.78-8.803 11.117-13.567 16.528-.394-8.156-.379-16.387-.531-24.615-.032-1.713-.683-3.414-1.358-5.335 4.675-8.158 9.593-16.132 11.507-25.924z"/><path fill="#5DDEE5" d="M632.838 100.675c-.598-.193-1.176-.716-1.752-1.57.592.193 1.182.717 1.752 1.57zM631.433 193.193c.099-.64.522-1.364 1.295-2.127-.09.656-.53 1.349-1.295 2.127z"/><path fill="#0A5CB7" d="M554.481 112.75c-.262-.404-.223-1.047.075-1.723.248.473.237.98-.075 1.724zM551.453 119.253c-.004-.648.317-1.386.962-2.193.004.656-.316 1.38-.962 2.193z"/><path fill="#106BC2" d="M585.044 221.353c.623.092 1.292.507 2.005 1.25-.623-.091-1.29-.509-2.005-1.25z"/></svg>