<?xml version="1.0" encoding="UTF-8"?>
<!DOCTYPE svg PUBLIC "-//W3C//DTD SVG 1.1//EN" "http://www.w3.org/Graphics/SVG/1.1/DTD/svg11.dtd">
<svg xmlns="http://www.w3.org/2000/svg" version="1.1" width="500px" height="500px" style="shape-rendering:geometricPrecision; text-rendering:geometricPrecision; image-rendering:optimizeQuality; fill-rule:evenodd; clip-rule:evenodd" xmlns:xlink="http://www.w3.org/1999/xlink">
<g><path style="opacity:1" fill="#399bcc" d="M 171.5,69.5 C 180.359,68.2382 189.359,68.2382 198.5,69.5C 198.264,80.3822 198.264,91.2155 198.5,102C 193.177,102.499 187.844,102.666 182.5,102.5C 182.264,91.6178 182.264,80.7845 182.5,70C 178.848,69.5014 175.182,69.3347 171.5,69.5 Z"/></g>
<g><path style="opacity:1" fill="#3da3cf" d="M 198.5,69.5 C 207.679,69.716 216.679,71.0494 225.5,73.5C 225.918,74.2216 226.584,74.7216 227.5,75C 227.167,80 226.833,85 226.5,90C 227.448,90.4828 228.448,90.6495 229.5,90.5C 221.586,95.0728 213.92,100.073 206.5,105.5C 204.369,104.686 202.036,104.186 199.5,104C 190.173,103.5 180.839,103.334 171.5,103.5C 174.962,102.518 178.629,102.185 182.5,102.5C 187.844,102.666 193.177,102.499 198.5,102C 198.264,91.2155 198.264,80.3822 198.5,69.5 Z"/></g>
<g><path style="opacity:1" fill="#1f7cd2" d="M 303.5,69.5 C 305.199,69.3398 306.866,69.5065 308.5,70C 308.5,80.6667 308.5,91.3333 308.5,102C 307.263,102.232 306.263,102.732 305.5,103.5C 301.176,103.927 296.842,104.261 292.5,104.5C 290.621,105.341 288.621,105.675 286.5,105.5C 284.167,106.167 281.833,106.833 279.5,107.5C 280.598,106.603 280.598,105.77 279.5,105C 280.5,104.667 281.5,104.333 282.5,104C 282.5,94.6667 282.5,85.3333 282.5,76C 280.679,73.8634 278.346,73.0301 275.5,73.5C 284.478,70.5984 293.811,69.265 303.5,69.5 Z"/></g>
<g><path style="opacity:1" fill="#2b85d8" d="M 303.5,69.5 C 312.692,68.2354 322.026,68.2354 331.5,69.5C 331.369,70.2389 331.536,70.9056 332,71.5C 334.292,70.0922 336.459,70.2589 338.5,72C 337.167,82 337.167,92 338.5,102C 336.406,103.352 334.073,103.852 331.5,103.5C 322.833,103.5 314.167,103.5 305.5,103.5C 306.263,102.732 307.263,102.232 308.5,102C 308.5,91.3333 308.5,80.6667 308.5,70C 306.866,69.5065 305.199,69.3398 303.5,69.5 Z"/></g>
<g><path style="opacity:1" fill="#2f90c7" d="M 171.5,69.5 C 175.182,69.3347 178.848,69.5014 182.5,70C 182.264,80.7845 182.264,91.6178 182.5,102.5C 178.629,102.185 174.962,102.518 171.5,103.5C 164.802,104.314 158.136,105.314 151.5,106.5C 152.429,105.685 153.429,104.852 154.5,104C 153.167,94 153.167,84 154.5,74C 152.406,72.6485 150.073,72.1485 147.5,72.5C 155.203,70.2113 163.203,69.2113 171.5,69.5 Z"/></g>
<g><path style="opacity:1" fill="#2b8dde" d="M 331.5,69.5 C 341.529,69.7862 351.195,71.4529 360.5,74.5C 359.835,85.8343 359.835,97.0009 360.5,108C 359.207,108.49 357.873,108.657 356.5,108.5C 348.067,106.71 339.734,105.043 331.5,103.5C 334.073,103.852 336.406,103.352 338.5,102C 337.167,92 337.167,82 338.5,72C 336.459,70.2589 334.292,70.0922 332,71.5C 331.536,70.9056 331.369,70.2389 331.5,69.5 Z"/></g>
<g><path style="opacity:1" fill="#2a87c4" d="M 147.5,72.5 C 150.073,72.1485 152.406,72.6485 154.5,74C 153.167,84 153.167,94 154.5,104C 153.429,104.852 152.429,105.685 151.5,106.5C 147.6,107.808 143.6,108.808 139.5,109.5C 139.264,98.6178 139.264,87.7845 139.5,77C 138.437,75.8118 137.103,75.3118 135.5,75.5C 139.2,73.7547 143.2,72.7547 147.5,72.5 Z"/></g>
<g><path style="opacity:1" fill="#49afd3" d="M 225.5,73.5 C 233.891,75.6305 242.225,77.9638 250.5,80.5C 247.167,82.1667 243.833,83.8333 240.5,85.5C 236.71,86.8951 233.043,88.5617 229.5,90.5C 228.448,90.6495 227.448,90.4828 226.5,90C 226.833,85 227.167,80 227.5,75C 226.584,74.7216 225.918,74.2216 225.5,73.5 Z"/></g>
<g><path style="opacity:1" fill="#2981c2" d="M 135.5,75.5 C 137.103,75.3118 138.437,75.8118 139.5,77C 139.264,87.7845 139.264,98.6178 139.5,109.5C 133.505,111.832 127.505,114.165 121.5,116.5C 121.164,104.823 121.497,93.3227 122.5,82C 121.756,80.9614 120.756,80.4614 119.5,80.5C 124.494,78.0592 129.828,76.3926 135.5,75.5 Z"/></g>
<g><path style="opacity:1" fill="#2e95e5" d="M 360.5,74.5 C 370.846,76.8377 380.846,80.171 390.5,84.5C 389.832,96.5009 389.832,108.334 390.5,120C 389.756,121.039 388.756,121.539 387.5,121.5C 377.434,116.293 367.1,111.96 356.5,108.5C 357.873,108.657 359.207,108.49 360.5,108C 359.835,97.0009 359.835,85.8343 360.5,74.5 Z"/></g>
<g><path style="opacity:1" fill="#257bc0" d="M 119.5,80.5 C 120.756,80.4614 121.756,80.9614 122.5,82C 121.497,93.3227 121.164,104.823 121.5,116.5C 117.361,119.072 113.027,121.405 108.5,123.5C 107.832,111.499 107.832,99.6658 108.5,88C 107.756,86.9614 106.756,86.4614 105.5,86.5C 109.866,83.9884 114.533,81.9884 119.5,80.5 Z"/></g>
<g><path style="opacity:1" fill="#1770c9" d="M 275.5,73.5 C 278.346,73.0301 280.679,73.8634 282.5,76C 282.5,85.3333 282.5,94.6667 282.5,104C 281.5,104.333 280.5,104.667 279.5,105C 280.598,105.77 280.598,106.603 279.5,107.5C 268.489,109.945 258.156,113.945 248.5,119.5C 246.5,120.5 244.5,121.5 242.5,122.5C 242.264,110.285 242.264,98.1178 242.5,86C 241.906,85.5357 241.239,85.369 240.5,85.5C 243.833,83.8333 247.167,82.1667 250.5,80.5C 258.602,77.3908 266.935,75.0574 275.5,73.5 Z"/></g>
<g><path style="opacity:1" fill="#2275bd" d="M 105.5,86.5 C 106.756,86.4614 107.756,86.9614 108.5,88C 107.832,99.6658 107.832,111.499 108.5,123.5C 103.19,127.134 97.8564,130.801 92.5,134.5C 91.9346,129.292 91.6012,124.125 91.5,119C 92.5,118.667 93.5,118.333 94.5,118C 93.1667,110.667 93.1667,103.333 94.5,96C 93.4366,94.8118 92.1033,94.3118 90.5,94.5C 95.3335,91.5824 100.333,88.9157 105.5,86.5 Z"/></g>
<g><path style="opacity:1" fill="#1f6fbb" d="M 90.5,94.5 C 92.1033,94.3118 93.4366,94.8118 94.5,96C 93.1667,103.333 93.1667,110.667 94.5,118C 93.5,118.333 92.5,118.667 91.5,119C 91.6012,124.125 91.9346,129.292 92.5,134.5C 86.4737,140.195 80.4737,145.861 74.5,151.5C 75.1012,143.359 75.4346,135.192 75.5,127C 75.497,119.799 74.8303,112.966 73.5,106.5C 78.5886,101.755 84.2552,97.7549 90.5,94.5 Z"/></g>
<g><path style="opacity:1" fill="#329deb" d="M 390.5,84.5 C 399.529,89.0098 408.196,94.0098 416.5,99.5C 416.577,100.75 417.244,101.583 418.5,102C 418.5,115.333 418.5,128.667 418.5,142C 417.552,142.483 416.552,142.649 415.5,142.5C 406.709,134.699 397.375,127.699 387.5,121.5C 388.756,121.539 389.756,121.039 390.5,120C 389.832,108.334 389.832,96.5009 390.5,84.5 Z"/></g>
<g><path style="opacity:1" fill="#1865c0" d="M 240.5,85.5 C 241.239,85.369 241.906,85.5357 242.5,86C 242.264,98.1178 242.264,110.285 242.5,122.5C 225.743,132.579 211.076,145.246 198.5,160.5C 197.236,158.098 197.903,156.598 200.5,156C 199.167,142 199.167,128 200.5,114C 199.436,112.489 198.103,112.323 196.5,113.5C 199.52,110.484 202.854,107.817 206.5,105.5C 213.92,100.073 221.586,95.0728 229.5,90.5C 233.043,88.5617 236.71,86.8951 240.5,85.5 Z"/></g>
<g><path style="opacity:1" fill="#49bdd8" d="M 286.5,105.5 C 286.264,117.715 286.264,129.882 286.5,142C 285.181,142.195 283.847,142.028 282.5,141.5C 272.467,132.129 261.134,124.796 248.5,119.5C 258.156,113.945 268.489,109.945 279.5,107.5C 281.833,106.833 284.167,106.167 286.5,105.5 Z"/></g>
<g><path style="opacity:1" fill="#35a5f1" d="M 416.5,99.5 C 425.77,105.772 434.437,112.772 442.5,120.5C 442.869,122.441 443.536,124.275 444.5,126C 443.167,141.333 443.167,156.667 444.5,172C 443.922,173.417 442.922,174.25 441.5,174.5C 434.249,162.654 425.582,151.987 415.5,142.5C 416.552,142.649 417.552,142.483 418.5,142C 418.5,128.667 418.5,115.333 418.5,102C 417.244,101.583 416.577,100.75 416.5,99.5 Z"/></g>
<g><path style="opacity:1" fill="#51cadd" d="M 292.5,104.5 C 301.44,111.771 309.773,119.771 317.5,128.5C 317.264,147.382 317.264,166.215 317.5,185C 316.906,185.464 316.239,185.631 315.5,185.5C 306.921,169.006 295.921,154.339 282.5,141.5C 283.847,142.028 285.181,142.195 286.5,142C 286.264,129.882 286.264,117.715 286.5,105.5C 288.621,105.675 290.621,105.341 292.5,104.5 Z"/></g>
<g><path style="opacity:1" fill="#165dba" d="M 198.5,160.5 C 191.739,170.35 185.739,180.683 180.5,191.5C 179.835,172.166 179.835,152.999 180.5,134C 180,133.5 179.5,133 179,132.5C 178.252,134.751 176.752,136.084 174.5,136.5C 181.187,128.148 188.52,120.481 196.5,113.5C 198.103,112.323 199.436,112.489 200.5,114C 199.167,128 199.167,142 200.5,156C 197.903,156.598 197.236,158.098 198.5,160.5 Z"/></g>
<g><path style="opacity:1" fill="#1b65b7" d="M 73.5,106.5 C 74.8303,112.966 75.497,119.799 75.5,127C 75.4346,135.192 75.1012,143.359 74.5,151.5C 63.8156,163.539 55.1489,176.872 48.5,191.5C 48.8447,187.798 48.5114,184.298 47.5,181C 49.1667,180.667 50.8333,180.333 52.5,180C 52.5,164 52.5,148 52.5,132C 50.6804,130.311 48.6804,130.145 46.5,131.5C 54.077,121.56 63.077,113.226 73.5,106.5 Z"/></g>
<g><path style="opacity:1" fill="#1a5eb5" d="M 48.5,191.5 C 33.8719,230.155 33.8719,268.822 48.5,307.5C 48.404,311.619 48.0706,315.452 47.5,319C 49.1667,319.333 50.8333,319.667 52.5,320C 52.5,336 52.5,352 52.5,368C 51.4366,369.188 50.1033,369.688 48.5,369.5C 42.0572,363.724 36.7239,357.057 32.5,349.5C 33.2891,349.217 33.9558,348.717 34.5,348C 34.5,282.667 34.5,217.333 34.5,152C 33.9558,151.283 33.2891,150.783 32.5,150.5C 36.4019,143.599 41.0685,137.266 46.5,131.5C 48.6804,130.145 50.6804,130.311 52.5,132C 52.5,148 52.5,164 52.5,180C 50.8333,180.333 49.1667,180.667 47.5,181C 48.5114,184.298 48.8447,187.798 48.5,191.5 Z"/></g>
<g><path style="opacity:1" fill="#39adf7" d="M 442.5,120.5 C 452.684,130.346 461.351,141.346 468.5,153.5C 467.131,157.074 467.798,159.907 470.5,162C 469.167,221.333 469.167,280.667 470.5,340C 469.5,340.333 468.5,340.667 467.5,341C 467.67,342.57 468.003,344.403 468.5,346.5C 463.903,354.093 458.569,361.093 452.5,367.5C 451.835,348.166 451.835,328.999 452.5,310C 451.552,309.517 450.552,309.351 449.5,309.5C 468.375,263.214 465.709,218.214 441.5,174.5C 442.922,174.25 443.922,173.417 444.5,172C 443.167,156.667 443.167,141.333 444.5,126C 443.536,124.275 442.869,122.441 442.5,120.5 Z"/></g>
<g><path style="opacity:1" fill="#1456b6" d="M 180.5,191.5 C 166.571,228.227 165.905,265.227 178.5,302.5C 177.832,322.501 177.832,342.334 178.5,362C 177.436,363.511 176.103,363.677 174.5,362.5C 168.42,355.409 163.087,347.742 158.5,339.5C 159.289,339.217 159.956,338.717 160.5,338C 160.5,279.333 160.5,220.667 160.5,162C 159.956,161.283 159.289,160.783 158.5,160.5C 162.664,151.679 167.997,143.679 174.5,136.5C 176.752,136.084 178.252,134.751 179,132.5C 179.5,133 180,133.5 180.5,134C 179.835,152.999 179.835,172.166 180.5,191.5 Z"/></g>
<g><path style="opacity:1" fill="#57d7e2" d="M 332.5,147.5 C 338.173,154.836 342.839,162.836 346.5,171.5C 346.046,223.606 346.046,275.606 346.5,327.5C 343.344,336.493 338.677,344.493 332.5,351.5C 332.046,283.606 332.046,215.606 332.5,147.5 Z"/></g>
<g><path style="opacity:1" fill="#3bb3fc" d="M 468.5,153.5 C 495.89,197.846 503.39,245.513 491,296.5C 485.885,314.385 478.385,331.052 468.5,346.5C 468.003,344.403 467.67,342.57 467.5,341C 468.5,340.667 469.5,340.333 470.5,340C 469.167,280.667 469.167,221.333 470.5,162C 467.798,159.907 467.131,157.074 468.5,153.5 Z"/></g>
<g><path style="opacity:1" fill="#0c55b1" d="M 32.5,150.5 C 33.2891,150.783 33.9558,151.283 34.5,152C 34.5,217.333 34.5,282.667 34.5,348C 33.9558,348.717 33.2891,349.217 32.5,349.5C 26.805,341.447 22.1383,332.78 18.5,323.5C 19.2891,323.217 19.9558,322.717 20.5,322C 19.1667,273.333 19.1667,224.667 20.5,176C 19.9056,175.536 19.2389,175.369 18.5,175.5C 21.9033,166.35 26.5699,158.017 32.5,150.5 Z"/></g>
<g><path style="opacity:1" fill="#1552b2" d="M 158.5,160.5 C 159.289,160.783 159.956,161.283 160.5,162C 160.5,220.667 160.5,279.333 160.5,338C 159.956,338.717 159.289,339.217 158.5,339.5C 133.979,295.656 128.146,249.322 141,200.5C 144.971,186.237 150.804,172.903 158.5,160.5 Z"/></g>
<g><path style="opacity:1" fill="#5edee5" d="M 346.5,171.5 C 364.634,209.819 369.134,249.819 360,291.5C 357.148,304.236 352.648,316.236 346.5,327.5C 346.046,275.606 346.046,223.606 346.5,171.5 Z"/></g>
<g><path style="opacity:1" fill="#1853b1" d="M 18.5,175.5 C 19.2389,175.369 19.9056,175.536 20.5,176C 19.1667,224.667 19.1667,273.333 20.5,322C 19.9558,322.717 19.2891,323.217 18.5,323.5C 7.30809,299.882 1.97476,274.882 2.5,248.5C 2.01894,222.771 7.35227,198.438 18.5,175.5 Z"/></g>
<g><path style="opacity:1" fill="#58d3e1" d="M 317.5,128.5 C 323.212,134.249 328.212,140.582 332.5,147.5C 332.046,215.606 332.046,283.606 332.5,351.5C 327.927,359.074 322.594,366.074 316.5,372.5C 317.043,353.061 317.376,333.895 317.5,315C 316.906,314.536 316.239,314.369 315.5,314.5C 335.313,271.511 335.313,228.511 315.5,185.5C 316.239,185.631 316.906,185.464 317.5,185C 317.264,166.215 317.264,147.382 317.5,128.5 Z"/></g>
<g><path style="opacity:1" fill="#185dba" d="M 178.5,302.5 C 184.205,315.578 191.205,327.912 199.5,339.5C 200.495,354.493 200.828,369.327 200.5,384C 199.099,384.41 197.766,384.91 196.5,385.5C 187.791,379.125 180.458,371.458 174.5,362.5C 176.103,363.677 177.436,363.511 178.5,362C 177.832,342.334 177.832,322.501 178.5,302.5 Z"/></g>
<g><path style="opacity:1" fill="#52cbde" d="M 315.5,314.5 C 316.239,314.369 316.906,314.536 317.5,315C 317.376,333.895 317.043,353.061 316.5,372.5C 311.796,378.205 306.463,383.205 300.5,387.5C 299.835,372.166 299.835,356.999 300.5,342C 299.956,341.283 299.289,340.783 298.5,340.5C 304.678,332.138 310.344,323.472 315.5,314.5 Z"/></g>
<g><path style="opacity:1" fill="#1964b7" d="M 48.5,307.5 C 53.0579,316.73 58.0579,325.73 63.5,334.5C 63.5461,350.644 63.8795,366.477 64.5,382C 63.7562,383.039 62.7562,383.539 61.5,383.5C 56.438,379.441 52.1047,374.774 48.5,369.5C 50.1033,369.688 51.4366,369.188 52.5,368C 52.5,352 52.5,336 52.5,320C 50.8333,319.667 49.1667,319.333 47.5,319C 48.0706,315.452 48.404,311.619 48.5,307.5 Z"/></g>
<g><path style="opacity:1" fill="#35a7f2" d="M 449.5,309.5 C 450.552,309.351 451.552,309.517 452.5,310C 451.835,328.999 451.835,348.166 452.5,367.5C 445.772,376.563 437.772,384.23 428.5,390.5C 427.402,376.284 427.402,362.118 428.5,348C 427.756,346.961 426.756,346.461 425.5,346.5C 435.243,335.36 443.243,323.026 449.5,309.5 Z"/></g>
<g><path style="opacity:1" fill="#1a69b8" d="M 63.5,334.5 C 68.8038,340.808 74.1371,347.142 79.5,353.5C 79.1644,367.842 79.4978,382.009 80.5,396C 79.552,396.483 78.552,396.649 77.5,396.5C 71.7604,392.635 66.4271,388.302 61.5,383.5C 62.7562,383.539 63.7562,383.039 64.5,382C 63.8795,366.477 63.5461,350.644 63.5,334.5 Z"/></g>
<g><path style="opacity:1" fill="#1362bf" d="M 199.5,339.5 C 206.473,348.473 214.473,356.473 223.5,363.5C 224.494,377.159 224.827,390.659 224.5,404C 223.906,404.464 223.239,404.631 222.5,404.5C 219.339,403.087 216.339,401.42 213.5,399.5C 211.14,397.147 208.473,395.147 205.5,393.5C 201.895,391.528 198.895,388.861 196.5,385.5C 197.766,384.91 199.099,384.41 200.5,384C 200.828,369.327 200.495,354.493 199.5,339.5 Z"/></g>
<g><path style="opacity:1" fill="#4ec4db" d="M 298.5,340.5 C 299.289,340.783 299.956,341.283 300.5,342C 299.835,356.999 299.835,372.166 300.5,387.5C 298.24,389.65 295.907,391.817 293.5,394C 294.737,394.232 295.737,394.732 296.5,395.5C 292.779,395.089 289.112,394.422 285.5,393.5C 286.068,381.621 286.401,369.788 286.5,358C 285.956,357.283 285.289,356.783 284.5,356.5C 289.568,351.437 294.235,346.104 298.5,340.5 Z"/></g>
<g><path style="opacity:1" fill="#1c6fbb" d="M 79.5,353.5 C 83.6478,357.404 87.9811,361.071 92.5,364.5C 92.8693,366.441 93.536,368.275 94.5,370C 93.1667,381.333 93.1667,392.667 94.5,404C 92.8659,404.494 91.1992,404.66 89.5,404.5C 85.205,402.192 81.205,399.526 77.5,396.5C 78.552,396.649 79.552,396.483 80.5,396C 79.4978,382.009 79.1644,367.842 79.5,353.5 Z"/></g>
<g><path style="opacity:1" fill="#48bcd8" d="M 284.5,356.5 C 285.289,356.783 285.956,357.283 286.5,358C 286.401,369.788 286.068,381.621 285.5,393.5C 277.511,392.17 269.845,389.837 262.5,386.5C 257.978,384.736 253.645,382.736 249.5,380.5C 262.265,374.062 273.932,366.062 284.5,356.5 Z"/></g>
<g><path style="opacity:1" fill="#319eec" d="M 425.5,346.5 C 426.756,346.461 427.756,346.961 428.5,348C 427.402,362.118 427.402,376.284 428.5,390.5C 417.187,400.498 404.521,408.498 390.5,414.5C 390.264,402.285 390.264,390.118 390.5,378C 389.552,377.517 388.552,377.351 387.5,377.5C 401.908,369.438 414.575,359.104 425.5,346.5 Z"/></g>
<g><path style="opacity:1" fill="#2376be" d="M 92.5,364.5 C 97.3604,368.423 102.36,372.09 107.5,375.5C 108.494,387.825 108.827,399.992 108.5,412C 107.956,412.717 107.289,413.217 106.5,413.5C 100.35,411.26 94.6837,408.26 89.5,404.5C 91.1992,404.66 92.8659,404.494 94.5,404C 93.1667,392.667 93.1667,381.333 94.5,370C 93.536,368.275 92.8693,366.441 92.5,364.5 Z"/></g>
<g><path style="opacity:1" fill="#247bbf" d="M 107.5,375.5 C 112.667,377.916 117.667,380.582 122.5,383.5C 121.402,395.049 121.402,406.549 122.5,418C 121.956,418.717 121.289,419.217 120.5,419.5C 115.533,418.012 110.866,416.012 106.5,413.5C 107.289,413.217 107.956,412.717 108.5,412C 108.827,399.992 108.494,387.825 107.5,375.5 Z"/></g>
<g><path style="opacity:1" fill="#176cc6" d="M 223.5,363.5 C 231.483,370.162 240.15,375.828 249.5,380.5C 253.645,382.736 257.978,384.736 262.5,386.5C 261.835,397.834 261.835,409.001 262.5,420C 261.756,421.039 260.756,421.539 259.5,421.5C 256.032,420.899 252.699,419.899 249.5,418.5C 240.091,414.629 231.091,409.962 222.5,404.5C 223.239,404.631 223.906,404.464 224.5,404C 224.827,390.659 224.494,377.159 223.5,363.5 Z"/></g>
<g><path style="opacity:1" fill="#2884c3" d="M 122.5,383.5 C 130.075,386.455 137.741,389.122 145.5,391.5C 147.512,392.524 149.178,394.024 150.5,396C 149.167,406 149.167,416 150.5,426C 148.866,426.494 147.199,426.66 145.5,426.5C 136.797,425.15 128.464,422.817 120.5,419.5C 121.289,419.217 121.956,418.717 122.5,418C 121.402,406.549 121.402,395.049 122.5,383.5 Z"/></g>
<g><path style="opacity:1" fill="#2b91e2" d="M 387.5,377.5 C 388.552,377.351 389.552,377.517 390.5,378C 390.264,390.118 390.264,402.285 390.5,414.5C 373.389,422.612 355.389,427.612 336.5,429.5C 336.586,428.504 336.252,427.671 335.5,427C 336.5,426.667 337.5,426.333 338.5,426C 337.167,416 337.167,406 338.5,396C 337.207,395.51 335.873,395.343 334.5,395.5C 353.166,392.722 370.833,386.722 387.5,377.5 Z"/></g>
<g><path style="opacity:1" fill="#2e8ec6" d="M 145.5,391.5 C 152.478,392.995 159.478,394.328 166.5,395.5C 168.348,398.895 169.682,399.228 170.5,396.5C 171.308,396.808 171.975,397.308 172.5,398C 171.167,408 171.167,418 172.5,428C 169.722,429.392 166.722,429.892 163.5,429.5C 157.209,429.505 151.209,428.505 145.5,426.5C 147.199,426.66 148.866,426.494 150.5,426C 149.167,416 149.167,406 150.5,396C 149.178,394.024 147.512,392.524 145.5,391.5 Z"/></g>
<g><path style="opacity:1" fill="#3ba1ce" d="M 205.5,393.5 C 208.473,395.147 211.14,397.147 213.5,399.5C 212.711,399.783 212.044,400.283 211.5,401C 211.6,410.122 211.933,419.289 212.5,428.5C 206.928,429.601 201.262,430.268 195.5,430.5C 196.429,429.685 197.429,428.852 198.5,428C 197.167,418 197.167,408 198.5,398C 196.75,396.681 194.75,396.181 192.5,396.5C 196.935,395.956 201.268,394.956 205.5,393.5 Z"/></g>
<g><path style="opacity:1" fill="#1c78d0" d="M 262.5,386.5 C 269.845,389.837 277.511,392.17 285.5,393.5C 289.112,394.422 292.779,395.089 296.5,395.5C 297.5,395.5 298.5,395.5 299.5,395.5C 300.429,396.315 301.429,397.148 302.5,398C 301.167,408 301.167,418 302.5,428C 300.406,429.352 298.073,429.852 295.5,429.5C 282.977,428.7 270.977,426.033 259.5,421.5C 260.756,421.539 261.756,421.039 262.5,420C 261.835,409.001 261.835,397.834 262.5,386.5 Z"/></g>
<g><path style="opacity:1" fill="#3097ca" d="M 166.5,395.5 C 175.149,396.203 183.815,396.536 192.5,396.5C 194.75,396.181 196.75,396.681 198.5,398C 197.167,408 197.167,418 198.5,428C 197.429,428.852 196.429,429.685 195.5,430.5C 184.654,430.828 173.987,430.494 163.5,429.5C 166.722,429.892 169.722,429.392 172.5,428C 171.167,418 171.167,408 172.5,398C 171.975,397.308 171.308,396.808 170.5,396.5C 169.682,399.228 168.348,398.895 166.5,395.5 Z"/></g>
<g><path style="opacity:1" fill="#2282d7" d="M 299.5,395.5 C 311.162,396.723 322.828,396.723 334.5,395.5C 335.873,395.343 337.207,395.51 338.5,396C 337.167,406 337.167,416 338.5,426C 337.5,426.333 336.5,426.667 335.5,427C 336.252,427.671 336.586,428.504 336.5,429.5C 322.735,430.822 309.069,430.822 295.5,429.5C 298.073,429.852 300.406,429.352 302.5,428C 301.167,418 301.167,408 302.5,398C 301.429,397.148 300.429,396.315 299.5,395.5 Z"/></g>
<g><path style="opacity:1" fill="#3da7d0" d="M 213.5,399.5 C 216.339,401.42 219.339,403.087 222.5,404.5C 231.091,409.962 240.091,414.629 249.5,418.5C 237.564,423.234 225.231,426.568 212.5,428.5C 211.933,419.289 211.6,410.122 211.5,401C 212.044,400.283 212.711,399.783 213.5,399.5 Z"/></g>
</svg>
